<svg width="48" height="48" viewBox="0 0 48 48" fill="none" xmlns="http://www.w3.org/2000/svg">
<g clip-path="url(#clip0_325_9443)">
<path fill-rule="evenodd" clip-rule="evenodd" d="M35.625 3H12.375C11.1324 3 10.125 4.00736 10.125 5.25V42.75C10.125 43.9926 11.1324 45 12.375 45H35.625C36.8676 45 37.875 43.9926 37.875 42.75V5.25C37.875 4.00736 36.8676 3 35.625 3ZM12.375 0.75C9.88972 0.75 7.875 2.76472 7.875 5.25V42.75C7.875 45.2353 9.88972 47.25 12.375 47.25H35.625C38.1103 47.25 40.125 45.2353 40.125 42.75V5.25C40.125 2.76472 38.1103 0.75 35.625 0.75H12.375Z" fill="#4697DD"/>
<path fill-rule="evenodd" clip-rule="evenodd" d="M24 39.75C29.1777 39.75 33.375 35.5527 33.375 30.375C33.375 25.1973 29.1777 21 24 21C18.8223 21 14.625 25.1973 14.625 30.375C14.625 35.5527 18.8223 39.75 24 39.75ZM24 42C30.4203 42 35.625 36.7953 35.625 30.375C35.625 23.9547 30.4203 18.75 24 18.75C17.5797 18.75 12.375 23.9547 12.375 30.375C12.375 36.7953 17.5797 42 24 42Z" fill="#4697DD"/>
<path fill-rule="evenodd" clip-rule="evenodd" d="M24 34.875C26.4853 34.875 28.5 32.8603 28.5 30.375C28.5 27.8897 26.4853 25.875 24 25.875C21.5147 25.875 19.5 27.8897 19.5 30.375C19.5 32.8603 21.5147 34.875 24 34.875ZM24 37.125C27.7279 37.125 30.75 34.1029 30.75 30.375C30.75 26.6471 27.7279 23.625 24 23.625C20.2721 23.625 17.25 26.6471 17.25 30.375C17.25 34.1029 20.2721 37.125 24 37.125Z" fill="#4697DD"/>
<path fill-rule="evenodd" clip-rule="evenodd" d="M24 14.25C25.864 14.25 27.375 12.739 27.375 10.875C27.375 9.01104 25.864 7.5 24 7.5C22.136 7.5 20.625 9.01104 20.625 10.875C20.625 12.739 22.136 14.25 24 14.25ZM24 16.5C27.1066 16.5 29.625 13.9816 29.625 10.875C29.625 7.7684 27.1066 5.25 24 5.25C20.8934 5.25 18.375 7.7684 18.375 10.875C18.375 13.9816 20.8934 16.5 24 16.5Z" fill="#4697DD"/>
<path d="M35.625 41.625C35.625 42.2463 35.1213 42.75 34.5 42.75C33.8787 42.75 33.375 42.2463 33.375 41.625C33.375 41.0037 33.8787 40.5 34.5 40.5C35.1213 40.5 35.625 41.0037 35.625 41.625Z" fill="#4697DD"/>
<path d="M35.625 5.625C35.625 6.24632 35.1213 6.75 34.5 6.75C33.8787 6.75 33.375 6.24632 33.375 5.625C33.375 5.00368 33.8787 4.5 34.5 4.5C35.1213 4.5 35.625 5.00368 35.625 5.625Z" fill="#4697DD"/>
<path d="M14.625 41.625C14.625 42.2463 14.1213 42.75 13.5 42.75C12.8787 42.75 12.375 42.2463 12.375 41.625C12.375 41.0037 12.8787 40.5 13.5 40.5C14.1213 40.5 14.625 41.0037 14.625 41.625Z" fill="#4697DD"/>
<path d="M14.625 5.625C14.625 6.24632 14.1213 6.75 13.5 6.75C12.8787 6.75 12.375 6.24632 12.375 5.625C12.375 5.00368 12.8787 4.5 13.5 4.5C14.1213 4.5 14.625 5.00368 14.625 5.625Z" fill="#4697DD"/>
<path d="M41.0654 25.1299C40.8029 24.5668 41.0465 23.8975 41.6096 23.6349L46.0278 21.5746C46.591 21.3121 47.2603 21.5557 47.5229 22.1188C47.7855 22.6819 47.5418 23.3513 46.9787 23.6138L42.5605 25.6741C41.9974 25.9367 41.328 25.6931 41.0654 25.1299Z" fill="#4697DD"/>
<path d="M41.8567 30.375C41.8567 29.7537 42.3604 29.25 42.9817 29.25H45.2317C45.853 29.25 46.3567 29.7537 46.3567 30.375C46.3567 30.9963 45.853 31.5 45.2317 31.5H42.9817C42.3604 31.5 41.8567 30.9963 41.8567 30.375Z" fill="#4697DD"/>
<path d="M41.0655 35.6192C41.328 35.0561 41.9974 34.8125 42.5605 35.0751L46.9788 37.1353C47.5419 37.3979 47.7855 38.0673 47.5229 38.6304C47.2603 39.1935 46.591 39.4371 46.0279 39.1745L41.6096 37.1142C41.0465 36.8517 40.8029 36.1823 41.0655 35.6192Z" fill="#4697DD"/>
<path d="M6.93291 25.1299C7.19549 24.5668 6.95187 23.8975 6.38876 23.6349L1.97051 21.5746C1.4074 21.3121 0.738048 21.5557 0.475467 22.1188C0.212886 22.6819 0.45651 23.3513 1.01962 23.6138L5.43787 25.6741C6.00098 25.9367 6.67033 25.6931 6.93291 25.1299Z" fill="#4697DD"/>
<path d="M6.14168 30.375C6.14168 29.7537 5.638 29.25 5.01668 29.25H2.76668C2.14536 29.25 1.64168 29.7537 1.64168 30.375C1.64168 30.9963 2.14536 31.5 2.76668 31.5H5.01668C5.638 31.5 6.14168 30.9963 6.14168 30.375Z" fill="#4697DD"/>
<path d="M6.93289 35.6192C6.67031 35.0561 6.00095 34.8125 5.43785 35.0751L1.0196 37.1353C0.456489 37.3979 0.212865 38.0673 0.475446 38.6304C0.738027 39.1935 1.40738 39.4371 1.97049 39.1745L6.38874 37.1142C6.95185 36.8517 7.19547 36.1823 6.93289 35.6192Z" fill="#4697DD"/>
</g>
<defs>
<clipPath id="clip0_325_9443">
<rect width="48" height="48" fill="white"/>
</clipPath>
</defs>
</svg>
