<svg width="48" height="48" viewBox="0 0 48 48" fill="none" xmlns="http://www.w3.org/2000/svg">
<g clip-path="url(#clip0_333_9777)">
<path fill-rule="evenodd" clip-rule="evenodd" d="M39.0269 24.0474L33.7683 9.59962L35.8826 8.83008L41.1412 23.2779L39.0269 24.0474Z" fill="#4697DD"/>
<path d="M38.1899 10.7842C38.7738 10.5717 39.4194 10.8727 39.6319 11.4566C39.8444 12.0404 39.5433 12.686 38.9595 12.8985C38.3756 13.111 37.7301 12.81 37.5175 12.2261C37.305 11.6423 37.6061 10.9967 38.1899 10.7842Z" fill="#4697DD"/>
<path d="M39.5179 14.291C40.1017 14.0785 40.7473 14.3796 40.9598 14.9634C41.1723 15.5473 40.8713 16.1928 40.2874 16.4053C39.7036 16.6178 39.058 16.3168 38.8455 15.7329C38.633 15.1491 38.934 14.5035 39.5179 14.291Z" fill="#4697DD"/>
<path d="M40.9198 17.7715C41.5036 17.559 42.1492 17.86 42.3617 18.4439C42.5742 19.0277 42.2732 19.6733 41.6893 19.8858C41.1055 20.0983 40.4599 19.7973 40.2474 19.2134C40.0349 18.6296 40.3359 17.984 40.9198 17.7715Z" fill="#4697DD"/>
<path d="M42.9105 14.9824C43.4943 14.7699 44.1399 15.071 44.3524 15.6548C44.5649 16.2387 44.2639 16.8842 43.68 17.0967C43.0962 17.3092 42.4506 17.0082 42.2381 16.4244C42.0256 15.8405 42.3266 15.1949 42.9105 14.9824Z" fill="#4697DD"/>
<path d="M41.6503 11.5195C42.2342 11.307 42.8797 11.6081 43.0922 12.1919C43.3047 12.7758 43.0037 13.4213 42.4198 13.6338C41.836 13.8464 41.1904 13.5453 40.9779 12.9615C40.7654 12.3776 41.0665 11.732 41.6503 11.5195Z" fill="#4697DD"/>
<path fill-rule="evenodd" clip-rule="evenodd" d="M29.4153 23.9543L26.3372 15.4971L28.4515 14.7275L31.5296 23.1848L29.4153 23.9543Z" fill="#4697DD"/>
<path fill-rule="evenodd" clip-rule="evenodd" d="M10.2903 31.4543L7.21214 22.9971L9.32645 22.2275L12.4046 30.6848L10.2903 31.4543Z" fill="#4697DD"/>
<path d="M1.09499 29.4732C0.882489 28.8893 1.18352 28.2437 1.76737 28.0312L4.58645 27.0052C5.1703 26.7927 5.81588 27.0937 6.02838 27.6776C6.24088 28.2614 5.93985 28.907 5.356 29.1195L2.53692 30.1456C1.95307 30.3581 1.3075 30.057 1.09499 29.4732Z" fill="#4697DD"/>
<path fill-rule="evenodd" clip-rule="evenodd" d="M20.9953 26.0386L32.8894 22.5354L29.9108 14.3517L18.5475 19.3135L17.7765 17.195L31.2058 11.3311L35.823 24.0169L21.7663 28.157L20.9953 26.0386Z" fill="#4697DD"/>
<path fill-rule="evenodd" clip-rule="evenodd" d="M17.7765 17.1943L7.38838 21.7304C4.90457 22.8149 3.69188 25.6436 4.61885 28.1904C5.54582 30.7372 8.29302 32.1246 10.8929 31.3589L21.7663 28.1563L20.9953 26.0379L10.2572 29.2005C8.79688 29.6306 7.25382 28.8514 6.73316 27.4209C6.21249 25.9903 6.89364 24.4015 8.28876 23.7923L18.5475 19.3128L17.7765 17.1943Z" fill="#4697DD"/>
<path fill-rule="evenodd" clip-rule="evenodd" d="M33.1944 21.18C35.0922 22.975 37.9105 23.6559 40.5323 22.7016C44.23 21.3557 46.1366 17.2671 44.7907 13.5694C43.4448 9.87168 39.3562 7.96512 35.6585 9.31098C33.0367 10.2652 31.3154 12.5983 31.0154 15.1933L29.9245 12.1961L29.4556 12.3668C30.4334 10.0472 32.337 8.12551 34.889 7.19667C39.7544 5.42581 45.1341 7.93443 46.905 12.7999C48.6759 17.6653 46.1673 23.045 41.3018 24.8159C38.7499 25.7448 36.0564 25.4962 33.8164 24.3479L34.2852 24.1772L33.1944 21.18Z" fill="#4697DD"/>
<path d="M21.875 43.875C21.2537 43.875 20.75 43.3713 20.75 42.75V21.375C20.75 20.7537 21.2537 20.25 21.875 20.25C22.4963 20.25 23 20.7537 23 21.375V42.75C23 43.3713 22.4963 43.875 21.875 43.875Z" fill="#4697DD"/>
<path d="M14.75 42.8867C14.75 42.2654 15.2537 41.7617 15.875 41.7617H27.875C28.4963 41.7617 29 42.2654 29 42.8867C29 43.508 28.4963 44.0117 27.875 44.0117H15.875C15.2537 44.0117 14.75 43.508 14.75 42.8867Z" fill="#4697DD"/>
</g>
<defs>
<clipPath id="clip0_333_9777">
<rect width="48" height="48" fill="white"/>
</clipPath>
</defs>
</svg>
