<svg width="48" height="48" viewBox="0 0 48 48" fill="none" xmlns="http://www.w3.org/2000/svg">
<path d="M9 18.375C9 17.7537 9.50368 17.25 10.125 17.25C10.7463 17.25 11.25 17.7537 11.25 18.375V39.375C11.25 39.9963 10.7463 40.5 10.125 40.5C9.50368 40.5 9 39.9963 9 39.375V18.375Z" fill="#4697DD"/>
<path d="M4.875 27C4.875 25.7574 5.88236 24.75 7.125 24.75V33.375C7.125 33.9963 6.62132 34.5 6 34.5C5.37868 34.5 4.875 33.9963 4.875 33.375V27Z" fill="#4697DD"/>
<path d="M39 18.375C39 17.7537 38.4963 17.25 37.875 17.25C37.2537 17.25 36.75 17.7537 36.75 18.375V39.375C36.75 39.9963 37.2537 40.5 37.875 40.5C38.4963 40.5 39 39.9963 39 39.375V18.375Z" fill="#4697DD"/>
<path d="M43.125 27C43.125 25.7574 42.1176 24.75 40.875 24.75V33.375C40.875 33.9963 41.3787 34.5 42 34.5C42.6213 34.5 43.125 33.9963 43.125 33.375V27Z" fill="#4697DD"/>
<path fill-rule="evenodd" clip-rule="evenodd" d="M43.5 4.5H4.5C3.67157 4.5 3 5.17157 3 6V38.25C3 39.0784 3.67157 39.75 4.5 39.75H43.5C44.3284 39.75 45 39.0784 45 38.25V6C45 5.17157 44.3284 4.5 43.5 4.5ZM4.5 2.25C2.42893 2.25 0.75 3.92893 0.75 6V38.25C0.75 40.3211 2.42893 42 4.5 42H43.5C45.5711 42 47.25 40.3211 47.25 38.25V6C47.25 3.92893 45.5711 2.25 43.5 2.25H4.5Z" fill="#4697DD"/>
<path fill-rule="evenodd" clip-rule="evenodd" d="M38.625 42H9.375C8.96079 42 8.625 42.3358 8.625 42.75C8.625 43.1642 8.96079 43.5 9.375 43.5H38.625C39.0392 43.5 39.375 43.1642 39.375 42.75C39.375 42.3358 39.0392 42 38.625 42ZM9.375 39.75C7.71815 39.75 6.375 41.0931 6.375 42.75C6.375 44.4069 7.71815 45.75 9.375 45.75H38.625C40.2819 45.75 41.625 44.4069 41.625 42.75C41.625 41.0931 40.2819 39.75 38.625 39.75H9.375Z" fill="#4697DD"/>
<path fill-rule="evenodd" clip-rule="evenodd" d="M13.068 2.25C12.3347 8.81296 10.7095 14.6191 8.51212 19.1065C6.20044 23.8272 3.46921 26.7146 0.75 27.8899L0.75 30.2991C7.98362 27.956 13.7675 16.7208 15.3314 2.25H13.068Z" fill="#4697DD"/>
<path fill-rule="evenodd" clip-rule="evenodd" d="M34.932 2.25C35.6653 8.81296 37.2905 14.6191 39.4879 19.1065C41.7996 23.8272 44.5308 26.7146 47.25 27.8899V30.2991C40.0164 27.956 34.2325 16.7208 32.6685 2.25H34.932Z" fill="#4697DD"/>
<path fill-rule="evenodd" clip-rule="evenodd" d="M12.1759 14.2491C11.6836 13.5644 12.2953 12.75 13.1386 12.75C13.5993 12.75 14.0071 13.0192 14.3544 13.3218C14.7497 13.6664 15.2665 13.875 15.832 13.875C16.3975 13.875 16.9143 13.6664 17.3096 13.3218C17.4183 13.2271 17.5329 13.1356 17.6533 13.0547C17.8592 12.8692 18.148 12.75 18.4706 12.75C18.4797 12.75 18.4889 12.7501 18.498 12.7503C18.5071 12.7501 18.5162 12.75 18.5254 12.75C18.848 12.75 19.1367 12.8692 19.3427 13.0547C19.463 13.1356 19.5776 13.2271 19.6863 13.3218C20.0816 13.6664 20.5984 13.875 21.164 13.875C21.7295 13.875 22.2463 13.6664 22.6416 13.3218C22.7503 13.2271 22.8649 13.1356 22.9853 13.0547C23.1912 12.8692 23.4799 12.75 23.8026 12.75C23.8117 12.75 23.8209 12.7501 23.83 12.7503C23.8391 12.7501 23.8482 12.75 23.8574 12.75C24.18 12.75 24.4687 12.8692 24.6747 13.0547C24.795 13.1356 24.9096 13.2271 25.0183 13.3218C25.4136 13.6664 25.9304 13.875 26.496 13.875C27.0615 13.875 27.5783 13.6664 27.9736 13.3218C28.0823 13.2271 28.1969 13.1356 28.3172 13.0547C28.5232 12.8692 28.8119 12.75 29.1345 12.75C29.1437 12.75 29.1528 12.7501 29.1619 12.7503C29.1711 12.7501 29.1802 12.75 29.1894 12.75C29.512 12.75 29.8007 12.8692 30.0067 13.0547C30.127 13.1356 30.2416 13.2271 30.3503 13.3218C30.7456 13.6664 31.2624 13.875 31.8279 13.875C32.3935 13.875 32.9103 13.6664 33.3056 13.3218C33.6529 13.0192 34.0606 12.75 34.5213 12.75C35.3647 12.75 35.9764 13.5644 35.484 14.2491C34.6672 15.3852 33.334 16.125 31.8279 16.125C30.8301 16.125 29.9081 15.8002 29.162 15.2506C28.4158 15.8002 27.4938 16.125 26.496 16.125C25.4981 16.125 24.5761 15.8002 23.83 15.2506C23.0838 15.8002 22.1618 16.125 21.164 16.125C20.1661 16.125 19.2442 15.8002 18.498 15.2506C17.7518 15.8002 16.8298 16.125 15.832 16.125C14.326 16.125 12.9927 15.3852 12.1759 14.2491Z" fill="#4697DD"/>
<path fill-rule="evenodd" clip-rule="evenodd" d="M12.1759 9.37411C11.6836 8.68941 12.2953 7.875 13.1386 7.875C13.5993 7.875 14.0071 8.14415 14.3544 8.44684C14.7497 8.79136 15.2665 9 15.832 9C16.3975 9 16.9143 8.79136 17.3096 8.44684C17.4183 8.3521 17.5329 8.26065 17.6533 8.1797C17.8592 7.99419 18.148 7.875 18.4706 7.875C18.4797 7.875 18.4889 7.87511 18.498 7.87532C18.5071 7.87511 18.5162 7.875 18.5254 7.875C18.848 7.875 19.1367 7.99419 19.3427 8.1797C19.463 8.26065 19.5776 8.3521 19.6863 8.44684C20.0816 8.79136 20.5984 9 21.164 9C21.7295 9 22.2463 8.79136 22.6416 8.44684C22.7503 8.3521 22.8649 8.26065 22.9853 8.1797C23.1912 7.99419 23.4799 7.875 23.8026 7.875C23.8117 7.875 23.8209 7.87511 23.83 7.87532C23.8391 7.87511 23.8482 7.875 23.8574 7.875C24.18 7.875 24.4687 7.99419 24.6747 8.1797C24.795 8.26065 24.9096 8.3521 25.0183 8.44684C25.4136 8.79136 25.9304 9 26.496 9C27.0615 9 27.5783 8.79136 27.9736 8.44684C28.0823 8.3521 28.1969 8.26065 28.3172 8.1797C28.5232 7.99419 28.8119 7.875 29.1345 7.875C29.1437 7.875 29.1528 7.87511 29.1619 7.87532C29.1711 7.87511 29.1802 7.875 29.1894 7.875C29.512 7.875 29.8007 7.99419 30.0067 8.1797C30.127 8.26065 30.2416 8.3521 30.3503 8.44684C30.7456 8.79136 31.2624 9 31.8279 9C32.3935 9 32.9103 8.79136 33.3056 8.44684C33.6529 8.14415 34.0606 7.875 34.5213 7.875C35.3647 7.875 35.9764 8.68941 35.484 9.37411C34.6672 10.5102 33.334 11.25 31.8279 11.25C30.8301 11.25 29.9081 10.9252 29.162 10.3756C28.4158 10.9252 27.4938 11.25 26.496 11.25C25.4981 11.25 24.5761 10.9252 23.83 10.3756C23.0838 10.9252 22.1618 11.25 21.164 11.25C20.1661 11.25 19.2442 10.9252 18.498 10.3756C17.7518 10.9252 16.8298 11.25 15.832 11.25C14.326 11.25 12.9927 10.5102 12.1759 9.37411Z" fill="#4697DD"/>
</svg>
