<svg width="277" height="100" viewBox="0 0 277 100" fill="none" xmlns="http://www.w3.org/2000/svg">
<g clip-path="url(#clip0_101_2469)">
<path d="M65.056 2.63984C65.7807 2.63984 66.3683 2.0489 66.3683 1.31993C66.3683 0.59096 65.7807 0 65.056 0C64.3312 0 63.7437 0.59096 63.7437 1.31993C63.7437 2.0489 64.3312 2.63984 65.056 2.63984Z" fill="#4697DD" fill-opacity="0.35"/>
<path d="M58.6286 9.23345C59.4252 9.23345 60.0709 8.58395 60.0709 7.78275C60.0709 6.98155 59.4252 6.33203 58.6286 6.33203C57.8321 6.33203 57.1863 6.98155 57.1863 7.78275C57.1863 8.58395 57.8321 9.23345 58.6286 9.23345Z" fill="#4697DD" fill-opacity="0.35"/>
<path d="M58.6286 15.8311C59.4252 15.8311 60.0709 15.1816 60.0709 14.3804C60.0709 13.5792 59.4252 12.9297 58.6286 12.9297C57.8321 12.9297 57.1863 13.5792 57.1863 14.3804C57.1863 15.1816 57.8321 15.8311 58.6286 15.8311Z" fill="#4697DD" fill-opacity="0.35"/>
<path d="M58.6286 22.163C59.5699 22.163 60.333 21.3954 60.333 20.4487C60.333 19.5019 59.5699 18.7344 58.6286 18.7344C57.6873 18.7344 56.9242 19.5019 56.9242 20.4487C56.9242 21.3954 57.6873 22.163 58.6286 22.163Z" fill="#4697DD" fill-opacity="0.35"/>
<path d="M58.6286 28.7587C59.5699 28.7587 60.333 27.9911 60.333 27.0444C60.333 26.0976 59.5699 25.3301 58.6286 25.3301C57.6873 25.3301 56.9242 26.0976 56.9242 27.0444C56.9242 27.9911 57.6873 28.7587 58.6286 28.7587Z" fill="#4697DD" fill-opacity="0.35"/>
<path d="M51.8072 28.7587C52.7485 28.7587 53.5115 27.9911 53.5115 27.0444C53.5115 26.0976 52.7485 25.3301 51.8072 25.3301C50.8659 25.3301 50.1028 26.0976 50.1028 27.0444C50.1028 27.9911 50.8659 28.7587 51.8072 28.7587Z" fill="#4697DD" fill-opacity="0.35"/>
<path d="M51.8072 35.62C52.7485 35.62 53.5115 34.8525 53.5115 33.9057C53.5115 32.9589 52.7485 32.1914 51.8072 32.1914C50.8659 32.1914 50.1028 32.9589 50.1028 33.9057C50.1028 34.8525 50.8659 35.62 51.8072 35.62Z" fill="#4697DD" fill-opacity="0.35"/>
<path d="M51.8072 41.6883C52.7485 41.6883 53.5115 40.9208 53.5115 39.9741C53.5115 39.0273 52.7485 38.2598 51.8072 38.2598C50.8659 38.2598 50.1028 39.0273 50.1028 39.9741C50.1028 40.9208 50.8659 41.6883 51.8072 41.6883Z" fill="#4697DD" fill-opacity="0.35"/>
<path d="M51.8072 47.7567C52.7485 47.7567 53.5115 46.9892 53.5115 46.0424C53.5115 45.0956 52.7485 44.3281 51.8072 44.3281C50.8659 44.3281 50.1028 45.0956 50.1028 46.0424C50.1028 46.9892 50.8659 47.7567 51.8072 47.7567Z" fill="#4697DD" fill-opacity="0.35"/>
<path d="M51.8072 54.6151C52.7485 54.6151 53.5115 53.8476 53.5115 52.9008C53.5115 51.954 52.7485 51.1865 51.8072 51.1865C50.8659 51.1865 50.1028 51.954 50.1028 52.9008C50.1028 53.8476 50.8659 54.6151 51.8072 54.6151Z" fill="#4697DD" fill-opacity="0.35"/>
<path d="M51.8072 60.6864C52.7485 60.6864 53.5115 59.9189 53.5115 58.9721C53.5115 58.0253 52.7485 57.2578 51.8072 57.2578C50.8659 57.2578 50.1028 58.0253 50.1028 58.9721C50.1028 59.9189 50.8659 60.6864 51.8072 60.6864Z" fill="#4697DD" fill-opacity="0.35"/>
<path d="M51.8072 67.5448C52.7485 67.5448 53.5115 66.7773 53.5115 65.8305C53.5115 64.8837 52.7485 64.1162 51.8072 64.1162C50.8659 64.1162 50.1028 64.8837 50.1028 65.8305C50.1028 66.7773 50.8659 67.5448 51.8072 67.5448Z" fill="#4697DD" fill-opacity="0.35"/>
<path d="M51.8072 74.1405C52.7485 74.1405 53.5115 73.373 53.5115 72.4262C53.5115 71.4794 52.7485 70.7119 51.8072 70.7119C50.8659 70.7119 50.1028 71.4794 50.1028 72.4262C50.1028 73.373 50.8659 74.1405 51.8072 74.1405Z" fill="#4697DD" fill-opacity="0.35"/>
<path d="M51.8072 80.2108C52.7485 80.2108 53.5115 79.4433 53.5115 78.4965C53.5115 77.5497 52.7485 76.7822 51.8072 76.7822C50.8659 76.7822 50.1028 77.5497 50.1028 78.4965C50.1028 79.4433 50.8659 80.2108 51.8072 80.2108Z" fill="#4697DD" fill-opacity="0.35"/>
<path d="M58.6286 80.2108C59.5699 80.2108 60.333 79.4433 60.333 78.4965C60.333 77.5497 59.5699 76.7822 58.6286 76.7822C57.6873 76.7822 56.9242 77.5497 56.9242 78.4965C56.9242 79.4433 57.6873 80.2108 58.6286 80.2108Z" fill="#4697DD" fill-opacity="0.35"/>
<path d="M58.6286 74.1405C59.5699 74.1405 60.333 73.373 60.333 72.4262C60.333 71.4794 59.5699 70.7119 58.6286 70.7119C57.6873 70.7119 56.9242 71.4794 56.9242 72.4262C56.9242 73.373 57.6873 74.1405 58.6286 74.1405Z" fill="#4697DD" fill-opacity="0.35"/>
<path d="M65.4481 74.1405C66.3894 74.1405 67.1524 73.373 67.1524 72.4262C67.1524 71.4794 66.3894 70.7119 65.4481 70.7119C64.5068 70.7119 63.7437 71.4794 63.7437 72.4262C63.7437 73.373 64.5068 74.1405 65.4481 74.1405Z" fill="#4697DD" fill-opacity="0.35"/>
<path d="M71.4813 73.8768C72.4226 73.8768 73.1857 73.1093 73.1857 72.1625C73.1857 71.2158 72.4226 70.4482 71.4813 70.4482C70.5401 70.4482 69.777 71.2158 69.777 72.1625C69.777 73.1093 70.5401 73.8768 71.4813 73.8768Z" fill="#4697DD" fill-opacity="0.35"/>
<path d="M77.7787 74.1405C78.72 74.1405 79.4831 73.373 79.4831 72.4262C79.4831 71.4794 78.72 70.7119 77.7787 70.7119C76.8374 70.7119 76.0743 71.4794 76.0743 72.4262C76.0743 73.373 76.8374 74.1405 77.7787 74.1405Z" fill="#4697DD" fill-opacity="0.35"/>
<path d="M84.5982 74.1405C85.5395 74.1405 86.3025 73.373 86.3025 72.4262C86.3025 71.4794 85.5395 70.7119 84.5982 70.7119C83.6569 70.7119 82.8938 71.4794 82.8938 72.4262C82.8938 73.373 83.6569 74.1405 84.5982 74.1405Z" fill="#4697DD" fill-opacity="0.35"/>
<path d="M58.6286 67.5448C59.5699 67.5448 60.333 66.7773 60.333 65.8305C60.333 64.8837 59.5699 64.1162 58.6286 64.1162C57.6873 64.1162 56.9242 64.8837 56.9242 65.8305C56.9242 66.7773 57.6873 67.5448 58.6286 67.5448Z" fill="#4697DD" fill-opacity="0.35"/>
<path d="M65.186 80.4745C66.1273 80.4745 66.8904 79.7069 66.8904 78.7602C66.8904 77.8134 66.1273 77.0459 65.186 77.0459C64.2447 77.0459 63.4816 77.8134 63.4816 78.7602C63.4816 79.7069 64.2447 80.4745 65.186 80.4745Z" fill="#4697DD" fill-opacity="0.35"/>
<path d="M71.7454 80.4745C72.6867 80.4745 73.4498 79.7069 73.4498 78.7602C73.4498 77.8134 72.6867 77.0459 71.7454 77.0459C70.8041 77.0459 70.0411 77.8134 70.0411 78.7602C70.0411 79.7069 70.8041 80.4745 71.7454 80.4745Z" fill="#4697DD" fill-opacity="0.35"/>
<path d="M78.0408 80.4745C78.982 80.4745 79.7451 79.7069 79.7451 78.7602C79.7451 77.8134 78.982 77.0459 78.0408 77.0459C77.0995 77.0459 76.3364 77.8134 76.3364 78.7602C76.3364 79.7069 77.0995 80.4745 78.0408 80.4745Z" fill="#4697DD" fill-opacity="0.35"/>
<path d="M84.3361 80.4745C85.2774 80.4745 86.0405 79.7069 86.0405 78.7602C86.0405 77.8134 85.2774 77.0459 84.3361 77.0459C83.3948 77.0459 82.6317 77.8134 82.6317 78.7602C82.6317 79.7069 83.3948 80.4745 84.3361 80.4745Z" fill="#4697DD" fill-opacity="0.35"/>
<path d="M96.9288 47.7567C97.8701 47.7567 98.6332 46.9892 98.6332 46.0424C98.6332 45.0956 97.8701 44.3281 96.9288 44.3281C95.9875 44.3281 95.2244 45.0956 95.2244 46.0424C95.2244 46.9892 95.9875 47.7567 96.9288 47.7567Z" fill="#4697DD" fill-opacity="0.35"/>
<path d="M96.9288 54.0887C97.8701 54.0887 98.6332 53.3212 98.6332 52.3744C98.6332 51.4277 97.8701 50.6602 96.9288 50.6602C95.9875 50.6602 95.2244 51.4277 95.2244 52.3744C95.2244 53.3212 95.9875 54.0887 96.9288 54.0887Z" fill="#4697DD" fill-opacity="0.35"/>
<path d="M96.9288 61.2128C97.8701 61.2128 98.6332 60.4452 98.6332 59.4985C98.6332 58.5517 97.8701 57.7842 96.9288 57.7842C95.9875 57.7842 95.2244 58.5517 95.2244 59.4985C95.2244 60.4452 95.9875 61.2128 96.9288 61.2128Z" fill="#4697DD" fill-opacity="0.35"/>
<path d="M96.9288 68.0721C97.8701 68.0721 98.6332 67.3046 98.6332 66.3578C98.6332 65.4111 97.8701 64.6436 96.9288 64.6436C95.9875 64.6436 95.2244 65.4111 95.2244 66.3578C95.2244 67.3046 95.9875 68.0721 96.9288 68.0721Z" fill="#4697DD" fill-opacity="0.35"/>
<path d="M51.8072 86.5428C52.7485 86.5428 53.5115 85.7753 53.5115 84.8285C53.5115 83.8818 52.7485 83.1143 51.8072 83.1143C50.8659 83.1143 50.1028 83.8818 50.1028 84.8285C50.1028 85.7753 50.8659 86.5428 51.8072 86.5428Z" fill="#4697DD" fill-opacity="0.35"/>
<path d="M45.2497 28.7587C46.191 28.7587 46.9541 27.9911 46.9541 27.0444C46.9541 26.0976 46.191 25.3301 45.2497 25.3301C44.3085 25.3301 43.5454 26.0976 43.5454 27.0444C43.5454 27.9911 44.3085 28.7587 45.2497 28.7587Z" fill="#4697DD" fill-opacity="0.35"/>
<path d="M45.2497 35.62C46.191 35.62 46.9541 34.8525 46.9541 33.9057C46.9541 32.9589 46.191 32.1914 45.2497 32.1914C44.3085 32.1914 43.5454 32.9589 43.5454 33.9057C43.5454 34.8525 44.3085 35.62 45.2497 35.62Z" fill="#4697DD" fill-opacity="0.35"/>
<path d="M45.2497 41.6883C46.191 41.6883 46.9541 40.9208 46.9541 39.9741C46.9541 39.0273 46.191 38.2598 45.2497 38.2598C44.3085 38.2598 43.5454 39.0273 43.5454 39.9741C43.5454 40.9208 44.3085 41.6883 45.2497 41.6883Z" fill="#4697DD" fill-opacity="0.35"/>
<path d="M45.2497 47.7567C46.191 47.7567 46.9541 46.9892 46.9541 46.0424C46.9541 45.0956 46.191 44.3281 45.2497 44.3281C44.3085 44.3281 43.5454 45.0956 43.5454 46.0424C43.5454 46.9892 44.3085 47.7567 45.2497 47.7567Z" fill="#4697DD" fill-opacity="0.35"/>
<path d="M45.2497 54.6151C46.191 54.6151 46.9541 53.8476 46.9541 52.9008C46.9541 51.954 46.191 51.1865 45.2497 51.1865C44.3085 51.1865 43.5454 51.954 43.5454 52.9008C43.5454 53.8476 44.3085 54.6151 45.2497 54.6151Z" fill="#4697DD" fill-opacity="0.35"/>
<path d="M45.2497 60.6864C46.191 60.6864 46.9541 59.9189 46.9541 58.9721C46.9541 58.0253 46.191 57.2578 45.2497 57.2578C44.3085 57.2578 43.5454 58.0253 43.5454 58.9721C43.5454 59.9189 44.3085 60.6864 45.2497 60.6864Z" fill="#4697DD" fill-opacity="0.35"/>
<path d="M45.2497 67.5448C46.191 67.5448 46.9541 66.7773 46.9541 65.8305C46.9541 64.8837 46.191 64.1162 45.2497 64.1162C44.3085 64.1162 43.5454 64.8837 43.5454 65.8305C43.5454 66.7773 44.3085 67.5448 45.2497 67.5448Z" fill="#4697DD" fill-opacity="0.35"/>
<path d="M45.2497 74.1405C46.191 74.1405 46.9541 73.373 46.9541 72.4262C46.9541 71.4794 46.191 70.7119 45.2497 70.7119C44.3085 70.7119 43.5454 71.4794 43.5454 72.4262C43.5454 73.373 44.3085 74.1405 45.2497 74.1405Z" fill="#4697DD" fill-opacity="0.35"/>
<path d="M45.2497 80.2108C46.191 80.2108 46.9541 79.4433 46.9541 78.4965C46.9541 77.5497 46.191 76.7822 45.2497 76.7822C44.3085 76.7822 43.5454 77.5497 43.5454 78.4965C43.5454 79.4433 44.3085 80.2108 45.2497 80.2108Z" fill="#4697DD" fill-opacity="0.35"/>
<path d="M45.2497 86.5428C46.191 86.5428 46.9541 85.7753 46.9541 84.8285C46.9541 83.8818 46.191 83.1143 45.2497 83.1143C44.3085 83.1143 43.5454 83.8818 43.5454 84.8285C43.5454 85.7753 44.3085 86.5428 45.2497 86.5428Z" fill="#4697DD" fill-opacity="0.35"/>
<path d="M71.3513 2.63984C72.0761 2.63984 72.6636 2.0489 72.6636 1.31993C72.6636 0.59096 72.0761 0 71.3513 0C70.6266 0 70.039 0.59096 70.039 1.31993C70.039 2.0489 70.6266 2.63984 71.3513 2.63984Z" fill="#4697DD" fill-opacity="0.35"/>
<path d="M64.9239 9.23345C65.7205 9.23345 66.3662 8.58395 66.3662 7.78275C66.3662 6.98155 65.7205 6.33203 64.9239 6.33203C64.1274 6.33203 63.4816 6.98155 63.4816 7.78275C63.4816 8.58395 64.1274 9.23345 64.9239 9.23345Z" fill="#4697DD" fill-opacity="0.35"/>
<path d="M64.9239 15.8311C65.7205 15.8311 66.3662 15.1816 66.3662 14.3804C66.3662 13.5792 65.7205 12.9297 64.9239 12.9297C64.1274 12.9297 63.4816 13.5792 63.4816 14.3804C63.4816 15.1816 64.1274 15.8311 64.9239 15.8311Z" fill="#4697DD" fill-opacity="0.35"/>
<path d="M64.924 22.163C65.8653 22.163 66.6284 21.3954 66.6284 20.4487C66.6284 19.5019 65.8653 18.7344 64.924 18.7344C63.9827 18.7344 63.2196 19.5019 63.2196 20.4487C63.2196 21.3954 63.9827 22.163 64.924 22.163Z" fill="#4697DD" fill-opacity="0.35"/>
<path d="M64.924 28.7587C65.8653 28.7587 66.6284 27.9911 66.6284 27.0444C66.6284 26.0976 65.8653 25.3301 64.924 25.3301C63.9827 25.3301 63.2196 26.0976 63.2196 27.0444C63.2196 27.9911 63.9827 28.7587 64.924 28.7587Z" fill="#4697DD" fill-opacity="0.35"/>
<path d="M77.6467 2.63984C78.3714 2.63984 78.959 2.0489 78.959 1.31993C78.959 0.59096 78.3714 0 77.6467 0C76.9219 0 76.3344 0.59096 76.3344 1.31993C76.3344 2.0489 76.9219 2.63984 77.6467 2.63984Z" fill="#4697DD" fill-opacity="0.35"/>
<path d="M84.2061 8.70649C84.6403 8.70649 84.9923 8.35245 84.9923 7.91573C84.9923 7.47901 84.6403 7.125 84.2061 7.125C83.7719 7.125 83.42 7.47901 83.42 7.91573C83.42 8.35245 83.7719 8.70649 84.2061 8.70649Z" fill="#4697DD" fill-opacity="0.35"/>
<path d="M91.0256 15.3041C91.6056 15.3041 92.0758 14.8311 92.0758 14.2477C92.0758 13.6643 91.6056 13.1914 91.0256 13.1914C90.4456 13.1914 89.9754 13.6643 89.9754 14.2477C89.9754 14.8311 90.4456 15.3041 91.0256 15.3041Z" fill="#4697DD" fill-opacity="0.35"/>
<path d="M90.7635 21.6361C91.3435 21.6361 91.8137 21.1632 91.8137 20.5798C91.8137 19.9964 91.3435 19.5234 90.7635 19.5234C90.1835 19.5234 89.7133 19.9964 89.7133 20.5798C89.7133 21.1632 90.1835 21.6361 90.7635 21.6361Z" fill="#4697DD" fill-opacity="0.35"/>
<path d="M45.9059 15.3041C46.4859 15.3041 46.9561 14.8311 46.9561 14.2477C46.9561 13.6643 46.4859 13.1914 45.9059 13.1914C45.3259 13.1914 44.8557 13.6643 44.8557 14.2477C44.8557 14.8311 45.3259 15.3041 45.9059 15.3041Z" fill="#4697DD" fill-opacity="0.35"/>
<path d="M97.3209 15.3041C97.9009 15.3041 98.3711 14.8311 98.3711 14.2477C98.3711 13.6643 97.9009 13.1914 97.3209 13.1914C96.7409 13.1914 96.2707 13.6643 96.2707 14.2477C96.2707 14.8311 96.7409 15.3041 97.3209 15.3041Z" fill="#4697DD" fill-opacity="0.35"/>
<path d="M97.0589 21.6361C97.6389 21.6361 98.1091 21.1632 98.1091 20.5798C98.1091 19.9964 97.6389 19.5234 97.0589 19.5234C96.4789 19.5234 96.0087 19.9964 96.0087 20.5798C96.0087 21.1632 96.4789 21.6361 97.0589 21.6361Z" fill="#4697DD" fill-opacity="0.35"/>
<path d="M103.354 28.2328C103.934 28.2328 104.404 27.7599 104.404 27.1765C104.404 26.5931 103.934 26.1201 103.354 26.1201C102.774 26.1201 102.304 26.5931 102.304 27.1765C102.304 27.7599 102.774 28.2328 103.354 28.2328Z" fill="#4697DD" fill-opacity="0.35"/>
<path d="M103.354 34.5658C103.934 34.5658 104.404 34.0929 104.404 33.5095C104.404 32.9261 103.934 32.4531 103.354 32.4531C102.774 32.4531 102.304 32.9261 102.304 33.5095C102.304 34.0929 102.774 34.5658 103.354 34.5658Z" fill="#4697DD" fill-opacity="0.35"/>
<path d="M123.028 34.3021C123.608 34.3021 124.079 33.8292 124.079 33.2458C124.079 32.6624 123.608 32.1895 123.028 32.1895C122.448 32.1895 121.978 32.6624 121.978 33.2458C121.978 33.8292 122.448 34.3021 123.028 34.3021Z" fill="#4697DD" fill-opacity="0.35"/>
<path d="M110.7 34.3021C111.28 34.3021 111.75 33.8292 111.75 33.2458C111.75 32.6624 111.28 32.1895 110.7 32.1895C110.12 32.1895 109.65 32.6624 109.65 33.2458C109.65 33.8292 110.12 34.3021 110.7 34.3021Z" fill="#4697DD" fill-opacity="0.35"/>
<path d="M116.471 34.3021C117.051 34.3021 117.521 33.8292 117.521 33.2458C117.521 32.6624 117.051 32.1895 116.471 32.1895C115.891 32.1895 115.421 32.6624 115.421 33.2458C115.421 33.8292 115.891 34.3021 116.471 34.3021Z" fill="#4697DD" fill-opacity="0.35"/>
<path d="M123.028 41.1605C123.608 41.1605 124.079 40.6876 124.079 40.1042C124.079 39.5208 123.608 39.0479 123.028 39.0479C122.448 39.0479 121.978 39.5208 121.978 40.1042C121.978 40.6876 122.448 41.1605 123.028 41.1605Z" fill="#4697DD" fill-opacity="0.35"/>
<path d="M123.028 47.2308C123.608 47.2308 124.079 46.7579 124.079 46.1745C124.079 45.5911 123.608 45.1182 123.028 45.1182C122.448 45.1182 121.978 45.5911 121.978 46.1745C121.978 46.7579 122.448 47.2308 123.028 47.2308Z" fill="#4697DD" fill-opacity="0.35"/>
<path d="M123.028 53.5629C123.608 53.5629 124.079 53.0899 124.079 52.5065C124.079 51.9231 123.608 51.4502 123.028 51.4502C122.448 51.4502 121.978 51.9231 121.978 52.5065C121.978 53.0899 122.448 53.5629 123.028 53.5629Z" fill="#4697DD" fill-opacity="0.35"/>
<path d="M123.028 60.4222C123.608 60.4222 124.079 59.9493 124.079 59.3659C124.079 58.7825 123.608 58.3096 123.028 58.3096C122.448 58.3096 121.978 58.7825 121.978 59.3659C121.978 59.9493 122.448 60.4222 123.028 60.4222Z" fill="#4697DD" fill-opacity="0.35"/>
<path d="M123.028 67.0199C123.608 67.0199 124.079 66.547 124.079 65.9636C124.079 65.3802 123.608 64.9072 123.028 64.9072C122.448 64.9072 121.978 65.3802 121.978 65.9636C121.978 66.547 122.448 67.0199 123.028 67.0199Z" fill="#4697DD" fill-opacity="0.35"/>
<path d="M52.2012 15.3041C52.7812 15.3041 53.2515 14.8311 53.2515 14.2477C53.2515 13.6643 52.7812 13.1914 52.2012 13.1914C51.6212 13.1914 51.151 13.6643 51.151 14.2477C51.151 14.8311 51.6212 15.3041 52.2012 15.3041Z" fill="#4697DD" fill-opacity="0.35"/>
<path d="M52.2012 21.6361C52.7812 21.6361 53.2515 21.1632 53.2515 20.5798C53.2515 19.9964 52.7812 19.5234 52.2012 19.5234C51.6212 19.5234 51.151 19.9964 51.151 20.5798C51.151 21.1632 51.6212 21.6361 52.2012 21.6361Z" fill="#4697DD" fill-opacity="0.35"/>
<path d="M52.2012 8.70649C52.6354 8.70649 52.9874 8.35245 52.9874 7.91573C52.9874 7.47901 52.6354 7.125 52.2012 7.125C51.767 7.125 51.415 7.47901 51.415 7.91573C51.415 8.35245 51.767 8.70649 52.2012 8.70649Z" fill="#4697DD" fill-opacity="0.35"/>
<path d="M103.354 15.0385C103.788 15.0385 104.14 14.6845 104.14 14.2478C104.14 13.8111 103.788 13.457 103.354 13.457C102.92 13.457 102.568 13.8111 102.568 14.2478C102.568 14.6845 102.92 15.0385 103.354 15.0385Z" fill="#4697DD" fill-opacity="0.35"/>
<path d="M109.914 27.7036C110.348 27.7036 110.7 27.3495 110.7 26.9128C110.7 26.4761 110.348 26.1221 109.914 26.1221C109.479 26.1221 109.127 26.4761 109.127 26.9128C109.127 27.3495 109.479 27.7036 109.914 27.7036Z" fill="#4697DD" fill-opacity="0.35"/>
<path d="M129.064 34.0366C129.498 34.0366 129.85 33.6825 129.85 33.2458C129.85 32.8091 129.498 32.4551 129.064 32.4551C128.63 32.4551 128.278 32.8091 128.278 33.2458C128.278 33.6825 128.63 34.0366 129.064 34.0366Z" fill="#4697DD" fill-opacity="0.35"/>
<path d="M129.064 40.3676C129.498 40.3676 129.85 40.0136 129.85 39.5769C129.85 39.1401 129.498 38.7861 129.064 38.7861C128.63 38.7861 128.278 39.1401 128.278 39.5769C128.278 40.0136 128.63 40.3676 129.064 40.3676Z" fill="#4697DD" fill-opacity="0.35"/>
<path d="M129.064 46.9653C129.498 46.9653 129.85 46.6112 129.85 46.1745C129.85 45.7378 129.498 45.3838 129.064 45.3838C128.63 45.3838 128.278 45.7378 128.278 46.1745C128.278 46.6112 128.63 46.9653 129.064 46.9653Z" fill="#4697DD" fill-opacity="0.35"/>
<path d="M129.064 53.2973C129.498 53.2973 129.85 52.9433 129.85 52.5066C129.85 52.0698 129.498 51.7158 129.064 51.7158C128.63 51.7158 128.278 52.0698 128.278 52.5066C128.278 52.9433 128.63 53.2973 129.064 53.2973Z" fill="#4697DD" fill-opacity="0.35"/>
<path d="M129.064 60.1567C129.498 60.1567 129.85 59.8027 129.85 59.366C129.85 58.9292 129.498 58.5752 129.064 58.5752C128.63 58.5752 128.278 58.9292 128.278 59.366C128.278 59.8027 128.63 60.1567 129.064 60.1567Z" fill="#4697DD" fill-opacity="0.35"/>
<path d="M90.7635 72.8227C91.1977 72.8227 91.5497 72.4687 91.5497 72.032C91.5497 71.5953 91.1977 71.2412 90.7635 71.2412C90.3293 71.2412 89.9773 71.5953 89.9773 72.032C89.9773 72.4687 90.3293 72.8227 90.7635 72.8227Z" fill="#4697DD" fill-opacity="0.35"/>
<path d="M90.7635 79.4184C91.1977 79.4184 91.5497 79.0644 91.5497 78.6277C91.5497 78.191 91.1977 77.8369 90.7635 77.8369C90.3293 77.8369 89.9773 78.191 89.9773 78.6277C89.9773 79.0644 90.3293 79.4184 90.7635 79.4184Z" fill="#4697DD" fill-opacity="0.35"/>
<path d="M90.5014 85.7505C90.9356 85.7505 91.2876 85.3964 91.2876 84.9597C91.2876 84.523 90.9356 84.1689 90.5014 84.1689C90.0672 84.1689 89.7152 84.523 89.7152 84.9597C89.7152 85.3964 90.0672 85.7505 90.5014 85.7505Z" fill="#4697DD" fill-opacity="0.35"/>
<path d="M51.6771 92.6118C52.1113 92.6118 52.4633 92.2577 52.4633 91.821C52.4633 91.3843 52.1113 91.0303 51.6771 91.0303C51.2429 91.0303 50.8909 91.3843 50.8909 91.821C50.8909 92.2577 51.2429 92.6118 51.6771 92.6118Z" fill="#4697DD" fill-opacity="0.35"/>
<path d="M96.7968 79.4184C97.231 79.4184 97.583 79.0644 97.583 78.6277C97.583 78.191 97.231 77.8369 96.7968 77.8369C96.3626 77.8369 96.0107 78.191 96.0107 78.6277C96.0107 79.0644 96.3626 79.4184 96.7968 79.4184Z" fill="#4697DD" fill-opacity="0.35"/>
<path d="M38.8224 21.3696C39.2565 21.3696 39.6085 21.0156 39.6085 20.5788C39.6085 20.1421 39.2565 19.7881 38.8224 19.7881C38.3882 19.7881 38.0362 20.1421 38.0362 20.5788C38.0362 21.0156 38.3882 21.3696 38.8224 21.3696Z" fill="#4697DD" fill-opacity="0.35"/>
<path d="M45.9059 21.3696C46.3401 21.3696 46.692 21.0156 46.692 20.5788C46.692 20.1421 46.3401 19.7881 45.9059 19.7881C45.4717 19.7881 45.1197 20.1421 45.1197 20.5788C45.1197 21.0156 45.4717 21.3696 45.9059 21.3696Z" fill="#4697DD" fill-opacity="0.35"/>
<path d="M38.8224 15.0385C39.2565 15.0385 39.6085 14.6845 39.6085 14.2478C39.6085 13.8111 39.2565 13.457 38.8224 13.457C38.3882 13.457 38.0362 13.8111 38.0362 14.2478C38.0362 14.6845 38.3882 15.0385 38.8224 15.0385Z" fill="#4697DD" fill-opacity="0.35"/>
<path d="M39.0844 27.9672C39.5186 27.9672 39.8706 27.6132 39.8706 27.1765C39.8706 26.7398 39.5186 26.3857 39.0844 26.3857C38.6502 26.3857 38.2983 26.7398 38.2983 27.1765C38.2983 27.6132 38.6502 27.9672 39.0844 27.9672Z" fill="#4697DD" fill-opacity="0.35"/>
<path d="M39.0844 34.8266C39.5186 34.8266 39.8706 34.4726 39.8706 34.0359C39.8706 33.5992 39.5186 33.2451 39.0844 33.2451C38.6502 33.2451 38.2983 33.5992 38.2983 34.0359C38.2983 34.4726 38.6502 34.8266 39.0844 34.8266Z" fill="#4697DD" fill-opacity="0.35"/>
<path d="M39.0844 40.895C39.5186 40.895 39.8706 40.5409 39.8706 40.1042C39.8706 39.6675 39.5186 39.3135 39.0844 39.3135C38.6502 39.3135 38.2983 39.6675 38.2983 40.1042C38.2983 40.5409 38.6502 40.895 39.0844 40.895Z" fill="#4697DD" fill-opacity="0.35"/>
<path d="M39.0844 46.9653C39.5186 46.9653 39.8706 46.6112 39.8706 46.1745C39.8706 45.7378 39.5186 45.3838 39.0844 45.3838C38.6502 45.3838 38.2983 45.7378 38.2983 46.1745C38.2983 46.6112 38.6502 46.9653 39.0844 46.9653Z" fill="#4697DD" fill-opacity="0.35"/>
<path d="M39.0844 53.8246C39.5186 53.8246 39.8706 53.4706 39.8706 53.0339C39.8706 52.5972 39.5186 52.2432 39.0844 52.2432C38.6502 52.2432 38.2983 52.5972 38.2983 53.0339C38.2983 53.4706 38.6502 53.8246 39.0844 53.8246Z" fill="#4697DD" fill-opacity="0.35"/>
<path d="M39.0844 59.893C39.5186 59.893 39.8706 59.539 39.8706 59.1023C39.8706 58.6655 39.5186 58.3115 39.0844 58.3115C38.6502 58.3115 38.2983 58.6655 38.2983 59.1023C38.2983 59.539 38.6502 59.893 39.0844 59.893Z" fill="#4697DD" fill-opacity="0.35"/>
<path d="M39.0844 65.9614C39.5186 65.9614 39.8706 65.6074 39.8706 65.1706C39.8706 64.7339 39.5186 64.3799 39.0844 64.3799C38.6502 64.3799 38.2983 64.7339 38.2983 65.1706C38.2983 65.6074 38.6502 65.9614 39.0844 65.9614Z" fill="#4697DD" fill-opacity="0.35"/>
<path d="M39.0844 72.8227C39.5186 72.8227 39.8706 72.4687 39.8706 72.032C39.8706 71.5953 39.5186 71.2412 39.0844 71.2412C38.6502 71.2412 38.2983 71.5953 38.2983 72.032C38.2983 72.4687 38.6502 72.8227 39.0844 72.8227Z" fill="#4697DD" fill-opacity="0.35"/>
<path d="M39.0844 79.6821C39.5186 79.6821 39.8706 79.328 39.8706 78.8913C39.8706 78.4546 39.5186 78.1006 39.0844 78.1006C38.6502 78.1006 38.2983 78.4546 38.2983 78.8913C38.2983 79.328 38.6502 79.6821 39.0844 79.6821Z" fill="#4697DD" fill-opacity="0.35"/>
<path d="M39.0844 85.7505C39.5186 85.7505 39.8706 85.3964 39.8706 84.9597C39.8706 84.523 39.5186 84.1689 39.0844 84.1689C38.6502 84.1689 38.2983 84.523 38.2983 84.9597C38.2983 85.3964 38.6502 85.7505 39.0844 85.7505Z" fill="#4697DD" fill-opacity="0.35"/>
<path d="M109.914 85.7505C110.348 85.7505 110.7 85.3964 110.7 84.9597C110.7 84.523 110.348 84.1689 109.914 84.1689C109.479 84.1689 109.127 84.523 109.127 84.9597C109.127 85.3964 109.479 85.7505 109.914 85.7505Z" fill="#4697DD" fill-opacity="0.35"/>
<path d="M103.354 85.7505C103.788 85.7505 104.14 85.3964 104.14 84.9597C104.14 84.523 103.788 84.1689 103.354 84.1689C102.92 84.1689 102.568 84.523 102.568 84.9597C102.568 85.3964 102.92 85.7505 103.354 85.7505Z" fill="#4697DD" fill-opacity="0.35"/>
<path d="M96.7968 85.7505C97.231 85.7505 97.583 85.3964 97.583 84.9597C97.583 84.523 97.231 84.1689 96.7968 84.1689C96.3626 84.1689 96.0107 84.523 96.0107 84.9597C96.0107 85.3964 96.3626 85.7505 96.7968 85.7505Z" fill="#4697DD" fill-opacity="0.35"/>
<path d="M103.354 79.4184C103.788 79.4184 104.14 79.0644 104.14 78.6277C104.14 78.191 103.788 77.8369 103.354 77.8369C102.92 77.8369 102.568 78.191 102.568 78.6277C102.568 79.0644 102.92 79.4184 103.354 79.4184Z" fill="#4697DD" fill-opacity="0.35"/>
<path d="M103.354 72.8227C103.788 72.8227 104.14 72.4687 104.14 72.032C104.14 71.5953 103.788 71.2412 103.354 71.2412C102.92 71.2412 102.568 71.5953 102.568 72.032C102.568 72.4687 102.92 72.8227 103.354 72.8227Z" fill="#4697DD" fill-opacity="0.35"/>
<path d="M109.914 72.8227C110.348 72.8227 110.7 72.4687 110.7 72.032C110.7 71.5953 110.348 71.2412 109.914 71.2412C109.479 71.2412 109.127 71.5953 109.127 72.032C109.127 72.4687 109.479 72.8227 109.914 72.8227Z" fill="#4697DD" fill-opacity="0.35"/>
<path d="M96.7968 72.8227C97.231 72.8227 97.583 72.4687 97.583 72.032C97.583 71.5953 97.231 71.2412 96.7968 71.2412C96.3626 71.2412 96.0107 71.5953 96.0107 72.032C96.0107 72.4687 96.3626 72.8227 96.7968 72.8227Z" fill="#4697DD" fill-opacity="0.35"/>
<path d="M97.0589 92.6118C97.4931 92.6118 97.8451 92.2577 97.8451 91.821C97.8451 91.3843 97.4931 91.0303 97.0589 91.0303C96.6247 91.0303 96.2727 91.3843 96.2727 91.821C96.2727 92.2577 96.6247 92.6118 97.0589 92.6118Z" fill="#4697DD" fill-opacity="0.35"/>
<path d="M90.7635 92.6118C91.1977 92.6118 91.5497 92.2577 91.5497 91.821C91.5497 91.3843 91.1977 91.0303 90.7635 91.0303C90.3293 91.0303 89.9773 91.3843 89.9773 91.821C89.9773 92.2577 90.3293 92.6118 90.7635 92.6118Z" fill="#4697DD" fill-opacity="0.35"/>
<path d="M104.929 92.6118C105.363 92.6118 105.715 92.2577 105.715 91.821C105.715 91.3843 105.363 91.0303 104.929 91.0303C104.494 91.0303 104.142 91.3843 104.142 91.821C104.142 92.2577 104.494 92.6118 104.929 92.6118Z" fill="#4697DD" fill-opacity="0.35"/>
<path d="M39.0844 92.6118C39.5186 92.6118 39.8706 92.2577 39.8706 91.821C39.8706 91.3843 39.5186 91.0303 39.0844 91.0303C38.6502 91.0303 38.2983 91.3843 38.2983 91.821C38.2983 92.2577 38.6502 92.6118 39.0844 92.6118Z" fill="#4697DD" fill-opacity="0.35"/>
<path d="M45.3818 92.6118C45.816 92.6118 46.168 92.2577 46.168 91.821C46.168 91.3843 45.816 91.0303 45.3818 91.0303C44.9476 91.0303 44.5956 91.3843 44.5956 91.821C44.5956 92.2577 44.9476 92.6118 45.3818 92.6118Z" fill="#4697DD" fill-opacity="0.35"/>
<path d="M45.3818 99.4711C45.816 99.4711 46.168 99.1171 46.168 98.6804C46.168 98.2437 45.816 97.8896 45.3818 97.8896C44.9476 97.8896 44.5956 98.2437 44.5956 98.6804C44.5956 99.1171 44.9476 99.4711 45.3818 99.4711Z" fill="#4697DD" fill-opacity="0.35"/>
<path d="M51.9392 99.4711C52.3734 99.4711 52.7253 99.1171 52.7253 98.6804C52.7253 98.2437 52.3734 97.8896 51.9392 97.8896C51.505 97.8896 51.153 98.2437 51.153 98.6804C51.153 99.1171 51.505 99.4711 51.9392 99.4711Z" fill="#4697DD" fill-opacity="0.35"/>
<path d="M39.0844 99.4711C39.5186 99.4711 39.8706 99.1171 39.8706 98.6804C39.8706 98.2437 39.5186 97.8896 39.0844 97.8896C38.6502 97.8896 38.2983 98.2437 38.2983 98.6804C38.2983 99.1171 38.6502 99.4711 39.0844 99.4711Z" fill="#4697DD" fill-opacity="0.35"/>
<path d="M32.7891 27.9672C33.2233 27.9672 33.5752 27.6132 33.5752 27.1765C33.5752 26.7398 33.2233 26.3857 32.7891 26.3857C32.3549 26.3857 32.0029 26.7398 32.0029 27.1765C32.0029 27.6132 32.3549 27.9672 32.7891 27.9672Z" fill="#4697DD" fill-opacity="0.35"/>
<path d="M32.7891 34.8266C33.2233 34.8266 33.5752 34.4726 33.5752 34.0359C33.5752 33.5992 33.2233 33.2451 32.7891 33.2451C32.3549 33.2451 32.0029 33.5992 32.0029 34.0359C32.0029 34.4726 32.3549 34.8266 32.7891 34.8266Z" fill="#4697DD" fill-opacity="0.35"/>
<path d="M32.7891 40.895C33.2233 40.895 33.5752 40.5409 33.5752 40.1042C33.5752 39.6675 33.2233 39.3135 32.7891 39.3135C32.3549 39.3135 32.0029 39.6675 32.0029 40.1042C32.0029 40.5409 32.3549 40.895 32.7891 40.895Z" fill="#4697DD" fill-opacity="0.35"/>
<path d="M20.4604 40.895C20.8946 40.895 21.2466 40.5409 21.2466 40.1042C21.2466 39.6675 20.8946 39.3135 20.4604 39.3135C20.0262 39.3135 19.6742 39.6675 19.6742 40.1042C19.6742 40.5409 20.0262 40.895 20.4604 40.895Z" fill="#4697DD" fill-opacity="0.35"/>
<path d="M32.7891 46.9653C33.2233 46.9653 33.5752 46.6112 33.5752 46.1745C33.5752 45.7378 33.2233 45.3838 32.7891 45.3838C32.3549 45.3838 32.0029 45.7378 32.0029 46.1745C32.0029 46.6112 32.3549 46.9653 32.7891 46.9653Z" fill="#4697DD" fill-opacity="0.35"/>
<path d="M32.7891 53.8246C33.2233 53.8246 33.5752 53.4706 33.5752 53.0339C33.5752 52.5972 33.2233 52.2432 32.7891 52.2432C32.3549 52.2432 32.0029 52.5972 32.0029 53.0339C32.0029 53.4706 32.3549 53.8246 32.7891 53.8246Z" fill="#4697DD" fill-opacity="0.35"/>
<path d="M32.7891 59.893C33.2233 59.893 33.5752 59.539 33.5752 59.1023C33.5752 58.6655 33.2233 58.3115 32.7891 58.3115C32.3549 58.3115 32.0029 58.6655 32.0029 59.1023C32.0029 59.539 32.3549 59.893 32.7891 59.893Z" fill="#4697DD" fill-opacity="0.35"/>
<path d="M32.7891 65.9614C33.2233 65.9614 33.5752 65.6074 33.5752 65.1706C33.5752 64.7339 33.2233 64.3799 32.7891 64.3799C32.3549 64.3799 32.0029 64.7339 32.0029 65.1706C32.0029 65.6074 32.3549 65.9614 32.7891 65.9614Z" fill="#4697DD" fill-opacity="0.35"/>
<path d="M32.7891 72.8227C33.2233 72.8227 33.5752 72.4687 33.5752 72.032C33.5752 71.5953 33.2233 71.2412 32.7891 71.2412C32.3549 71.2412 32.0029 71.5953 32.0029 72.032C32.0029 72.4687 32.3549 72.8227 32.7891 72.8227Z" fill="#4697DD" fill-opacity="0.35"/>
<path d="M19.9363 59.893C20.3705 59.893 20.7225 59.539 20.7225 59.1023C20.7225 58.6655 20.3705 58.3115 19.9363 58.3115C19.5021 58.3115 19.1502 58.6655 19.1502 59.1023C19.1502 59.539 19.5021 59.893 19.9363 59.893Z" fill="#4697DD" fill-opacity="0.35"/>
<path d="M19.9363 65.9614C20.3705 65.9614 20.7225 65.6074 20.7225 65.1706C20.7225 64.7339 20.3705 64.3799 19.9363 64.3799C19.5021 64.3799 19.1502 64.7339 19.1502 65.1706C19.1502 65.6074 19.5021 65.9614 19.9363 65.9614Z" fill="#4697DD" fill-opacity="0.35"/>
<path d="M19.9363 72.8227C20.3705 72.8227 20.7225 72.4687 20.7225 72.032C20.7225 71.5953 20.3705 71.2412 19.9363 71.2412C19.5021 71.2412 19.1502 71.5953 19.1502 72.032C19.1502 72.4687 19.5021 72.8227 19.9363 72.8227Z" fill="#4697DD" fill-opacity="0.35"/>
<path d="M32.7891 79.6821C33.2233 79.6821 33.5752 79.328 33.5752 78.8913C33.5752 78.4546 33.2233 78.1006 32.7891 78.1006C32.3549 78.1006 32.0029 78.4546 32.0029 78.8913C32.0029 79.328 32.3549 79.6821 32.7891 79.6821Z" fill="#4697DD" fill-opacity="0.35"/>
<path d="M32.7891 85.7505C33.2233 85.7505 33.5752 85.3964 33.5752 84.9597C33.5752 84.523 33.2233 84.1689 32.7891 84.1689C32.3549 84.1689 32.0029 84.523 32.0029 84.9597C32.0029 85.3964 32.3549 85.7505 32.7891 85.7505Z" fill="#4697DD" fill-opacity="0.35"/>
<path d="M26.2317 27.9672C26.6659 27.9672 27.0178 27.6132 27.0178 27.1765C27.0178 26.7398 26.6659 26.3857 26.2317 26.3857C25.7975 26.3857 25.4455 26.7398 25.4455 27.1765C25.4455 27.6132 25.7975 27.9672 26.2317 27.9672Z" fill="#4697DD" fill-opacity="0.35"/>
<path d="M26.2317 34.8266C26.6659 34.8266 27.0178 34.4726 27.0178 34.0359C27.0178 33.5992 26.6659 33.2451 26.2317 33.2451C25.7975 33.2451 25.4455 33.5992 25.4455 34.0359C25.4455 34.4726 25.7975 34.8266 26.2317 34.8266Z" fill="#4697DD" fill-opacity="0.35"/>
<path d="M26.2317 40.895C26.6659 40.895 27.0178 40.5409 27.0178 40.1042C27.0178 39.6675 26.6659 39.3135 26.2317 39.3135C25.7975 39.3135 25.4455 39.6675 25.4455 40.1042C25.4455 40.5409 25.7975 40.895 26.2317 40.895Z" fill="#4697DD" fill-opacity="0.35"/>
<path d="M13.901 40.6315C14.1905 40.6315 14.4251 40.3955 14.4251 40.1043C14.4251 39.8132 14.1905 39.5771 13.901 39.5771C13.6115 39.5771 13.3769 39.8132 13.3769 40.1043C13.3769 40.3955 13.6115 40.6315 13.901 40.6315Z" fill="#4697DD" fill-opacity="0.35"/>
<path d="M13.901 53.2975C14.1905 53.2975 14.4251 53.0615 14.4251 52.7703C14.4251 52.4792 14.1905 52.2432 13.901 52.2432C13.6115 52.2432 13.3769 52.4792 13.3769 52.7703C13.3769 53.0615 13.6115 53.2975 13.901 53.2975Z" fill="#4697DD" fill-opacity="0.35"/>
<path d="M0.524112 59.6295C0.813571 59.6295 1.04822 59.3935 1.04822 59.1024C1.04822 58.8112 0.813571 58.5752 0.524112 58.5752C0.234652 58.5752 0 58.8112 0 59.1024C0 59.3935 0.234652 59.6295 0.524112 59.6295Z" fill="#4697DD" fill-opacity="0.35"/>
<path d="M141.916 33.7721C142.206 33.7721 142.441 33.5361 142.441 33.2449C142.441 32.9538 142.206 32.7178 141.916 32.7178C141.627 32.7178 141.392 32.9538 141.392 33.2449C141.392 33.5361 141.627 33.7721 141.916 33.7721Z" fill="#4697DD" fill-opacity="0.35"/>
<path d="M135.359 33.7721C135.649 33.7721 135.883 33.5361 135.883 33.2449C135.883 32.9538 135.649 32.7178 135.359 32.7178C135.07 32.7178 134.835 32.9538 134.835 33.2449C134.835 33.5361 135.07 33.7721 135.359 33.7721Z" fill="#4697DD" fill-opacity="0.35"/>
<path d="M135.359 40.1041C135.649 40.1041 135.883 39.8681 135.883 39.577C135.883 39.2858 135.649 39.0498 135.359 39.0498C135.07 39.0498 134.835 39.2858 134.835 39.577C134.835 39.8681 135.07 40.1041 135.359 40.1041Z" fill="#4697DD" fill-opacity="0.35"/>
<path d="M135.359 46.7018C135.649 46.7018 135.883 46.4658 135.883 46.1746C135.883 45.8835 135.649 45.6475 135.359 45.6475C135.07 45.6475 134.835 45.8835 134.835 46.1746C134.835 46.4658 135.07 46.7018 135.359 46.7018Z" fill="#4697DD" fill-opacity="0.35"/>
<path d="M135.359 53.0338C135.649 53.0338 135.883 52.7978 135.883 52.5067C135.883 52.2155 135.649 51.9795 135.359 51.9795C135.07 51.9795 134.835 52.2155 134.835 52.5067C134.835 52.7978 135.07 53.0338 135.359 53.0338Z" fill="#4697DD" fill-opacity="0.35"/>
<path d="M141.916 40.1041C142.206 40.1041 142.441 39.8681 142.441 39.577C142.441 39.2858 142.206 39.0498 141.916 39.0498C141.627 39.0498 141.392 39.2858 141.392 39.577C141.392 39.8681 141.627 40.1041 141.916 40.1041Z" fill="#4697DD" fill-opacity="0.35"/>
<path d="M141.916 46.7018C142.206 46.7018 142.441 46.4658 142.441 46.1746C142.441 45.8835 142.206 45.6475 141.916 45.6475C141.627 45.6475 141.392 45.8835 141.392 46.1746C141.392 46.4658 141.627 46.7018 141.916 46.7018Z" fill="#4697DD" fill-opacity="0.35"/>
<path d="M141.916 53.0338C142.206 53.0338 142.441 52.7978 142.441 52.5067C142.441 52.2155 142.206 51.9795 141.916 51.9795C141.627 51.9795 141.392 52.2155 141.392 52.5067C141.392 52.7978 141.627 53.0338 141.916 53.0338Z" fill="#4697DD" fill-opacity="0.35"/>
<path d="M148.476 40.1041C148.765 40.1041 149 39.8681 149 39.577C149 39.2858 148.765 39.0498 148.476 39.0498C148.186 39.0498 147.952 39.2858 147.952 39.577C147.952 39.8681 148.186 40.1041 148.476 40.1041Z" fill="#4697DD" fill-opacity="0.35"/>
<path d="M148.476 46.1725C148.765 46.1725 149 45.9365 149 45.6453C149 45.3542 148.765 45.1182 148.476 45.1182C148.186 45.1182 147.952 45.3542 147.952 45.6453C147.952 45.9365 148.186 46.1725 148.476 46.1725Z" fill="#4697DD" fill-opacity="0.35"/>
<path d="M0.524112 65.6979C0.813571 65.6979 1.04822 65.4619 1.04822 65.1707C1.04822 64.8796 0.813571 64.6436 0.524112 64.6436C0.234652 64.6436 0 64.8796 0 65.1707C0 65.4619 0.234652 65.6979 0.524112 65.6979Z" fill="#4697DD" fill-opacity="0.35"/>
<path d="M7.60566 72.5592C7.89512 72.5592 8.12977 72.3232 8.12977 72.032C8.12977 71.7409 7.89512 71.5049 7.60566 71.5049C7.3162 71.5049 7.08155 71.7409 7.08155 72.032C7.08155 72.3232 7.3162 72.5592 7.60566 72.5592Z" fill="#4697DD" fill-opacity="0.35"/>
<path d="M13.901 79.4186C14.1905 79.4186 14.4251 79.1826 14.4251 78.8914C14.4251 78.6003 14.1905 78.3643 13.901 78.3643C13.6115 78.3643 13.3769 78.6003 13.3769 78.8914C13.3769 79.1826 13.6115 79.4186 13.901 79.4186Z" fill="#4697DD" fill-opacity="0.35"/>
<path d="M20.1984 79.4186C20.4878 79.4186 20.7225 79.1826 20.7225 78.8914C20.7225 78.6003 20.4878 78.3643 20.1984 78.3643C19.9089 78.3643 19.6742 78.6003 19.6742 78.8914C19.6742 79.1826 19.9089 79.4186 20.1984 79.4186Z" fill="#4697DD" fill-opacity="0.35"/>
<path d="M7.60566 65.6979C7.89512 65.6979 8.12977 65.4619 8.12977 65.1707C8.12977 64.8796 7.89512 64.6436 7.60566 64.6436C7.3162 64.6436 7.08155 64.8796 7.08155 65.1707C7.08155 65.4619 7.3162 65.6979 7.60566 65.6979Z" fill="#4697DD" fill-opacity="0.35"/>
<path d="M7.60566 59.6295C7.89512 59.6295 8.12977 59.3935 8.12977 59.1024C8.12977 58.8112 7.89512 58.5752 7.60566 58.5752C7.3162 58.5752 7.08155 58.8112 7.08155 59.1024C7.08155 59.3935 7.3162 59.6295 7.60566 59.6295Z" fill="#4697DD" fill-opacity="0.35"/>
<path d="M26.2317 46.9653C26.6659 46.9653 27.0178 46.6112 27.0178 46.1745C27.0178 45.7378 26.6659 45.3838 26.2317 45.3838C25.7975 45.3838 25.4455 45.7378 25.4455 46.1745C25.4455 46.6112 25.7975 46.9653 26.2317 46.9653Z" fill="#4697DD" fill-opacity="0.35"/>
<path d="M26.2317 53.8246C26.6659 53.8246 27.0178 53.4706 27.0178 53.0339C27.0178 52.5972 26.6659 52.2432 26.2317 52.2432C25.7975 52.2432 25.4455 52.5972 25.4455 53.0339C25.4455 53.4706 25.7975 53.8246 26.2317 53.8246Z" fill="#4697DD" fill-opacity="0.35"/>
<path d="M19.9363 53.8246C20.3705 53.8246 20.7225 53.4706 20.7225 53.0339C20.7225 52.5972 20.3705 52.2432 19.9363 52.2432C19.5021 52.2432 19.1502 52.5972 19.1502 53.0339C19.1502 53.4706 19.5021 53.8246 19.9363 53.8246Z" fill="#4697DD" fill-opacity="0.35"/>
<path d="M26.2317 59.893C26.6659 59.893 27.0178 59.539 27.0178 59.1023C27.0178 58.6655 26.6659 58.3115 26.2317 58.3115C25.7975 58.3115 25.4455 58.6655 25.4455 59.1023C25.4455 59.539 25.7975 59.893 26.2317 59.893Z" fill="#4697DD" fill-opacity="0.35"/>
<path d="M26.2317 65.9614C26.6659 65.9614 27.0178 65.6074 27.0178 65.1706C27.0178 64.7339 26.6659 64.3799 26.2317 64.3799C25.7975 64.3799 25.4455 64.7339 25.4455 65.1706C25.4455 65.6074 25.7975 65.9614 26.2317 65.9614Z" fill="#4697DD" fill-opacity="0.35"/>
<path d="M26.2317 72.8227C26.6659 72.8227 27.0178 72.4687 27.0178 72.032C27.0178 71.5953 26.6659 71.2412 26.2317 71.2412C25.7975 71.2412 25.4455 71.5953 25.4455 72.032C25.4455 72.4687 25.7975 72.8227 26.2317 72.8227Z" fill="#4697DD" fill-opacity="0.35"/>
<path d="M13.3769 59.893C13.8111 59.893 14.1631 59.539 14.1631 59.1023C14.1631 58.6655 13.8111 58.3115 13.3769 58.3115C12.9427 58.3115 12.5907 58.6655 12.5907 59.1023C12.5907 59.539 12.9427 59.893 13.3769 59.893Z" fill="#4697DD" fill-opacity="0.35"/>
<path d="M13.3769 65.9614C13.8111 65.9614 14.1631 65.6074 14.1631 65.1706C14.1631 64.7339 13.8111 64.3799 13.3769 64.3799C12.9427 64.3799 12.5907 64.7339 12.5907 65.1706C12.5907 65.6074 12.9427 65.9614 13.3769 65.9614Z" fill="#4697DD" fill-opacity="0.35"/>
<path d="M13.3769 72.8227C13.8111 72.8227 14.1631 72.4687 14.1631 72.032C14.1631 71.5953 13.8111 71.2412 13.3769 71.2412C12.9427 71.2412 12.5907 71.5953 12.5907 72.032C12.5907 72.4687 12.9427 72.8227 13.3769 72.8227Z" fill="#4697DD" fill-opacity="0.35"/>
<path d="M26.2317 79.6821C26.6659 79.6821 27.0178 79.328 27.0178 78.8913C27.0178 78.4546 26.6659 78.1006 26.2317 78.1006C25.7975 78.1006 25.4455 78.4546 25.4455 78.8913C25.4455 79.328 25.7975 79.6821 26.2317 79.6821Z" fill="#4697DD" fill-opacity="0.35"/>
<path d="M26.2317 85.7505C26.6659 85.7505 27.0178 85.3964 27.0178 84.9597C27.0178 84.523 26.6659 84.1689 26.2317 84.1689C25.7975 84.1689 25.4455 84.523 25.4455 84.9597C25.4455 85.3964 25.7975 85.7505 26.2317 85.7505Z" fill="#4697DD" fill-opacity="0.35"/>
<path d="M71.2193 9.23345C72.0159 9.23345 72.6616 8.58395 72.6616 7.78275C72.6616 6.98155 72.0159 6.33203 71.2193 6.33203C70.4227 6.33203 69.777 6.98155 69.777 7.78275C69.777 8.58395 70.4227 9.23345 71.2193 9.23345Z" fill="#4697DD" fill-opacity="0.35"/>
<path d="M71.2193 15.8311C72.0159 15.8311 72.6616 15.1816 72.6616 14.3804C72.6616 13.5792 72.0159 12.9297 71.2193 12.9297C70.4227 12.9297 69.777 13.5792 69.777 14.3804C69.777 15.1816 70.4227 15.8311 71.2193 15.8311Z" fill="#4697DD" fill-opacity="0.35"/>
<path d="M71.2193 22.163C72.1606 22.163 72.9237 21.3954 72.9237 20.4487C72.9237 19.5019 72.1606 18.7344 71.2193 18.7344C70.278 18.7344 69.5149 19.5019 69.5149 20.4487C69.5149 21.3954 70.278 22.163 71.2193 22.163Z" fill="#4697DD" fill-opacity="0.35"/>
<path d="M71.2193 28.7587C72.1606 28.7587 72.9237 27.9911 72.9237 27.0444C72.9237 26.0976 72.1606 25.3301 71.2193 25.3301C70.278 25.3301 69.5149 26.0976 69.5149 27.0444C69.5149 27.9911 70.278 28.7587 71.2193 28.7587Z" fill="#4697DD" fill-opacity="0.35"/>
<path d="M77.7787 9.23345C78.5753 9.23345 79.221 8.58395 79.221 7.78275C79.221 6.98155 78.5753 6.33203 77.7787 6.33203C76.9821 6.33203 76.3364 6.98155 76.3364 7.78275C76.3364 8.58395 76.9821 9.23345 77.7787 9.23345Z" fill="#4697DD" fill-opacity="0.35"/>
<path d="M77.7787 15.8311C78.5753 15.8311 79.221 15.1816 79.221 14.3804C79.221 13.5792 78.5753 12.9297 77.7787 12.9297C76.9821 12.9297 76.3364 13.5792 76.3364 14.3804C76.3364 15.1816 76.9821 15.8311 77.7787 15.8311Z" fill="#4697DD" fill-opacity="0.35"/>
<path d="M77.7787 22.163C78.72 22.163 79.4831 21.3954 79.4831 20.4487C79.4831 19.5019 78.72 18.7344 77.7787 18.7344C76.8374 18.7344 76.0743 19.5019 76.0743 20.4487C76.0743 21.3954 76.8374 22.163 77.7787 22.163Z" fill="#4697DD" fill-opacity="0.35"/>
<path d="M77.7787 28.7587C78.72 28.7587 79.4831 27.9911 79.4831 27.0444C79.4831 26.0976 78.72 25.3301 77.7787 25.3301C76.8374 25.3301 76.0743 26.0976 76.0743 27.0444C76.0743 27.9911 76.8374 28.7587 77.7787 28.7587Z" fill="#4697DD" fill-opacity="0.35"/>
<path d="M84.3361 15.8311C85.1327 15.8311 85.7784 15.1816 85.7784 14.3804C85.7784 13.5792 85.1327 12.9297 84.3361 12.9297C83.5396 12.9297 82.8938 13.5792 82.8938 14.3804C82.8938 15.1816 83.5396 15.8311 84.3361 15.8311Z" fill="#4697DD" fill-opacity="0.35"/>
<path d="M116.341 41.6875C117.138 41.6875 117.783 41.038 117.783 40.2368C117.783 39.4356 117.138 38.7861 116.341 38.7861C115.544 38.7861 114.899 39.4356 114.899 40.2368C114.899 41.038 115.544 41.6875 116.341 41.6875Z" fill="#4697DD" fill-opacity="0.35"/>
<path d="M109.782 41.6875C110.578 41.6875 111.224 41.038 111.224 40.2368C111.224 39.4356 110.578 38.7861 109.782 38.7861C108.985 38.7861 108.339 39.4356 108.339 40.2368C108.339 41.038 108.985 41.6875 109.782 41.6875Z" fill="#4697DD" fill-opacity="0.35"/>
<path d="M96.9288 35.0928C97.7254 35.0928 98.3711 34.4433 98.3711 33.6421C98.3711 32.8409 97.7254 32.1914 96.9288 32.1914C96.1323 32.1914 95.4865 32.8409 95.4865 33.6421C95.4865 34.4433 96.1323 35.0928 96.9288 35.0928Z" fill="#4697DD" fill-opacity="0.35"/>
<path d="M103.486 41.6875C104.283 41.6875 104.929 41.038 104.929 40.2368C104.929 39.4356 104.283 38.7861 103.486 38.7861C102.69 38.7861 102.044 39.4356 102.044 40.2368C102.044 41.038 102.69 41.6875 103.486 41.6875Z" fill="#4697DD" fill-opacity="0.35"/>
<path d="M96.9288 41.6875C97.7254 41.6875 98.3711 41.038 98.3711 40.2368C98.3711 39.4356 97.7254 38.7861 96.9288 38.7861C96.1323 38.7861 95.4865 39.4356 95.4865 40.2368C95.4865 41.038 96.1323 41.6875 96.9288 41.6875Z" fill="#4697DD" fill-opacity="0.35"/>
<path d="M103.486 47.4932C104.283 47.4932 104.929 46.8437 104.929 46.0425C104.929 45.2413 104.283 44.5918 103.486 44.5918C102.69 44.5918 102.044 45.2413 102.044 46.0425C102.044 46.8437 102.69 47.4932 103.486 47.4932Z" fill="#4697DD" fill-opacity="0.35"/>
<path d="M103.486 54.0879C104.283 54.0879 104.929 53.4384 104.929 52.6372C104.929 51.836 104.283 51.1865 103.486 51.1865C102.69 51.1865 102.044 51.836 102.044 52.6372C102.044 53.4384 102.69 54.0879 103.486 54.0879Z" fill="#4697DD" fill-opacity="0.35"/>
<path d="M58.6286 93.1387C59.4252 93.1387 60.0709 92.4892 60.0709 91.688C60.0709 90.8868 59.4252 90.2373 58.6286 90.2373C57.8321 90.2373 57.1863 90.8868 57.1863 91.688C57.1863 92.4892 57.8321 93.1387 58.6286 93.1387Z" fill="#4697DD" fill-opacity="0.35"/>
<path d="M65.186 86.2793C65.9826 86.2793 66.6283 85.6298 66.6283 84.8286C66.6283 84.0274 65.9826 83.3779 65.186 83.3779C64.3894 83.3779 63.7437 84.0274 63.7437 84.8286C63.7437 85.6298 64.3894 86.2793 65.186 86.2793Z" fill="#4697DD" fill-opacity="0.35"/>
<path d="M71.7454 86.2793C72.542 86.2793 73.1877 85.6298 73.1877 84.8286C73.1877 84.0274 72.542 83.3779 71.7454 83.3779C70.9489 83.3779 70.3031 84.0274 70.3031 84.8286C70.3031 85.6298 70.9489 86.2793 71.7454 86.2793Z" fill="#4697DD" fill-opacity="0.35"/>
<path d="M78.0408 86.2793C78.8373 86.2793 79.4831 85.6298 79.4831 84.8286C79.4831 84.0274 78.8373 83.3779 78.0408 83.3779C77.2442 83.3779 76.5985 84.0274 76.5985 84.8286C76.5985 85.6298 77.2442 86.2793 78.0408 86.2793Z" fill="#4697DD" fill-opacity="0.35"/>
<path d="M84.3361 86.2793C85.1327 86.2793 85.7784 85.6298 85.7784 84.8286C85.7784 84.0274 85.1327 83.3779 84.3361 83.3779C83.5396 83.3779 82.8938 84.0274 82.8938 84.8286C82.8938 85.6298 83.5396 86.2793 84.3361 86.2793Z" fill="#4697DD" fill-opacity="0.35"/>
<path d="M58.6286 86.2793C59.4252 86.2793 60.0709 85.6298 60.0709 84.8286C60.0709 84.0274 59.4252 83.3779 58.6286 83.3779C57.8321 83.3779 57.1863 84.0274 57.1863 84.8286C57.1863 85.6298 57.8321 86.2793 58.6286 86.2793Z" fill="#4697DD" fill-opacity="0.35"/>
<path d="M65.186 93.1387C65.9826 93.1387 66.6283 92.4892 66.6283 91.688C66.6283 90.8868 65.9826 90.2373 65.186 90.2373C64.3894 90.2373 63.7437 90.8868 63.7437 91.688C63.7437 92.4892 64.3894 93.1387 65.186 93.1387Z" fill="#4697DD" fill-opacity="0.35"/>
<path d="M71.7454 93.1387C72.542 93.1387 73.1877 92.4892 73.1877 91.688C73.1877 90.8868 72.542 90.2373 71.7454 90.2373C70.9489 90.2373 70.3031 90.8868 70.3031 91.688C70.3031 92.4892 70.9489 93.1387 71.7454 93.1387Z" fill="#4697DD" fill-opacity="0.35"/>
<path d="M78.0408 93.1387C78.8373 93.1387 79.4831 92.4892 79.4831 91.688C79.4831 90.8868 78.8373 90.2373 78.0408 90.2373C77.2442 90.2373 76.5985 90.8868 76.5985 91.688C76.5985 92.4892 77.2442 93.1387 78.0408 93.1387Z" fill="#4697DD" fill-opacity="0.35"/>
<path d="M103.486 61.2129C104.283 61.2129 104.929 60.5634 104.929 59.7622C104.929 58.961 104.283 58.3115 103.486 58.3115C102.69 58.3115 102.044 58.961 102.044 59.7622C102.044 60.5634 102.69 61.2129 103.486 61.2129Z" fill="#4697DD" fill-opacity="0.35"/>
<path d="M103.486 67.2813C104.283 67.2813 104.929 66.6318 104.929 65.8306C104.929 65.0294 104.283 64.3799 103.486 64.3799C102.69 64.3799 102.044 65.0294 102.044 65.8306C102.044 66.6318 102.69 67.2813 103.486 67.2813Z" fill="#4697DD" fill-opacity="0.35"/>
<path d="M109.52 47.4932C110.316 47.4932 110.962 46.8437 110.962 46.0425C110.962 45.2413 110.316 44.5918 109.52 44.5918C108.723 44.5918 108.077 45.2413 108.077 46.0425C108.077 46.8437 108.723 47.4932 109.52 47.4932Z" fill="#4697DD" fill-opacity="0.35"/>
<path d="M109.52 54.0879C110.316 54.0879 110.962 53.4384 110.962 52.6372C110.962 51.836 110.316 51.1865 109.52 51.1865C108.723 51.1865 108.077 51.836 108.077 52.6372C108.077 53.4384 108.723 54.0879 109.52 54.0879Z" fill="#4697DD" fill-opacity="0.35"/>
<path d="M109.52 61.2129C110.316 61.2129 110.962 60.5634 110.962 59.7622C110.962 58.961 110.316 58.3115 109.52 58.3115C108.723 58.3115 108.077 58.961 108.077 59.7622C108.077 60.5634 108.723 61.2129 109.52 61.2129Z" fill="#4697DD" fill-opacity="0.35"/>
<path d="M109.52 67.2813C110.316 67.2813 110.962 66.6318 110.962 65.8306C110.962 65.0294 110.316 64.3799 109.52 64.3799C108.723 64.3799 108.077 65.0294 108.077 65.8306C108.077 66.6318 108.723 67.2813 109.52 67.2813Z" fill="#4697DD" fill-opacity="0.35"/>
<path d="M116.341 47.4932C117.138 47.4932 117.783 46.8437 117.783 46.0425C117.783 45.2413 117.138 44.5918 116.341 44.5918C115.544 44.5918 114.899 45.2413 114.899 46.0425C114.899 46.8437 115.544 47.4932 116.341 47.4932Z" fill="#4697DD" fill-opacity="0.35"/>
<path d="M116.341 54.0879C117.138 54.0879 117.783 53.4384 117.783 52.6372C117.783 51.836 117.138 51.1865 116.341 51.1865C115.544 51.1865 114.899 51.836 114.899 52.6372C114.899 53.4384 115.544 54.0879 116.341 54.0879Z" fill="#4697DD" fill-opacity="0.35"/>
<path d="M116.341 61.2129C117.138 61.2129 117.783 60.5634 117.783 59.7622C117.783 58.961 117.138 58.3115 116.341 58.3115C115.544 58.3115 114.899 58.961 114.899 59.7622C114.899 60.5634 115.544 61.2129 116.341 61.2129Z" fill="#4697DD" fill-opacity="0.35"/>
<path d="M116.341 67.2813C117.138 67.2813 117.783 66.6318 117.783 65.8306C117.783 65.0294 117.138 64.3799 116.341 64.3799C115.544 64.3799 114.899 65.0294 114.899 65.8306C114.899 66.6318 115.544 67.2813 116.341 67.2813Z" fill="#4697DD" fill-opacity="0.35"/>
<path d="M84.3361 93.1387C85.1327 93.1387 85.7784 92.4892 85.7784 91.688C85.7784 90.8868 85.1327 90.2373 84.3361 90.2373C83.5396 90.2373 82.8938 90.8868 82.8938 91.688C82.8938 92.4892 83.5396 93.1387 84.3361 93.1387Z" fill="#4697DD" fill-opacity="0.35"/>
<path d="M58.6286 100C59.4252 100 60.0709 99.3506 60.0709 98.5494C60.0709 97.7482 59.4252 97.0986 58.6286 97.0986C57.8321 97.0986 57.1863 97.7482 57.1863 98.5494C57.1863 99.3506 57.8321 100 58.6286 100Z" fill="#4697DD" fill-opacity="0.35"/>
<path d="M65.186 100C65.9826 100 66.6283 99.3506 66.6283 98.5494C66.6283 97.7482 65.9826 97.0986 65.186 97.0986C64.3894 97.0986 63.7437 97.7482 63.7437 98.5494C63.7437 99.3506 64.3894 100 65.186 100Z" fill="#4697DD" fill-opacity="0.35"/>
<path d="M71.7454 100C72.542 100 73.1877 99.3506 73.1877 98.5494C73.1877 97.7482 72.542 97.0986 71.7454 97.0986C70.9489 97.0986 70.3031 97.7482 70.3031 98.5494C70.3031 99.3506 70.9489 100 71.7454 100Z" fill="#4697DD" fill-opacity="0.35"/>
<path d="M84.3361 22.163C85.2774 22.163 86.0405 21.3954 86.0405 20.4487C86.0405 19.5019 85.2774 18.7344 84.3361 18.7344C83.3948 18.7344 82.6317 19.5019 82.6317 20.4487C82.6317 21.3954 83.3948 22.163 84.3361 22.163Z" fill="#4697DD" fill-opacity="0.35"/>
<path d="M84.3361 28.7587C85.2774 28.7587 86.0405 27.9911 86.0405 27.0444C86.0405 26.0976 85.2774 25.3301 84.3361 25.3301C83.3948 25.3301 82.6317 26.0976 82.6317 27.0444C82.6317 27.9911 83.3948 28.7587 84.3361 28.7587Z" fill="#4697DD" fill-opacity="0.35"/>
<path d="M90.6315 28.7587C91.5728 28.7587 92.3358 27.9911 92.3358 27.0444C92.3358 26.0976 91.5728 25.3301 90.6315 25.3301C89.6902 25.3301 88.9271 26.0976 88.9271 27.0444C88.9271 27.9911 89.6902 28.7587 90.6315 28.7587Z" fill="#4697DD" fill-opacity="0.35"/>
<path d="M96.9288 28.7587C97.8701 28.7587 98.6332 27.9911 98.6332 27.0444C98.6332 26.0976 97.8701 25.3301 96.9288 25.3301C95.9875 25.3301 95.2244 26.0976 95.2244 27.0444C95.2244 27.9911 95.9875 28.7587 96.9288 28.7587Z" fill="#4697DD" fill-opacity="0.35"/>
<path d="M90.6315 35.3563C91.5728 35.3563 92.3358 34.5888 92.3358 33.642C92.3358 32.6952 91.5728 31.9277 90.6315 31.9277C89.6902 31.9277 88.9271 32.6952 88.9271 33.642C88.9271 34.5888 89.6902 35.3563 90.6315 35.3563Z" fill="#4697DD" fill-opacity="0.35"/>
<path d="M84.0741 35.3563C85.0154 35.3563 85.7785 34.5888 85.7785 33.642C85.7785 32.6952 85.0154 31.9277 84.0741 31.9277C83.1328 31.9277 82.3697 32.6952 82.3697 33.642C82.3697 34.5888 83.1328 35.3563 84.0741 35.3563Z" fill="#4697DD" fill-opacity="0.35"/>
<path d="M77.5167 35.3563C78.458 35.3563 79.221 34.5888 79.221 33.642C79.221 32.6952 78.458 31.9277 77.5167 31.9277C76.5754 31.9277 75.8123 32.6952 75.8123 33.642C75.8123 34.5888 76.5754 35.3563 77.5167 35.3563Z" fill="#4697DD" fill-opacity="0.35"/>
<path d="M71.2193 35.3563C72.1606 35.3563 72.9237 34.5888 72.9237 33.642C72.9237 32.6952 72.1606 31.9277 71.2193 31.9277C70.278 31.9277 69.5149 32.6952 69.5149 33.642C69.5149 34.5888 70.278 35.3563 71.2193 35.3563Z" fill="#4697DD" fill-opacity="0.35"/>
<path d="M58.6286 42.2174C59.8605 42.2174 60.8591 41.213 60.8591 39.9739C60.8591 38.7349 59.8605 37.7305 58.6286 37.7305C57.3968 37.7305 56.3981 38.7349 56.3981 39.9739C56.3981 41.213 57.3968 42.2174 58.6286 42.2174Z" fill="#4697DD" fill-opacity="0.35"/>
<path d="M58.6286 48.2857C59.8605 48.2857 60.8591 47.2813 60.8591 46.0423C60.8591 44.8032 59.8605 43.7988 58.6286 43.7988C57.3968 43.7988 56.3981 44.8032 56.3981 46.0423C56.3981 47.2813 57.3968 48.2857 58.6286 48.2857Z" fill="#4697DD" fill-opacity="0.35"/>
<path d="M58.6286 55.1441C59.8605 55.1441 60.8591 54.1397 60.8591 52.9007C60.8591 51.6617 59.8605 50.6572 58.6286 50.6572C57.3968 50.6572 56.3981 51.6617 56.3981 52.9007C56.3981 54.1397 57.3968 55.1441 58.6286 55.1441Z" fill="#4697DD" fill-opacity="0.35"/>
<path d="M58.6286 61.2145C59.8605 61.2145 60.8591 60.21 60.8591 58.971C60.8591 57.732 59.8605 56.7275 58.6286 56.7275C57.3968 56.7275 56.3981 57.732 56.3981 58.971C56.3981 60.21 57.3968 61.2145 58.6286 61.2145Z" fill="#4697DD" fill-opacity="0.35"/>
<path d="M65.186 61.2145C66.4179 61.2145 67.4165 60.21 67.4165 58.971C67.4165 57.732 66.4179 56.7275 65.186 56.7275C63.9542 56.7275 62.9556 57.732 62.9556 58.971C62.9556 60.21 63.9542 61.2145 65.186 61.2145Z" fill="#4697DD" fill-opacity="0.35"/>
<path d="M71.2193 61.2145C72.4512 61.2145 73.4498 60.21 73.4498 58.971C73.4498 57.732 72.4512 56.7275 71.2193 56.7275C69.9875 56.7275 68.9888 57.732 68.9888 58.971C68.9888 60.21 69.9875 61.2145 71.2193 61.2145Z" fill="#4697DD" fill-opacity="0.35"/>
<path d="M71.2193 55.1441C72.4512 55.1441 73.4498 54.1397 73.4498 52.9007C73.4498 51.6617 72.4512 50.6572 71.2193 50.6572C69.9875 50.6572 68.9888 51.6617 68.9888 52.9007C68.9888 54.1397 69.9875 55.1441 71.2193 55.1441Z" fill="#4697DD" fill-opacity="0.35"/>
<path d="M77.7787 55.1441C79.0106 55.1441 80.0092 54.1397 80.0092 52.9007C80.0092 51.6617 79.0106 50.6572 77.7787 50.6572C76.5469 50.6572 75.5482 51.6617 75.5482 52.9007C75.5482 54.1397 76.5469 55.1441 77.7787 55.1441Z" fill="#4697DD" fill-opacity="0.35"/>
<path d="M65.186 55.1441C66.4179 55.1441 67.4165 54.1397 67.4165 52.9007C67.4165 51.6617 66.4179 50.6572 65.186 50.6572C63.9542 50.6572 62.9556 51.6617 62.9556 52.9007C62.9556 54.1397 63.9542 55.1441 65.186 55.1441Z" fill="#4697DD" fill-opacity="0.35"/>
<path d="M65.186 68.0748C66.4179 68.0748 67.4165 67.0704 67.4165 65.8314C67.4165 64.5923 66.4179 63.5879 65.186 63.5879C63.9542 63.5879 62.9556 64.5923 62.9556 65.8314C62.9556 67.0704 63.9542 68.0748 65.186 68.0748Z" fill="#4697DD" fill-opacity="0.35"/>
<path d="M71.2193 68.0748C72.4512 68.0748 73.4498 67.0704 73.4498 65.8314C73.4498 64.5923 72.4512 63.5879 71.2193 63.5879C69.9875 63.5879 68.9888 64.5923 68.9888 65.8314C68.9888 67.0704 69.9875 68.0748 71.2193 68.0748Z" fill="#4697DD" fill-opacity="0.35"/>
<path d="M77.5166 68.0748C78.7485 68.0748 79.7471 67.0704 79.7471 65.8314C79.7471 64.5923 78.7485 63.5879 77.5166 63.5879C76.2848 63.5879 75.2862 64.5923 75.2862 65.8314C75.2862 67.0704 76.2848 68.0748 77.5166 68.0748Z" fill="#4697DD" fill-opacity="0.35"/>
<path d="M84.3361 68.0748C85.568 68.0748 86.5666 67.0704 86.5666 65.8314C86.5666 64.5923 85.568 63.5879 84.3361 63.5879C83.1043 63.5879 82.1057 64.5923 82.1057 65.8314C82.1057 67.0704 83.1043 68.0748 84.3361 68.0748Z" fill="#4697DD" fill-opacity="0.35"/>
<path d="M90.6315 68.0748C91.8633 68.0748 92.862 67.0704 92.862 65.8314C92.862 64.5923 91.8633 63.5879 90.6315 63.5879C89.3996 63.5879 88.401 64.5923 88.401 65.8314C88.401 67.0704 89.3996 68.0748 90.6315 68.0748Z" fill="#4697DD" fill-opacity="0.35"/>
<path d="M77.5166 61.2145C78.7485 61.2145 79.7471 60.21 79.7471 58.971C79.7471 57.732 78.7485 56.7275 77.5166 56.7275C76.2848 56.7275 75.2862 57.732 75.2862 58.971C75.2862 60.21 76.2848 61.2145 77.5166 61.2145Z" fill="#4697DD" fill-opacity="0.35"/>
<path d="M84.3361 61.2145C85.568 61.2145 86.5666 60.21 86.5666 58.971C86.5666 57.732 85.568 56.7275 84.3361 56.7275C83.1043 56.7275 82.1057 57.732 82.1057 58.971C82.1057 60.21 83.1043 61.2145 84.3361 61.2145Z" fill="#4697DD" fill-opacity="0.35"/>
<path d="M84.3361 55.1441C85.568 55.1441 86.5666 54.1397 86.5666 52.9007C86.5666 51.6617 85.568 50.6572 84.3361 50.6572C83.1043 50.6572 82.1057 51.6617 82.1057 52.9007C82.1057 54.1397 83.1043 55.1441 84.3361 55.1441Z" fill="#4697DD" fill-opacity="0.35"/>
<path d="M90.6315 61.2145C91.8633 61.2145 92.862 60.21 92.862 58.971C92.862 57.732 91.8633 56.7275 90.6315 56.7275C89.3996 56.7275 88.401 57.732 88.401 58.971C88.401 60.21 89.3996 61.2145 90.6315 61.2145Z" fill="#4697DD" fill-opacity="0.35"/>
<path d="M90.3694 55.1441C91.6013 55.1441 92.5999 54.1397 92.5999 52.9007C92.5999 51.6617 91.6013 50.6572 90.3694 50.6572C89.1375 50.6572 88.1389 51.6617 88.1389 52.9007C88.1389 54.1397 89.1375 55.1441 90.3694 55.1441Z" fill="#4697DD" fill-opacity="0.35"/>
<path d="M90.8936 48.2857C92.1254 48.2857 93.124 47.2813 93.124 46.0423C93.124 44.8032 92.1254 43.7988 90.8936 43.7988C89.6617 43.7988 88.6631 44.8032 88.6631 46.0423C88.6631 47.2813 89.6617 48.2857 90.8936 48.2857Z" fill="#4697DD" fill-opacity="0.35"/>
<path d="M90.8936 42.2174C92.1254 42.2174 93.124 41.213 93.124 39.9739C93.124 38.7349 92.1254 37.7305 90.8936 37.7305C89.6617 37.7305 88.6631 38.7349 88.6631 39.9739C88.6631 41.213 89.6617 42.2174 90.8936 42.2174Z" fill="#4697DD" fill-opacity="0.35"/>
<path d="M84.3361 42.2174C85.568 42.2174 86.5666 41.213 86.5666 39.9739C86.5666 38.7349 85.568 37.7305 84.3361 37.7305C83.1043 37.7305 82.1057 38.7349 82.1057 39.9739C82.1057 41.213 83.1043 42.2174 84.3361 42.2174Z" fill="#4697DD" fill-opacity="0.35"/>
<path d="M84.3361 48.2857C85.568 48.2857 86.5666 47.2813 86.5666 46.0423C86.5666 44.8032 85.568 43.7988 84.3361 43.7988C83.1043 43.7988 82.1057 44.8032 82.1057 46.0423C82.1057 47.2813 83.1043 48.2857 84.3361 48.2857Z" fill="#4697DD" fill-opacity="0.35"/>
<path d="M77.5166 42.2174C78.7485 42.2174 79.7471 41.213 79.7471 39.9739C79.7471 38.7349 78.7485 37.7305 77.5166 37.7305C76.2848 37.7305 75.2862 38.7349 75.2862 39.9739C75.2862 41.213 76.2848 42.2174 77.5166 42.2174Z" fill="#4697DD" fill-opacity="0.35"/>
<path d="M77.7787 48.2857C79.0106 48.2857 80.0092 47.2813 80.0092 46.0423C80.0092 44.8032 79.0106 43.7988 77.7787 43.7988C76.5469 43.7988 75.5482 44.8032 75.5482 46.0423C75.5482 47.2813 76.5469 48.2857 77.7787 48.2857Z" fill="#4697DD" fill-opacity="0.35"/>
<path d="M71.2193 42.2174C72.4512 42.2174 73.4498 41.213 73.4498 39.9739C73.4498 38.7349 72.4512 37.7305 71.2193 37.7305C69.9875 37.7305 68.9888 38.7349 68.9888 39.9739C68.9888 41.213 69.9875 42.2174 71.2193 42.2174Z" fill="#4697DD" fill-opacity="0.35"/>
<path d="M71.2193 48.2857C72.4512 48.2857 73.4498 47.2813 73.4498 46.0423C73.4498 44.8032 72.4512 43.7988 71.2193 43.7988C69.9875 43.7988 68.9888 44.8032 68.9888 46.0423C68.9888 47.2813 69.9875 48.2857 71.2193 48.2857Z" fill="#4697DD" fill-opacity="0.35"/>
<path d="M64.924 42.2174C66.1558 42.2174 67.1544 41.213 67.1544 39.9739C67.1544 38.7349 66.1558 37.7305 64.924 37.7305C63.6921 37.7305 62.6935 38.7349 62.6935 39.9739C62.6935 41.213 63.6921 42.2174 64.924 42.2174Z" fill="#4697DD" fill-opacity="0.35"/>
<path d="M64.924 48.2857C66.1558 48.2857 67.1544 47.2813 67.1544 46.0423C67.1544 44.8032 66.1558 43.7988 64.924 43.7988C63.6921 43.7988 62.6935 44.8032 62.6935 46.0423C62.6935 47.2813 63.6921 48.2857 64.924 48.2857Z" fill="#4697DD" fill-opacity="0.35"/>
<path d="M64.924 35.3563C65.8653 35.3563 66.6284 34.5888 66.6284 33.642C66.6284 32.6952 65.8653 31.9277 64.924 31.9277C63.9827 31.9277 63.2196 32.6952 63.2196 33.642C63.2196 34.5888 63.9827 35.3563 64.924 35.3563Z" fill="#4697DD" fill-opacity="0.35"/>
<path d="M58.6286 35.3563C59.5699 35.3563 60.333 34.5888 60.333 33.642C60.333 32.6952 59.5699 31.9277 58.6286 31.9277C57.6873 31.9277 56.9242 32.6952 56.9242 33.642C56.9242 34.5888 57.6873 35.3563 58.6286 35.3563Z" fill="#4697DD" fill-opacity="0.35"/>
<path fill-rule="evenodd" clip-rule="evenodd" d="M91.6217 26.8894C91.2796 26.9759 90.7295 27.1751 90.4015 27.332C90.0734 27.487 89.5233 27.8773 89.1792 28.1992C88.8331 28.5212 88.403 29.0664 88.215 29.4206C88.0289 29.7707 87.8029 30.3461 87.7109 30.6962C87.6209 31.0483 87.5468 31.7063 87.5468 32.159C87.5468 32.6117 87.6189 33.2616 87.7069 33.5996C87.7929 33.9397 87.9729 34.4467 88.105 34.7264C88.235 35.0081 88.6251 35.5393 88.9671 35.9095C89.3192 36.2878 89.8653 36.7264 90.2174 36.9155C90.5615 37.0986 91.1336 37.334 91.4897 37.4387C91.9078 37.5634 92.5019 37.6298 93.164 37.6298C93.8262 37.6298 94.4223 37.5634 94.8404 37.4387C95.1965 37.334 95.7646 37.1006 96.1047 36.9196C96.4427 36.7385 97.0169 36.2918 97.379 35.9276C97.781 35.5232 98.1571 35.0101 98.3452 34.6097C98.5152 34.2475 98.7072 33.6942 98.7712 33.3763C98.8373 33.0604 98.8913 32.495 98.8913 32.1228C98.8913 31.7505 98.8173 31.157 98.7252 30.8049C98.6352 30.4548 98.4152 29.8914 98.2371 29.5554C98.0591 29.2194 97.709 28.7324 97.457 28.4709C97.2069 28.2093 96.7528 27.835 96.4488 27.6379C96.1447 27.4427 95.5846 27.1751 95.2065 27.0463C94.7224 26.8793 94.1743 26.7968 93.3801 26.7687C92.6179 26.7425 92.0418 26.7807 91.6217 26.8894ZM19.1522 51.4507V72.5876H34.5495H49.9448V68.2938V64.002H39.5725H29.2003V59.5453V55.0906H37.8982H46.596V51.1771V47.2656H37.8982H29.2003V43.1369V39.0061H39.5725H49.9448V34.66V30.3119H34.5495H19.1522V51.4507ZM114.343 42.2737C113.658 42.322 112.602 42.4608 111.994 42.5856C111.386 42.7103 110.536 42.9417 110.104 43.0966C109.672 43.2535 109.025 43.5272 108.669 43.7063C108.313 43.8853 107.729 44.2395 107.373 44.495C107.017 44.7485 106.451 45.2475 106.115 45.6017C105.781 45.9578 105.325 46.5312 105.105 46.8793C104.883 47.2254 104.56 47.8149 104.388 48.1872C104.214 48.5574 103.998 49.2194 103.908 49.656C103.818 50.0926 103.744 50.9739 103.744 51.6157C103.746 52.2556 103.822 53.165 103.916 53.6358C104.012 54.1228 104.288 54.9155 104.554 55.4709C104.811 56.0081 105.245 56.7526 105.517 57.1208C105.789 57.491 106.327 58.0564 106.713 58.3743C107.097 58.6942 107.785 59.1691 108.239 59.4326C108.695 59.6942 109.622 60.1208 110.298 60.3803C110.974 60.6399 112.196 61.0423 113.016 61.2777C113.834 61.5111 115.137 61.8813 115.909 62.1006C116.681 62.3179 117.643 62.6721 118.047 62.8854C118.449 63.0966 118.888 63.4246 119.02 63.6097C119.184 63.8431 119.258 64.1047 119.258 64.4568C119.258 64.8008 119.186 65.0624 119.032 65.2717C118.908 65.4407 118.618 65.6861 118.387 65.8169C118.155 65.9477 117.625 66.1127 117.209 66.1851C116.727 66.2656 115.955 66.2898 115.099 66.2475C114.357 66.2093 113.31 66.0825 112.776 65.9618C112.24 65.8431 111.244 65.5614 110.56 65.3381C109.878 65.1147 108.627 64.5835 107.785 64.159L106.251 63.3884L105.443 65.2435C104.997 66.2636 104.334 67.7505 103.968 68.5473C103.604 69.3441 103.33 70.0624 103.36 70.1429C103.392 70.2254 103.772 70.489 104.206 70.7324C104.641 70.9759 105.491 71.3703 106.095 71.6097C106.699 71.8471 107.647 72.167 108.201 72.318C108.755 72.4668 109.894 72.7103 110.728 72.8552C111.562 73.002 113.02 73.1791 113.969 73.2495C114.971 73.324 116.417 73.3481 117.421 73.3079C118.373 73.2717 119.636 73.167 120.232 73.0785C120.826 72.99 121.554 72.8612 121.852 72.7948C122.148 72.7284 122.732 72.5735 123.148 72.4507C123.565 72.328 124.303 72.0463 124.789 71.8209C125.275 71.5976 125.907 71.2536 126.193 71.0564C126.479 70.8612 127.017 70.4346 127.389 70.1087C127.761 69.7827 128.288 69.1811 128.56 68.7707C128.83 68.3602 129.172 67.7203 129.316 67.3461C129.462 66.9739 129.66 66.2797 129.756 65.8029C129.888 65.1409 129.916 64.5775 129.87 63.4105C129.828 62.318 129.744 61.6499 129.578 61.0685C129.452 60.6218 129.168 59.9135 128.95 59.497C128.732 59.0805 128.262 58.4226 127.904 58.0383C127.545 57.654 126.937 57.0986 126.551 56.8049C126.165 56.5091 125.363 56.0262 124.769 55.7324C124.175 55.4367 123.044 54.9779 122.254 54.7103C121.466 54.4447 119.838 53.9759 118.636 53.6701C117.433 53.3622 116.079 52.9699 115.627 52.7948C115.131 52.6037 114.649 52.326 114.415 52.0986C114.189 51.8773 113.999 51.5695 113.959 51.3542C113.915 51.1127 113.951 50.8733 114.061 50.658C114.155 50.4769 114.359 50.2254 114.517 50.1006C114.675 49.9759 115.043 49.8028 115.337 49.7143C115.629 49.6278 116.217 49.5232 116.645 49.4849C117.071 49.4467 117.957 49.4709 118.61 49.5413C119.264 49.6117 120.256 49.7686 120.816 49.8894C121.374 50.0121 122.322 50.2817 122.922 50.489C123.523 50.6962 124.553 51.1328 125.213 51.4568C125.873 51.7827 126.459 52.0483 126.515 52.0483C126.571 52.0483 126.817 51.5453 127.061 50.9336C127.307 50.32 127.944 48.7445 128.478 47.4306C129.014 46.1147 129.426 45.0021 129.398 44.9558C129.37 44.9095 129.118 44.7546 128.84 44.6137C128.562 44.4729 127.855 44.1791 127.271 43.9598C126.687 43.7405 125.521 43.3944 124.679 43.1912C123.837 42.986 122.46 42.7204 121.618 42.5976C120.776 42.4729 119.148 42.326 117.999 42.2676C116.849 42.2093 115.837 42.167 115.747 42.1751C115.657 42.1831 115.025 42.2274 114.343 42.2737ZM53.0794 43.0383C53.0794 43.1027 53.1695 43.2858 53.2775 43.4447C53.3875 43.6037 54.3437 45.1771 55.4039 46.9397C56.4622 48.7023 57.8485 50.9518 58.4806 51.9397C59.1127 52.9256 60.155 54.6036 60.7931 55.6721C61.4312 56.7385 61.9293 57.6761 61.8993 57.7546C61.8693 57.833 61.0952 59.1127 60.179 60.5976C59.2648 62.0805 57.2623 65.326 55.732 67.8049C54.2017 70.2857 52.8994 72.3763 52.8394 72.4507C52.7514 72.5594 53.8576 72.5876 58.3066 72.5876H63.8838L64.1818 72.0363C64.3439 71.7324 64.6899 71.1087 64.948 70.6499C65.2061 70.1912 66.1202 68.4346 66.9824 66.7465C67.8426 65.0584 68.5868 63.6761 68.6328 63.6761C68.6788 63.6761 69.4249 65.0584 70.2891 66.7465C71.1553 68.4346 72.1695 70.4407 72.5436 71.2012L73.2258 72.5876H78.819C81.8956 72.5876 84.4122 72.5634 84.4122 72.5332C84.4122 72.5031 82.2217 69.1952 79.5431 65.1831C76.8625 61.1711 74.6481 57.827 74.6201 57.7526C74.5901 57.6761 74.9981 56.9598 75.5263 56.163C76.0564 55.3642 77.9948 52.4608 79.8372 49.7103C81.6816 46.9618 83.44 44.3481 83.746 43.9055C84.0541 43.4608 84.3041 43.0564 84.3041 43.0081C84.3041 42.9578 81.7876 42.9195 78.7109 42.9195H73.1177L72.5396 44.0866C72.2215 44.7284 71.5234 46.0866 70.9873 47.1027C70.4492 48.1187 69.723 49.501 69.3709 50.1731C69.0189 50.8451 68.6928 51.3944 68.6448 51.3944C68.5968 51.3944 67.9626 50.2334 67.2365 48.8149C66.5083 47.3944 65.5181 45.489 65.034 44.5795L64.1538 42.9256L58.6166 42.9216C54.6718 42.9195 53.0794 42.9538 53.0794 43.0383ZM88.195 57.7526V72.5876H93.11H98.0271V57.7526V42.9195H93.11H88.195V57.7526Z" fill="#191D25"/>
</g>
<path d="M158.004 41.8182H159.834V48.7585H159.928L164.716 41.8182H166.371V52H164.527V45.0646H164.442L159.64 52H158.004V41.8182ZM173.547 47.4361V48.9126H169.48V47.4361H173.547ZM170.037 44.3636V52H168.302V44.3636H170.037ZM174.725 44.3636V52H172.995V44.3636H174.725ZM175.691 45.8402V44.3636H182.373V45.8402H179.902V52H178.162V45.8402H175.691ZM186.872 52.1491C186.106 52.1491 185.445 51.9901 184.888 51.6719C184.335 51.3504 183.909 50.8963 183.61 50.3097C183.312 49.7197 183.163 49.0253 183.163 48.2266C183.163 47.4411 183.312 46.7517 183.61 46.1584C183.912 45.5618 184.333 45.0978 184.873 44.7663C185.413 44.4316 186.048 44.2642 186.777 44.2642C187.248 44.2642 187.692 44.3404 188.11 44.4929C188.531 44.642 188.902 44.8741 189.223 45.1889C189.548 45.5038 189.803 45.9048 189.989 46.392C190.175 46.8759 190.267 47.4527 190.267 48.1222V48.674H184.008V47.4609H188.542C188.539 47.1162 188.464 46.8097 188.319 46.5412C188.173 46.2694 187.969 46.0556 187.707 45.8999C187.449 45.7441 187.147 45.6662 186.802 45.6662C186.434 45.6662 186.111 45.7557 185.833 45.9347C185.554 46.1103 185.337 46.3423 185.181 46.6307C185.029 46.9157 184.951 47.2289 184.948 47.5703V48.6293C184.948 49.0734 185.029 49.4545 185.191 49.7727C185.354 50.0876 185.581 50.3295 185.873 50.4986C186.164 50.6643 186.506 50.7472 186.897 50.7472C187.158 50.7472 187.395 50.7107 187.608 50.6378C187.82 50.5616 188.004 50.4505 188.159 50.3047C188.315 50.1589 188.433 49.9782 188.512 49.7628L190.193 49.9517C190.087 50.3958 189.885 50.7836 189.586 51.1151C189.291 51.4432 188.913 51.6984 188.453 51.8807C187.992 52.0597 187.465 52.1491 186.872 52.1491ZM196.841 44.3636V45.8402H193.55V52H191.79V44.3636H196.841ZM198.284 54.8636V44.3636H200.054V45.6264H200.158C200.251 45.4408 200.382 45.2436 200.551 45.0348C200.72 44.8227 200.949 44.642 201.237 44.4929C201.526 44.3404 201.893 44.2642 202.341 44.2642C202.931 44.2642 203.463 44.415 203.937 44.7166C204.414 45.0149 204.792 45.4574 205.07 46.044C205.352 46.6274 205.493 47.3433 205.493 48.1918C205.493 49.0303 205.355 49.7429 205.08 50.3295C204.805 50.9162 204.431 51.3636 203.957 51.6719C203.483 51.9801 202.946 52.1342 202.346 52.1342C201.908 52.1342 201.545 52.0613 201.257 51.9155C200.969 51.7696 200.737 51.594 200.561 51.3885C200.389 51.1797 200.254 50.9825 200.158 50.7969H200.084V54.8636H198.284ZM200.049 48.1818C200.049 48.6757 200.119 49.1082 200.258 49.4794C200.4 49.8506 200.604 50.1406 200.869 50.3494C201.138 50.5549 201.463 50.6577 201.844 50.6577C202.241 50.6577 202.575 50.5516 202.843 50.3395C203.112 50.1241 203.314 49.8307 203.45 49.4595C203.589 49.085 203.658 48.6591 203.658 48.1818C203.658 47.7079 203.59 47.2869 203.455 46.919C203.319 46.5511 203.116 46.2628 202.848 46.054C202.58 45.8452 202.245 45.7408 201.844 45.7408C201.459 45.7408 201.133 45.8419 200.864 46.044C200.596 46.2462 200.392 46.5296 200.253 46.8942C200.117 47.2588 200.049 47.688 200.049 48.1818ZM209.232 52.1541C208.748 52.1541 208.312 52.0679 207.924 51.8956C207.54 51.7199 207.235 51.4614 207.009 51.12C206.787 50.7786 206.676 50.3577 206.676 49.8572C206.676 49.4264 206.756 49.0701 206.915 48.7884C207.074 48.5066 207.291 48.2812 207.566 48.1122C207.841 47.9432 208.151 47.8156 208.496 47.7294C208.844 47.6399 209.203 47.5753 209.575 47.5355C210.022 47.4891 210.385 47.4477 210.663 47.4112C210.942 47.3714 211.144 47.3118 211.27 47.2322C211.399 47.1494 211.464 47.0218 211.464 46.8494V46.8196C211.464 46.4451 211.353 46.1551 211.131 45.9496C210.909 45.7441 210.589 45.6413 210.171 45.6413C209.73 45.6413 209.381 45.7375 209.122 45.9297C208.867 46.1219 208.695 46.349 208.605 46.6108L206.925 46.3722C207.057 45.9081 207.276 45.5204 207.581 45.2088C207.886 44.8939 208.259 44.6586 208.7 44.5028C209.14 44.3438 209.628 44.2642 210.161 44.2642C210.529 44.2642 210.895 44.3073 211.26 44.3935C211.625 44.4796 211.958 44.6222 212.259 44.821C212.561 45.0166 212.803 45.2834 212.985 45.6214C213.171 45.9595 213.263 46.3821 213.263 46.8892V52H211.533V50.951H211.474C211.364 51.1631 211.21 51.362 211.011 51.5476C210.816 51.7299 210.569 51.8774 210.271 51.9901C209.976 52.0994 209.629 52.1541 209.232 52.1541ZM209.699 50.8317C210.06 50.8317 210.373 50.7604 210.638 50.6179C210.904 50.4721 211.107 50.2798 211.25 50.0412C211.396 49.8026 211.469 49.5424 211.469 49.2607V48.3608C211.412 48.4072 211.316 48.4503 211.18 48.4901C211.048 48.5298 210.899 48.5646 210.733 48.5945C210.567 48.6243 210.403 48.6508 210.241 48.674C210.078 48.6972 209.938 48.7171 209.818 48.7337C209.55 48.7701 209.309 48.8298 209.097 48.9126C208.885 48.9955 208.718 49.1115 208.595 49.2607C208.473 49.4065 208.411 49.5954 208.411 49.8274C208.411 50.1589 208.532 50.4091 208.774 50.5781C209.016 50.7472 209.324 50.8317 209.699 50.8317ZM221.521 44.3636V50.6577H222.69V54.456H220.93V52H215.073V44.3636H216.808V50.5234H219.801V44.3636H221.521ZM225.9 49.5639L228.958 44.3636H230.807V52H229.067V46.7947L226.019 52H224.165V44.3636H225.9V49.5639ZM235.986 52.1491C235.24 52.1491 234.594 51.9851 234.047 51.657C233.5 51.3288 233.076 50.8698 232.775 50.2798C232.476 49.6899 232.327 49.0005 232.327 48.2116C232.327 47.4228 232.476 46.7318 232.775 46.1385C233.076 45.5452 233.5 45.0845 234.047 44.7564C234.594 44.4283 235.24 44.2642 235.986 44.2642C236.732 44.2642 237.378 44.4283 237.925 44.7564C238.472 45.0845 238.895 45.5452 239.193 46.1385C239.494 46.7318 239.645 47.4228 239.645 48.2116C239.645 49.0005 239.494 49.6899 239.193 50.2798C238.895 50.8698 238.472 51.3288 237.925 51.657C237.378 51.9851 236.732 52.1491 235.986 52.1491ZM235.996 50.7074C236.4 50.7074 236.739 50.5964 237.01 50.3743C237.282 50.1489 237.484 49.8473 237.617 49.4695C237.753 49.0916 237.821 48.6707 237.821 48.2067C237.821 47.7393 237.753 47.3168 237.617 46.9389C237.484 46.5578 237.282 46.2545 237.01 46.0291C236.739 45.8037 236.4 45.6911 235.996 45.6911C235.582 45.6911 235.237 45.8037 234.962 46.0291C234.69 46.2545 234.486 46.5578 234.35 46.9389C234.218 47.3168 234.152 47.7393 234.152 48.2067C234.152 48.6707 234.218 49.0916 234.35 49.4695C234.486 49.8473 234.69 50.1489 234.962 50.3743C235.237 50.5964 235.582 50.7074 235.996 50.7074ZM246.418 47.4361V48.9126H242.351V47.4361H246.418ZM242.908 44.3636V52H241.173V44.3636H242.908ZM247.596 44.3636V52H245.866V44.3636H247.596ZM254.662 47.4361V48.9126H250.595V47.4361H254.662ZM251.152 44.3636V52H249.417V44.3636H251.152ZM255.84 44.3636V52H254.11V44.3636H255.84ZM258.879 46.8494H261.131C262.106 46.8494 262.86 47.0864 263.393 47.5604C263.927 48.0343 264.195 48.6558 264.199 49.4247C264.195 49.9252 264.073 50.3693 263.831 50.7571C263.592 51.1449 263.244 51.4498 262.787 51.6719C262.333 51.8906 261.781 52 261.131 52H257.661V44.3636H259.396V50.5234H261.131C261.522 50.5234 261.844 50.424 262.096 50.2251C262.348 50.023 262.474 49.7644 262.474 49.4496C262.474 49.1181 262.348 48.848 262.096 48.6392C261.844 48.4304 261.522 48.326 261.131 48.326H258.879V46.8494ZM265.148 52V44.3636H266.948V52H265.148ZM272.184 52.1491C271.419 52.1491 270.757 51.9901 270.201 51.6719C269.647 51.3504 269.221 50.8963 268.923 50.3097C268.625 49.7197 268.475 49.0253 268.475 48.2266C268.475 47.4411 268.625 46.7517 268.923 46.1584C269.225 45.5618 269.645 45.0978 270.186 44.7663C270.726 44.4316 271.361 44.2642 272.09 44.2642C272.56 44.2642 273.005 44.3404 273.422 44.4929C273.843 44.642 274.214 44.8741 274.536 45.1889C274.861 45.5038 275.116 45.9048 275.301 46.392C275.487 46.8759 275.58 47.4527 275.58 48.1222V48.674H269.321V47.4609H273.855C273.851 47.1162 273.777 46.8097 273.631 46.5412C273.485 46.2694 273.281 46.0556 273.02 45.8999C272.761 45.7441 272.459 45.6662 272.115 45.6662C271.747 45.6662 271.424 45.7557 271.145 45.9347C270.867 46.1103 270.65 46.3423 270.494 46.6307C270.342 46.9157 270.264 47.2289 270.26 47.5703V48.6293C270.26 49.0734 270.342 49.4545 270.504 49.7727C270.666 50.0876 270.893 50.3295 271.185 50.4986C271.477 50.6643 271.818 50.7472 272.209 50.7472C272.471 50.7472 272.708 50.7107 272.92 50.6378C273.132 50.5616 273.316 50.4505 273.472 50.3047C273.628 50.1589 273.745 49.9782 273.825 49.7628L275.505 49.9517C275.399 50.3958 275.197 50.7836 274.899 51.1151C274.604 51.4432 274.226 51.6984 273.765 51.8807C273.305 52.0597 272.778 52.1491 272.184 52.1491ZM157.925 72.8636V62.3636H159.695V63.6264H159.799C159.892 63.4408 160.023 63.2436 160.192 63.0348C160.361 62.8227 160.589 62.642 160.878 62.4929C161.166 62.3404 161.534 62.2642 161.982 62.2642C162.571 62.2642 163.103 62.415 163.577 62.7166C164.055 63.0149 164.433 63.4574 164.711 64.044C164.993 64.6274 165.134 65.3433 165.134 66.1918C165.134 67.0303 164.996 67.7429 164.721 68.3295C164.446 68.9162 164.071 69.3636 163.597 69.6719C163.123 69.9801 162.586 70.1342 161.987 70.1342C161.549 70.1342 161.186 70.0613 160.898 69.9155C160.609 69.7696 160.377 69.594 160.202 69.3885C160.029 69.1797 159.895 68.9825 159.799 68.7969H159.724V72.8636H157.925ZM159.69 66.1818C159.69 66.6757 159.759 67.1082 159.898 67.4794C160.041 67.8506 160.245 68.1406 160.51 68.3494C160.778 68.5549 161.103 68.6577 161.484 68.6577C161.882 68.6577 162.215 68.5516 162.484 68.3395C162.752 68.1241 162.954 67.8307 163.09 67.4595C163.229 67.085 163.299 66.6591 163.299 66.1818C163.299 65.7079 163.231 65.2869 163.095 64.919C162.959 64.5511 162.757 64.2628 162.489 64.054C162.22 63.8452 161.885 63.7408 161.484 63.7408C161.1 63.7408 160.773 63.8419 160.505 64.044C160.237 64.2462 160.033 64.5296 159.893 64.8942C159.758 65.2588 159.69 65.688 159.69 66.1818ZM170.055 70.1491C169.29 70.1491 168.629 69.9901 168.072 69.6719C167.518 69.3504 167.092 68.8963 166.794 68.3097C166.496 67.7197 166.347 67.0253 166.347 66.2266C166.347 65.4411 166.496 64.7517 166.794 64.1584C167.096 63.5618 167.517 63.0978 168.057 62.7663C168.597 62.4316 169.232 62.2642 169.961 62.2642C170.432 62.2642 170.876 62.3404 171.293 62.4929C171.714 62.642 172.085 62.8741 172.407 63.1889C172.732 63.5038 172.987 63.9048 173.173 64.392C173.358 64.8759 173.451 65.4527 173.451 66.1222V66.674H167.192V65.4609H171.726C171.723 65.1162 171.648 64.8097 171.502 64.5412C171.356 64.2694 171.152 64.0556 170.891 63.8999C170.632 63.7441 170.33 63.6662 169.986 63.6662C169.618 63.6662 169.295 63.7557 169.016 63.9347C168.738 64.1103 168.521 64.3423 168.365 64.6307C168.213 64.9157 168.135 65.2289 168.131 65.5703V66.6293C168.131 67.0734 168.213 67.4545 168.375 67.7727C168.537 68.0876 168.764 68.3295 169.056 68.4986C169.348 68.6643 169.689 68.7472 170.08 68.7472C170.342 68.7472 170.579 68.7107 170.791 68.6378C171.003 68.5616 171.187 68.4505 171.343 68.3047C171.499 68.1589 171.616 67.9782 171.696 67.7628L173.376 67.9517C173.27 68.3958 173.068 68.7836 172.77 69.1151C172.475 69.4432 172.097 69.6984 171.636 69.8807C171.176 70.0597 170.649 70.1491 170.055 70.1491ZM174.974 62.3636H176.709V68.5185H179.11V62.3636H180.845V68.5185H183.246V62.3636H184.981V70H174.974V62.3636ZM190.18 70.1491C189.415 70.1491 188.754 69.9901 188.197 69.6719C187.643 69.3504 187.217 68.8963 186.919 68.3097C186.621 67.7197 186.472 67.0253 186.472 66.2266C186.472 65.4411 186.621 64.7517 186.919 64.1584C187.221 63.5618 187.642 63.0978 188.182 62.7663C188.722 62.4316 189.357 62.2642 190.086 62.2642C190.557 62.2642 191.001 62.3404 191.418 62.4929C191.839 62.642 192.21 62.8741 192.532 63.1889C192.857 63.5038 193.112 63.9048 193.298 64.392C193.483 64.8759 193.576 65.4527 193.576 66.1222V66.674H187.317V65.4609H191.851C191.848 65.1162 191.773 64.8097 191.627 64.5412C191.481 64.2694 191.277 64.0556 191.016 63.8999C190.757 63.7441 190.455 63.6662 190.111 63.6662C189.743 63.6662 189.42 63.7557 189.141 63.9347C188.863 64.1103 188.646 64.3423 188.49 64.6307C188.338 64.9157 188.26 65.2289 188.256 65.5703V66.6293C188.256 67.0734 188.338 67.4545 188.5 67.7727C188.662 68.0876 188.889 68.3295 189.181 68.4986C189.473 68.6643 189.814 68.7472 190.205 68.7472C190.467 68.7472 190.704 68.7107 190.916 68.6378C191.128 68.5616 191.312 68.4505 191.468 68.3047C191.624 68.1589 191.741 67.9782 191.821 67.7628L193.501 67.9517C193.395 68.3958 193.193 68.7836 192.895 69.1151C192.6 69.4432 192.222 69.6984 191.761 69.8807C191.301 70.0597 190.774 70.1491 190.18 70.1491ZM200.344 65.4361V66.9126H196.277V65.4361H200.344ZM196.834 62.3636V70H195.099V62.3636H196.834ZM201.522 62.3636V70H199.792V62.3636H201.522ZM205.078 67.5639L208.135 62.3636H209.985V70H208.245V64.7947L205.197 70H203.343V62.3636H205.078V67.5639ZM216.347 70V63.8253H214.716C214.302 63.8253 213.984 63.9214 213.762 64.1136C213.54 64.3059 213.43 64.5445 213.434 64.8295C213.43 65.1146 213.535 65.3499 213.747 65.5355C213.959 65.7211 214.262 65.8139 214.657 65.8139H216.914V67.1264H214.657C214.047 67.1264 213.52 67.0303 213.076 66.8381C212.632 66.6458 212.29 66.3741 212.052 66.0227C211.813 65.6714 211.694 65.2604 211.694 64.7898C211.694 64.2992 211.815 63.8733 212.057 63.5121C212.302 63.1475 212.65 62.8658 213.101 62.6669C213.555 62.4647 214.093 62.3636 214.716 62.3636H218.032V70H216.347ZM211.415 70L213.548 66.0824H215.323L213.185 70H211.415Z" fill="#191D25"/>
<line x1="157" y1="29" x2="274" y2="29" stroke="#BEDBF3" stroke-width="2"/>
<defs>
<clipPath id="clip0_101_2469">
<rect width="149" height="100" fill="white"/>
</clipPath>
</defs>
</svg>
