<svg width="929" height="480" viewBox="0 0 929 480" fill="none" xmlns="http://www.w3.org/2000/svg">
<path d="M457.27 12.6712C460.748 12.6712 463.569 9.83472 463.569 6.33566C463.569 2.8366 460.748 0 457.27 0C453.791 0 450.971 2.8366 450.971 6.33566C450.971 9.83472 453.791 12.6712 457.27 12.6712Z" fill="#F0F7FC"/>
<path d="M426.413 44.3203C430.237 44.3203 433.336 41.2028 433.336 37.357C433.336 33.5112 430.237 30.3936 426.413 30.3936C422.59 30.3936 419.49 33.5112 419.49 37.357C419.49 41.2028 422.59 44.3203 426.413 44.3203Z" fill="#F0F7FC"/>
<path d="M426.413 75.9893C430.237 75.9893 433.336 72.8716 433.336 69.0258C433.336 65.1801 430.237 62.0625 426.413 62.0625C422.59 62.0625 419.49 65.1801 419.49 69.0258C419.49 72.8716 422.59 75.9893 426.413 75.9893Z" fill="#F0F7FC"/>
<path d="M426.415 106.382C430.934 106.382 434.596 102.698 434.596 98.1534C434.596 93.6089 430.934 89.9248 426.415 89.9248C421.897 89.9248 418.234 93.6089 418.234 98.1534C418.234 102.698 421.897 106.382 426.415 106.382Z" fill="#F0F7FC"/>
<path d="M426.415 138.041C430.934 138.041 434.596 134.357 434.596 129.813C434.596 125.268 430.934 121.584 426.415 121.584C421.897 121.584 418.234 125.268 418.234 129.813C418.234 134.357 421.897 138.041 426.415 138.041Z" fill="#F0F7FC"/>
<path d="M393.677 138.041C398.195 138.041 401.858 134.357 401.858 129.813C401.858 125.268 398.195 121.584 393.677 121.584C389.159 121.584 385.496 125.268 385.496 129.813C385.496 134.357 389.159 138.041 393.677 138.041Z" fill="#F0F7FC"/>
<path d="M393.677 170.976C398.195 170.976 401.858 167.292 401.858 162.747C401.858 158.203 398.195 154.519 393.677 154.519C389.159 154.519 385.496 158.203 385.496 162.747C385.496 167.292 389.159 170.976 393.677 170.976Z" fill="#F0F7FC"/>
<path d="M393.677 200.104C398.195 200.104 401.858 196.42 401.858 191.875C401.858 187.331 398.195 183.646 393.677 183.646C389.159 183.646 385.496 187.331 385.496 191.875C385.496 196.42 389.159 200.104 393.677 200.104Z" fill="#F0F7FC"/>
<path d="M393.677 229.231C398.195 229.231 401.858 225.547 401.858 221.003C401.858 216.458 398.195 212.774 393.677 212.774C389.159 212.774 385.496 216.458 385.496 221.003C385.496 225.547 389.159 229.231 393.677 229.231Z" fill="#F0F7FC"/>
<path d="M393.677 262.152C398.195 262.152 401.858 258.468 401.858 253.924C401.858 249.379 398.195 245.695 393.677 245.695C389.159 245.695 385.496 249.379 385.496 253.924C385.496 258.468 389.159 262.152 393.677 262.152Z" fill="#F0F7FC"/>
<path d="M393.677 291.294C398.195 291.294 401.858 287.61 401.858 283.065C401.858 278.521 398.195 274.837 393.677 274.837C389.159 274.837 385.496 278.521 385.496 283.065C385.496 287.61 389.159 291.294 393.677 291.294Z" fill="#F0F7FC"/>
<path d="M393.677 324.215C398.195 324.215 401.858 320.531 401.858 315.986C401.858 311.442 398.195 307.758 393.677 307.758C389.159 307.758 385.496 311.442 385.496 315.986C385.496 320.531 389.159 324.215 393.677 324.215Z" fill="#F0F7FC"/>
<path d="M393.677 355.874C398.195 355.874 401.858 352.19 401.858 347.646C401.858 343.101 398.195 339.417 393.677 339.417C389.159 339.417 385.496 343.101 385.496 347.646C385.496 352.19 389.159 355.874 393.677 355.874Z" fill="#F0F7FC"/>
<path d="M393.677 385.012C398.195 385.012 401.858 381.328 401.858 376.783C401.858 372.239 398.195 368.555 393.677 368.555C389.159 368.555 385.496 372.239 385.496 376.783C385.496 381.328 389.159 385.012 393.677 385.012Z" fill="#F0F7FC"/>
<path d="M426.415 385.012C430.934 385.012 434.596 381.328 434.596 376.783C434.596 372.239 430.934 368.555 426.415 368.555C421.897 368.555 418.234 372.239 418.234 376.783C418.234 381.328 421.897 385.012 426.415 385.012Z" fill="#F0F7FC"/>
<path d="M426.415 355.874C430.934 355.874 434.596 352.19 434.596 347.646C434.596 343.101 430.934 339.417 426.415 339.417C421.897 339.417 418.234 343.101 418.234 347.646C418.234 352.19 421.897 355.874 426.415 355.874Z" fill="#F0F7FC"/>
<path d="M459.152 355.874C463.67 355.874 467.333 352.19 467.333 347.646C467.333 343.101 463.67 339.417 459.152 339.417C454.633 339.417 450.971 343.101 450.971 347.646C450.971 352.19 454.633 355.874 459.152 355.874Z" fill="#F0F7FC"/>
<path d="M488.113 354.609C492.631 354.609 496.294 350.924 496.294 346.38C496.294 341.835 492.631 338.151 488.113 338.151C483.594 338.151 479.932 341.835 479.932 346.38C479.932 350.924 483.594 354.609 488.113 354.609Z" fill="#F0F7FC"/>
<path d="M518.337 355.874C522.855 355.874 526.518 352.19 526.518 347.646C526.518 343.101 522.855 339.417 518.337 339.417C513.819 339.417 510.156 343.101 510.156 347.646C510.156 352.19 513.819 355.874 518.337 355.874Z" fill="#F0F7FC"/>
<path d="M551.074 355.874C555.592 355.874 559.254 352.19 559.254 347.646C559.254 343.101 555.592 339.417 551.074 339.417C546.555 339.417 542.893 343.101 542.893 347.646C542.893 352.19 546.555 355.874 551.074 355.874Z" fill="#F0F7FC"/>
<path d="M426.415 324.215C430.934 324.215 434.596 320.531 434.596 315.986C434.596 311.442 430.934 307.758 426.415 307.758C421.897 307.758 418.234 311.442 418.234 315.986C418.234 320.531 421.897 324.215 426.415 324.215Z" fill="#F0F7FC"/>
<path d="M457.896 386.277C462.414 386.277 466.077 382.593 466.077 378.049C466.077 373.504 462.414 369.82 457.896 369.82C453.378 369.82 449.715 373.504 449.715 378.049C449.715 382.593 453.378 386.277 457.896 386.277Z" fill="#F0F7FC"/>
<path d="M489.378 386.277C493.896 386.277 497.559 382.593 497.559 378.049C497.559 373.504 493.896 369.82 489.378 369.82C484.86 369.82 481.197 373.504 481.197 378.049C481.197 382.593 484.86 386.277 489.378 386.277Z" fill="#F0F7FC"/>
<path d="M519.593 386.277C524.111 386.277 527.774 382.593 527.774 378.049C527.774 373.504 524.111 369.82 519.593 369.82C515.075 369.82 511.412 373.504 511.412 378.049C511.412 382.593 515.075 386.277 519.593 386.277Z" fill="#F0F7FC"/>
<path d="M549.808 386.277C554.326 386.277 557.989 382.593 557.989 378.049C557.989 373.504 554.326 369.82 549.808 369.82C545.29 369.82 541.627 373.504 541.627 378.049C541.627 382.593 545.29 386.277 549.808 386.277Z" fill="#F0F7FC"/>
<path d="M610.259 229.231C614.777 229.231 618.44 225.547 618.44 221.003C618.44 216.458 614.777 212.774 610.259 212.774C605.741 212.774 602.078 216.458 602.078 221.003C602.078 225.547 605.741 229.231 610.259 229.231Z" fill="#F0F7FC"/>
<path d="M610.259 259.626C614.777 259.626 618.44 255.942 618.44 251.398C618.44 246.853 614.777 243.169 610.259 243.169C605.741 243.169 602.078 246.853 602.078 251.398C602.078 255.942 605.741 259.626 610.259 259.626Z" fill="#F0F7FC"/>
<path d="M610.259 293.821C614.777 293.821 618.44 290.137 618.44 285.593C618.44 281.048 614.777 277.364 610.259 277.364C605.741 277.364 602.078 281.048 602.078 285.593C602.078 290.137 605.741 293.821 610.259 293.821Z" fill="#F0F7FC"/>
<path d="M610.259 326.746C614.777 326.746 618.44 323.062 618.44 318.518C618.44 313.973 614.777 310.289 610.259 310.289C605.741 310.289 602.078 313.973 602.078 318.518C602.078 323.062 605.741 326.746 610.259 326.746Z" fill="#F0F7FC"/>
<path d="M393.677 415.405C398.195 415.405 401.858 411.721 401.858 407.177C401.858 402.632 398.195 398.948 393.677 398.948C389.159 398.948 385.496 402.632 385.496 407.177C385.496 411.721 389.159 415.405 393.677 415.405Z" fill="#F0F7FC"/>
<path d="M362.197 138.041C366.715 138.041 370.378 134.357 370.378 129.813C370.378 125.268 366.715 121.584 362.197 121.584C357.678 121.584 354.016 125.268 354.016 129.813C354.016 134.357 357.678 138.041 362.197 138.041Z" fill="#F0F7FC"/>
<path d="M362.197 170.976C366.715 170.976 370.378 167.292 370.378 162.747C370.378 158.203 366.715 154.519 362.197 154.519C357.678 154.519 354.016 158.203 354.016 162.747C354.016 167.292 357.678 170.976 362.197 170.976Z" fill="#F0F7FC"/>
<path d="M362.197 200.104C366.715 200.104 370.378 196.42 370.378 191.875C370.378 187.331 366.715 183.646 362.197 183.646C357.678 183.646 354.016 187.331 354.016 191.875C354.016 196.42 357.678 200.104 362.197 200.104Z" fill="#F0F7FC"/>
<path d="M362.197 229.231C366.715 229.231 370.378 225.547 370.378 221.003C370.378 216.458 366.715 212.774 362.197 212.774C357.678 212.774 354.016 216.458 354.016 221.003C354.016 225.547 357.678 229.231 362.197 229.231Z" fill="#F0F7FC"/>
<path d="M362.197 262.152C366.715 262.152 370.378 258.468 370.378 253.924C370.378 249.379 366.715 245.695 362.197 245.695C357.678 245.695 354.016 249.379 354.016 253.924C354.016 258.468 357.678 262.152 362.197 262.152Z" fill="#F0F7FC"/>
<path d="M362.197 291.294C366.715 291.294 370.378 287.61 370.378 283.065C370.378 278.521 366.715 274.837 362.197 274.837C357.678 274.837 354.016 278.521 354.016 283.065C354.016 287.61 357.678 291.294 362.197 291.294Z" fill="#F0F7FC"/>
<path d="M362.197 324.215C366.715 324.215 370.378 320.531 370.378 315.986C370.378 311.442 366.715 307.758 362.197 307.758C357.678 307.758 354.016 311.442 354.016 315.986C354.016 320.531 357.678 324.215 362.197 324.215Z" fill="#F0F7FC"/>
<path d="M362.197 355.874C366.715 355.874 370.378 352.19 370.378 347.646C370.378 343.101 366.715 339.417 362.197 339.417C357.678 339.417 354.016 343.101 354.016 347.646C354.016 352.19 357.678 355.874 362.197 355.874Z" fill="#F0F7FC"/>
<path d="M362.197 385.012C366.715 385.012 370.378 381.328 370.378 376.783C370.378 372.239 366.715 368.555 362.197 368.555C357.678 368.555 354.016 372.239 354.016 376.783C354.016 381.328 357.678 385.012 362.197 385.012Z" fill="#F0F7FC"/>
<path d="M362.197 415.405C366.715 415.405 370.378 411.721 370.378 407.177C370.378 402.632 366.715 398.948 362.197 398.948C357.678 398.948 354.016 402.632 354.016 407.177C354.016 411.721 357.678 415.405 362.197 415.405Z" fill="#F0F7FC"/>
<path d="M487.486 12.6712C490.965 12.6712 493.785 9.83472 493.785 6.33566C493.785 2.8366 490.965 0 487.486 0C484.008 0 481.188 2.8366 481.188 6.33566C481.188 9.83472 484.008 12.6712 487.486 12.6712Z" fill="#F0F7FC"/>
<path d="M456.638 44.3203C460.461 44.3203 463.561 41.2028 463.561 37.357C463.561 33.5112 460.461 30.3936 456.638 30.3936C452.814 30.3936 449.715 33.5112 449.715 37.357C449.715 41.2028 452.814 44.3203 456.638 44.3203Z" fill="#F0F7FC"/>
<path d="M456.638 75.9893C460.461 75.9893 463.561 72.8716 463.561 69.0258C463.561 65.1801 460.461 62.0625 456.638 62.0625C452.814 62.0625 449.715 65.1801 449.715 69.0258C449.715 72.8716 452.814 75.9893 456.638 75.9893Z" fill="#F0F7FC"/>
<path d="M456.63 106.382C461.148 106.382 464.811 102.698 464.811 98.1534C464.811 93.6089 461.148 89.9248 456.63 89.9248C452.112 89.9248 448.449 93.6089 448.449 98.1534C448.449 102.698 452.112 106.382 456.63 106.382Z" fill="#F0F7FC"/>
<path d="M456.63 138.041C461.148 138.041 464.811 134.357 464.811 129.813C464.811 125.268 461.148 121.584 456.63 121.584C452.112 121.584 448.449 125.268 448.449 129.813C448.449 134.357 452.112 138.041 456.63 138.041Z" fill="#F0F7FC"/>
<path d="M517.701 12.6712C521.18 12.6712 524 9.83472 524 6.33566C524 2.8366 521.18 0 517.701 0C514.222 0 511.402 2.8366 511.402 6.33566C511.402 9.83472 514.222 12.6712 517.701 12.6712Z" fill="#F0F7FC"/>
<path d="M549.19 41.7913C551.274 41.7913 552.963 40.0919 552.963 37.9957C552.963 35.8995 551.274 34.2002 549.19 34.2002C547.106 34.2002 545.416 35.8995 545.416 37.9957C545.416 40.0919 547.106 41.7913 549.19 41.7913Z" fill="#F0F7FC"/>
<path d="M581.918 73.4592C584.702 73.4592 586.959 71.1891 586.959 68.3888C586.959 65.5885 584.702 63.3184 581.918 63.3184C579.134 63.3184 576.877 65.5885 576.877 68.3888C576.877 71.1891 579.134 73.4592 581.918 73.4592Z" fill="#F0F7FC"/>
<path d="M580.662 103.854C583.446 103.854 585.703 101.584 585.703 98.7833C585.703 95.983 583.446 93.7129 580.662 93.7129C577.878 93.7129 575.621 95.983 575.621 98.7833C575.621 101.584 577.878 103.854 580.662 103.854Z" fill="#F0F7FC"/>
<path d="M365.348 73.4592C368.132 73.4592 370.389 71.1891 370.389 68.3888C370.389 65.5885 368.132 63.3184 365.348 63.3184C362.564 63.3184 360.307 65.5885 360.307 68.3888C360.307 71.1891 362.564 73.4592 365.348 73.4592Z" fill="#F0F7FC"/>
<path d="M612.145 73.4592C614.929 73.4592 617.186 71.1891 617.186 68.3888C617.186 65.5885 614.929 63.3184 612.145 63.3184C609.36 63.3184 607.104 65.5885 607.104 68.3888C607.104 71.1891 609.36 73.4592 612.145 73.4592Z" fill="#F0F7FC"/>
<path d="M610.879 103.854C613.663 103.854 615.92 101.584 615.92 98.7833C615.92 95.983 613.663 93.7129 610.879 93.7129C608.095 93.7129 605.838 95.983 605.838 98.7833C605.838 101.584 608.095 103.854 610.879 103.854Z" fill="#F0F7FC"/>
<path d="M641.104 135.517C643.888 135.517 646.145 133.247 646.145 130.446C646.145 127.646 643.888 125.376 641.104 125.376C638.319 125.376 636.062 127.646 636.062 130.446C636.062 133.247 638.319 135.517 641.104 135.517Z" fill="#F0F7FC"/>
<path d="M641.104 165.915C643.888 165.915 646.145 163.645 646.145 160.845C646.145 158.045 643.888 155.774 641.104 155.774C638.319 155.774 636.062 158.045 636.062 160.845C636.062 163.645 638.319 165.915 641.104 165.915Z" fill="#F0F7FC"/>
<path d="M735.537 164.65C738.321 164.65 740.578 162.38 740.578 159.579C740.578 156.779 738.321 154.509 735.537 154.509C732.753 154.509 730.496 156.779 730.496 159.579C730.496 162.38 732.753 164.65 735.537 164.65Z" fill="#F0F7FC"/>
<path d="M676.363 164.65C679.147 164.65 681.404 162.38 681.404 159.579C681.404 156.779 679.147 154.509 676.363 154.509C673.579 154.509 671.322 156.779 671.322 159.579C671.322 162.38 673.579 164.65 676.363 164.65Z" fill="#F0F7FC"/>
<path d="M704.057 164.65C706.841 164.65 709.098 162.38 709.098 159.579C709.098 156.779 706.841 154.509 704.057 154.509C701.273 154.509 699.016 156.779 699.016 159.579C699.016 162.38 701.273 164.65 704.057 164.65Z" fill="#F0F7FC"/>
<path d="M735.537 197.571C738.321 197.571 740.578 195.3 740.578 192.5C740.578 189.7 738.321 187.43 735.537 187.43C732.753 187.43 730.496 189.7 730.496 192.5C730.496 195.3 732.753 197.571 735.537 197.571Z" fill="#F0F7FC"/>
<path d="M735.537 226.708C738.321 226.708 740.578 224.438 740.578 221.638C740.578 218.837 738.321 216.567 735.537 216.567C732.753 216.567 730.496 218.837 730.496 221.638C730.496 224.438 732.753 226.708 735.537 226.708Z" fill="#F0F7FC"/>
<path d="M735.537 257.102C738.321 257.102 740.578 254.832 740.578 252.031C740.578 249.231 738.321 246.961 735.537 246.961C732.753 246.961 730.496 249.231 730.496 252.031C730.496 254.832 732.753 257.102 735.537 257.102Z" fill="#F0F7FC"/>
<path d="M735.537 290.027C738.321 290.027 740.578 287.756 740.578 284.956C740.578 282.156 738.321 279.886 735.537 279.886C732.753 279.886 730.496 282.156 730.496 284.956C730.496 287.756 732.753 290.027 735.537 290.027Z" fill="#F0F7FC"/>
<path d="M735.537 321.696C738.321 321.696 740.578 319.425 740.578 316.625C740.578 313.825 738.321 311.555 735.537 311.555C732.753 311.555 730.496 313.825 730.496 316.625C730.496 319.425 732.753 321.696 735.537 321.696Z" fill="#F0F7FC"/>
<path d="M395.563 73.4592C398.347 73.4592 400.604 71.1891 400.604 68.3888C400.604 65.5885 398.347 63.3184 395.563 63.3184C392.778 63.3184 390.521 65.5885 390.521 68.3888C390.521 71.1891 392.778 73.4592 395.563 73.4592Z" fill="#F0F7FC"/>
<path d="M395.563 103.854C398.347 103.854 400.604 101.584 400.604 98.7833C400.604 95.983 398.347 93.7129 395.563 93.7129C392.778 93.7129 390.521 95.983 390.521 98.7833C390.521 101.584 392.778 103.854 395.563 103.854Z" fill="#F0F7FC"/>
<path d="M395.561 41.7913C397.645 41.7913 399.334 40.0919 399.334 37.9957C399.334 35.8995 397.645 34.2002 395.561 34.2002C393.477 34.2002 391.787 35.8995 391.787 37.9957C391.787 40.0919 393.477 41.7913 395.561 41.7913Z" fill="#F0F7FC"/>
<path d="M641.102 72.1849C643.186 72.1849 644.875 70.4856 644.875 68.3894C644.875 66.2931 643.186 64.5938 641.102 64.5938C639.018 64.5938 637.328 66.2931 637.328 68.3894C637.328 70.4856 639.018 72.1849 641.102 72.1849Z" fill="#F0F7FC"/>
<path d="M672.582 132.977C674.666 132.977 676.356 131.278 676.356 129.181C676.356 127.085 674.666 125.386 672.582 125.386C670.498 125.386 668.809 127.085 668.809 129.181C668.809 131.278 670.498 132.977 672.582 132.977Z" fill="#F0F7FC"/>
<path d="M764.504 163.375C766.588 163.375 768.278 161.676 768.278 159.58C768.278 157.483 766.588 155.784 764.504 155.784C762.42 155.784 760.73 157.483 760.73 159.58C760.73 161.676 762.42 163.375 764.504 163.375Z" fill="#F0F7FC"/>
<path d="M764.504 193.764C766.588 193.764 768.278 192.065 768.278 189.968C768.278 187.872 766.588 186.173 764.504 186.173C762.42 186.173 760.73 187.872 760.73 189.968C760.73 192.065 762.42 193.764 764.504 193.764Z" fill="#F0F7FC"/>
<path d="M764.504 225.433C766.588 225.433 768.278 223.734 768.278 221.637C768.278 219.541 766.588 217.842 764.504 217.842C762.42 217.842 760.73 219.541 760.73 221.637C760.73 223.734 762.42 225.433 764.504 225.433Z" fill="#F0F7FC"/>
<path d="M764.504 255.826C766.588 255.826 768.278 254.127 768.278 252.031C768.278 249.935 766.588 248.235 764.504 248.235C762.42 248.235 760.73 249.935 760.73 252.031C760.73 254.127 762.42 255.826 764.504 255.826Z" fill="#F0F7FC"/>
<path d="M764.504 288.752C766.588 288.752 768.278 287.053 768.278 284.957C768.278 282.861 766.588 281.161 764.504 281.161C762.42 281.161 760.73 282.861 760.73 284.957C760.73 287.053 762.42 288.752 764.504 288.752Z" fill="#F0F7FC"/>
<path d="M580.66 349.548C582.744 349.548 584.434 347.849 584.434 345.753C584.434 343.656 582.744 341.957 580.66 341.957C578.576 341.957 576.887 343.656 576.887 345.753C576.887 347.849 578.576 349.548 580.66 349.548Z" fill="#F0F7FC"/>
<path d="M580.66 381.208C582.744 381.208 584.434 379.509 584.434 377.413C584.434 375.317 582.744 373.617 580.66 373.617C578.576 373.617 576.887 375.317 576.887 377.413C576.887 379.509 578.576 381.208 580.66 381.208Z" fill="#F0F7FC"/>
<path d="M579.404 411.602C581.489 411.602 583.178 409.903 583.178 407.806C583.178 405.71 581.489 404.011 579.404 404.011C577.32 404.011 575.631 405.71 575.631 407.806C575.631 409.903 577.32 411.602 579.404 411.602Z" fill="#F0F7FC"/>
<path d="M393.049 444.536C395.133 444.536 396.823 442.837 396.823 440.741C396.823 438.645 395.133 436.945 393.049 436.945C390.965 436.945 389.275 438.645 389.275 440.741C389.275 442.837 390.965 444.536 393.049 444.536Z" fill="#F0F7FC"/>
<path d="M609.619 381.208C611.703 381.208 613.393 379.509 613.393 377.413C613.393 375.317 611.703 373.617 609.619 373.617C607.535 373.617 605.846 375.317 605.846 377.413C605.846 379.509 607.535 381.208 609.619 381.208Z" fill="#F0F7FC"/>
<path d="M331.352 102.574C333.436 102.574 335.125 100.874 335.125 98.778C335.125 96.6818 333.436 94.9824 331.352 94.9824C329.268 94.9824 327.578 96.6818 327.578 98.778C327.578 100.874 329.268 102.574 331.352 102.574Z" fill="#F0F7FC"/>
<path d="M365.346 102.574C367.43 102.574 369.12 100.874 369.12 98.778C369.12 96.6818 367.43 94.9824 365.346 94.9824C363.262 94.9824 361.572 96.6818 361.572 98.778C361.572 100.874 363.262 102.574 365.346 102.574Z" fill="#F0F7FC"/>
<path d="M331.352 72.1849C333.436 72.1849 335.125 70.4856 335.125 68.3894C335.125 66.2931 333.436 64.5938 331.352 64.5938C329.268 64.5938 327.578 66.2931 327.578 68.3894C327.578 70.4856 329.268 72.1849 331.352 72.1849Z" fill="#F0F7FC"/>
<path d="M332.608 134.242C334.692 134.242 336.381 132.543 336.381 130.447C336.381 128.351 334.692 126.651 332.608 126.651C330.523 126.651 328.834 128.351 328.834 130.447C328.834 132.543 330.523 134.242 332.608 134.242Z" fill="#F0F7FC"/>
<path d="M332.608 167.167C334.692 167.167 336.381 165.468 336.381 163.372C336.381 161.276 334.692 159.576 332.608 159.576C330.523 159.576 328.834 161.276 328.834 163.372C328.834 165.468 330.523 167.167 332.608 167.167Z" fill="#F0F7FC"/>
<path d="M332.608 196.295C334.692 196.295 336.381 194.596 336.381 192.5C336.381 190.403 334.692 188.704 332.608 188.704C330.523 188.704 328.834 190.403 328.834 192.5C328.834 194.596 330.523 196.295 332.608 196.295Z" fill="#F0F7FC"/>
<path d="M332.608 225.433C334.692 225.433 336.381 223.734 336.381 221.637C336.381 219.541 334.692 217.842 332.608 217.842C330.523 217.842 328.834 219.541 328.834 221.637C328.834 223.734 330.523 225.433 332.608 225.433Z" fill="#F0F7FC"/>
<path d="M332.608 258.358C334.692 258.358 336.381 256.658 336.381 254.562C336.381 252.466 334.692 250.767 332.608 250.767C330.523 250.767 328.834 252.466 328.834 254.562C328.834 256.658 330.523 258.358 332.608 258.358Z" fill="#F0F7FC"/>
<path d="M332.608 287.487C334.692 287.487 336.381 285.787 336.381 283.691C336.381 281.595 334.692 279.896 332.608 279.896C330.523 279.896 328.834 281.595 328.834 283.691C328.834 285.787 330.523 287.487 332.608 287.487Z" fill="#F0F7FC"/>
<path d="M332.608 316.615C334.692 316.615 336.381 314.915 336.381 312.819C336.381 310.723 334.692 309.023 332.608 309.023C330.523 309.023 328.834 310.723 328.834 312.819C328.834 314.915 330.523 316.615 332.608 316.615Z" fill="#F0F7FC"/>
<path d="M332.608 349.548C334.692 349.548 336.381 347.849 336.381 345.753C336.381 343.656 334.692 341.957 332.608 341.957C330.523 341.957 328.834 343.656 328.834 345.753C328.834 347.849 330.523 349.548 332.608 349.548Z" fill="#F0F7FC"/>
<path d="M332.608 382.474C334.692 382.474 336.381 380.775 336.381 378.678C336.381 376.582 334.692 374.883 332.608 374.883C330.523 374.883 328.834 376.582 328.834 378.678C328.834 380.775 330.523 382.474 332.608 382.474Z" fill="#F0F7FC"/>
<path d="M332.608 411.602C334.692 411.602 336.381 409.903 336.381 407.806C336.381 405.71 334.692 404.011 332.608 404.011C330.523 404.011 328.834 405.71 328.834 407.806C328.834 409.903 330.523 411.602 332.608 411.602Z" fill="#F0F7FC"/>
<path d="M672.582 411.602C674.666 411.602 676.356 409.903 676.356 407.806C676.356 405.71 674.666 404.011 672.582 404.011C670.498 404.011 668.809 405.71 668.809 407.806C668.809 409.903 670.498 411.602 672.582 411.602Z" fill="#F0F7FC"/>
<path d="M641.102 411.602C643.186 411.602 644.875 409.903 644.875 407.806C644.875 405.71 643.186 404.011 641.102 404.011C639.018 404.011 637.328 405.71 637.328 407.806C637.328 409.903 639.018 411.602 641.102 411.602Z" fill="#F0F7FC"/>
<path d="M609.619 411.602C611.703 411.602 613.393 409.903 613.393 407.806C613.393 405.71 611.703 404.011 609.619 404.011C607.535 404.011 605.846 405.71 605.846 407.806C605.846 409.903 607.535 411.602 609.619 411.602Z" fill="#F0F7FC"/>
<path d="M641.102 381.208C643.186 381.208 644.875 379.509 644.875 377.413C644.875 375.317 643.186 373.617 641.102 373.617C639.018 373.617 637.328 375.317 637.328 377.413C637.328 379.509 639.018 381.208 641.102 381.208Z" fill="#F0F7FC"/>
<path d="M641.102 349.548C643.186 349.548 644.875 347.849 644.875 345.753C644.875 343.656 643.186 341.957 641.102 341.957C639.018 341.957 637.328 343.656 637.328 345.753C637.328 347.849 639.018 349.548 641.102 349.548Z" fill="#F0F7FC"/>
<path d="M672.582 349.548C674.666 349.548 676.356 347.849 676.356 345.753C676.356 343.656 674.666 341.957 672.582 341.957C670.498 341.957 668.809 343.656 668.809 345.753C668.809 347.849 670.498 349.548 672.582 349.548Z" fill="#F0F7FC"/>
<path d="M609.619 349.548C611.703 349.548 613.393 347.849 613.393 345.753C613.393 343.656 611.703 341.957 609.619 341.957C607.535 341.957 605.846 343.656 605.846 345.753C605.846 347.849 607.535 349.548 609.619 349.548Z" fill="#F0F7FC"/>
<path d="M610.885 444.536C612.969 444.536 614.659 442.837 614.659 440.741C614.659 438.645 612.969 436.945 610.885 436.945C608.801 436.945 607.111 438.645 607.111 440.741C607.111 442.837 608.801 444.536 610.885 444.536Z" fill="#F0F7FC"/>
<path d="M580.66 444.536C582.744 444.536 584.434 442.837 584.434 440.741C584.434 438.645 582.744 436.945 580.66 436.945C578.576 436.945 576.887 438.645 576.887 440.741C576.887 442.837 578.576 444.536 580.66 444.536Z" fill="#F0F7FC"/>
<path d="M648.658 444.536C650.743 444.536 652.432 442.837 652.432 440.741C652.432 438.645 650.743 436.945 648.658 436.945C646.574 436.945 644.885 438.645 644.885 440.741C644.885 442.837 646.574 444.536 648.658 444.536Z" fill="#F0F7FC"/>
<path d="M332.608 444.536C334.692 444.536 336.381 442.837 336.381 440.741C336.381 438.645 334.692 436.945 332.608 436.945C330.523 436.945 328.834 438.645 328.834 440.741C328.834 442.837 330.523 444.536 332.608 444.536Z" fill="#F0F7FC"/>
<path d="M362.832 444.536C364.916 444.536 366.606 442.837 366.606 440.741C366.606 438.645 364.916 436.945 362.832 436.945C360.748 436.945 359.059 438.645 359.059 440.741C359.059 442.837 360.748 444.536 362.832 444.536Z" fill="#F0F7FC"/>
<path d="M362.832 477.461C364.916 477.461 366.606 475.762 366.606 473.666C366.606 471.569 364.916 469.87 362.832 469.87C360.748 469.87 359.059 471.569 359.059 473.666C359.059 475.762 360.748 477.461 362.832 477.461Z" fill="#F0F7FC"/>
<path d="M394.305 477.461C396.389 477.461 398.078 475.762 398.078 473.666C398.078 471.569 396.389 469.87 394.305 469.87C392.221 469.87 390.531 471.569 390.531 473.666C390.531 475.762 392.221 477.461 394.305 477.461Z" fill="#F0F7FC"/>
<path d="M332.608 477.461C334.692 477.461 336.381 475.762 336.381 473.666C336.381 471.569 334.692 469.87 332.608 469.87C330.523 469.87 328.834 471.569 328.834 473.666C328.834 475.762 330.523 477.461 332.608 477.461Z" fill="#F0F7FC"/>
<path d="M302.383 134.242C304.467 134.242 306.157 132.543 306.157 130.447C306.157 128.351 304.467 126.651 302.383 126.651C300.299 126.651 298.609 128.351 298.609 130.447C298.609 132.543 300.299 134.242 302.383 134.242Z" fill="#F0F7FC"/>
<path d="M302.383 167.167C304.467 167.167 306.157 165.468 306.157 163.372C306.157 161.276 304.467 159.576 302.383 159.576C300.299 159.576 298.609 161.276 298.609 163.372C298.609 165.468 300.299 167.167 302.383 167.167Z" fill="#F0F7FC"/>
<path d="M302.383 196.295C304.467 196.295 306.157 194.596 306.157 192.5C306.157 190.403 304.467 188.704 302.383 188.704C300.299 188.704 298.609 190.403 298.609 192.5C298.609 194.596 300.299 196.295 302.383 196.295Z" fill="#F0F7FC"/>
<path d="M243.207 196.295C245.291 196.295 246.981 194.596 246.981 192.5C246.981 190.403 245.291 188.704 243.207 188.704C241.123 188.704 239.434 190.403 239.434 192.5C239.434 194.596 241.123 196.295 243.207 196.295Z" fill="#F0F7FC"/>
<path d="M302.383 225.433C304.467 225.433 306.157 223.734 306.157 221.637C306.157 219.541 304.467 217.842 302.383 217.842C300.299 217.842 298.609 219.541 298.609 221.637C298.609 223.734 300.299 225.433 302.383 225.433Z" fill="#F0F7FC"/>
<path d="M302.383 258.358C304.467 258.358 306.157 256.658 306.157 254.562C306.157 252.466 304.467 250.767 302.383 250.767C300.299 250.767 298.609 252.466 298.609 254.562C298.609 256.658 300.299 258.358 302.383 258.358Z" fill="#F0F7FC"/>
<path d="M302.383 287.487C304.467 287.487 306.157 285.787 306.157 283.691C306.157 281.595 304.467 279.896 302.383 279.896C300.299 279.896 298.609 281.595 298.609 283.691C298.609 285.787 300.299 287.487 302.383 287.487Z" fill="#F0F7FC"/>
<path d="M302.383 316.615C304.467 316.615 306.157 314.915 306.157 312.819C306.157 310.723 304.467 309.023 302.383 309.023C300.299 309.023 298.609 310.723 298.609 312.819C298.609 314.915 300.299 316.615 302.383 316.615Z" fill="#F0F7FC"/>
<path d="M302.383 349.548C304.467 349.548 306.157 347.849 306.157 345.753C306.157 343.656 304.467 341.957 302.383 341.957C300.299 341.957 298.609 343.656 298.609 345.753C298.609 347.849 300.299 349.548 302.383 349.548Z" fill="#F0F7FC"/>
<path d="M240.695 287.487C242.78 287.487 244.469 285.787 244.469 283.691C244.469 281.595 242.78 279.896 240.695 279.896C238.611 279.896 236.922 281.595 236.922 283.691C236.922 285.787 238.611 287.487 240.695 287.487Z" fill="#F0F7FC"/>
<path d="M240.695 316.615C242.78 316.615 244.469 314.915 244.469 312.819C244.469 310.723 242.78 309.023 240.695 309.023C238.611 309.023 236.922 310.723 236.922 312.819C236.922 314.915 238.611 316.615 240.695 316.615Z" fill="#F0F7FC"/>
<path d="M240.695 349.548C242.78 349.548 244.469 347.849 244.469 345.753C244.469 343.656 242.78 341.957 240.695 341.957C238.611 341.957 236.922 343.656 236.922 345.753C236.922 347.849 238.611 349.548 240.695 349.548Z" fill="#F0F7FC"/>
<path d="M302.383 382.474C304.467 382.474 306.157 380.775 306.157 378.678C306.157 376.582 304.467 374.883 302.383 374.883C300.299 374.883 298.609 376.582 298.609 378.678C298.609 380.775 300.299 382.474 302.383 382.474Z" fill="#F0F7FC"/>
<path d="M302.383 411.602C304.467 411.602 306.157 409.903 306.157 407.806C306.157 405.71 304.467 404.011 302.383 404.011C300.299 404.011 298.609 405.71 298.609 407.806C298.609 409.903 300.299 411.602 302.383 411.602Z" fill="#F0F7FC"/>
<path d="M270.91 134.242C272.994 134.242 274.684 132.543 274.684 130.447C274.684 128.351 272.994 126.651 270.91 126.651C268.826 126.651 267.137 128.351 267.137 130.447C267.137 132.543 268.826 134.242 270.91 134.242Z" fill="#F0F7FC"/>
<path d="M270.91 167.167C272.994 167.167 274.684 165.468 274.684 163.372C274.684 161.276 272.994 159.576 270.91 159.576C268.826 159.576 267.137 161.276 267.137 163.372C267.137 165.468 268.826 167.167 270.91 167.167Z" fill="#F0F7FC"/>
<path d="M270.91 196.295C272.994 196.295 274.684 194.596 274.684 192.5C274.684 190.403 272.994 188.704 270.91 188.704C268.826 188.704 267.137 190.403 267.137 192.5C267.137 194.596 268.826 196.295 270.91 196.295Z" fill="#F0F7FC"/>
<path d="M211.725 195.03C213.114 195.03 214.24 193.898 214.24 192.5C214.24 191.103 213.114 189.97 211.725 189.97C210.335 189.97 209.209 191.103 209.209 192.5C209.209 193.898 210.335 195.03 211.725 195.03Z" fill="#F0F7FC"/>
<path d="M211.725 255.827C213.114 255.827 214.24 254.694 214.24 253.297C214.24 251.899 213.114 250.767 211.725 250.767C210.335 250.767 209.209 251.899 209.209 253.297C209.209 254.694 210.335 255.827 211.725 255.827Z" fill="#F0F7FC"/>
<path d="M147.516 286.222C148.905 286.222 150.031 285.089 150.031 283.692C150.031 282.294 148.905 281.161 147.516 281.161C146.126 281.161 145 282.294 145 283.692C145 285.089 146.126 286.222 147.516 286.222Z" fill="#F0F7FC"/>
<path d="M826.199 162.106C827.589 162.106 828.715 160.973 828.715 159.575C828.715 158.178 827.589 157.045 826.199 157.045C824.81 157.045 823.684 158.178 823.684 159.575C823.684 160.973 824.81 162.106 826.199 162.106Z" fill="#F0F7FC"/>
<path d="M794.729 162.106C796.118 162.106 797.244 160.973 797.244 159.575C797.244 158.178 796.118 157.045 794.729 157.045C793.339 157.045 792.213 158.178 792.213 159.575C792.213 160.973 793.339 162.106 794.729 162.106Z" fill="#F0F7FC"/>
<path d="M794.729 192.499C796.118 192.499 797.244 191.366 797.244 189.969C797.244 188.571 796.118 187.438 794.729 187.438C793.339 187.438 792.213 188.571 792.213 189.969C792.213 191.366 793.339 192.499 794.729 192.499Z" fill="#F0F7FC"/>
<path d="M794.729 224.168C796.118 224.168 797.244 223.035 797.244 221.638C797.244 220.24 796.118 219.107 794.729 219.107C793.339 219.107 792.213 220.24 792.213 221.638C792.213 223.035 793.339 224.168 794.729 224.168Z" fill="#F0F7FC"/>
<path d="M794.729 254.562C796.118 254.562 797.244 253.429 797.244 252.031C797.244 250.634 796.118 249.501 794.729 249.501C793.339 249.501 792.213 250.634 792.213 252.031C792.213 253.429 793.339 254.562 794.729 254.562Z" fill="#F0F7FC"/>
<path d="M826.199 192.499C827.589 192.499 828.715 191.366 828.715 189.969C828.715 188.571 827.589 187.438 826.199 187.438C824.81 187.438 823.684 188.571 823.684 189.969C823.684 191.366 824.81 192.499 826.199 192.499Z" fill="#F0F7FC"/>
<path d="M826.199 224.168C827.589 224.168 828.715 223.035 828.715 221.638C828.715 220.24 827.589 219.107 826.199 219.107C824.81 219.107 823.684 220.24 823.684 221.638C823.684 223.035 824.81 224.168 826.199 224.168Z" fill="#F0F7FC"/>
<path d="M826.199 254.562C827.589 254.562 828.715 253.429 828.715 252.031C828.715 250.634 827.589 249.501 826.199 249.501C824.81 249.501 823.684 250.634 823.684 252.031C823.684 253.429 824.81 254.562 826.199 254.562Z" fill="#F0F7FC"/>
<path d="M857.68 192.499C859.069 192.499 860.196 191.366 860.196 189.969C860.196 188.571 859.069 187.438 857.68 187.438C856.29 187.438 855.164 188.571 855.164 189.969C855.164 191.366 856.29 192.499 857.68 192.499Z" fill="#F0F7FC"/>
<path d="M857.68 221.628C859.069 221.628 860.196 220.495 860.196 219.098C860.196 217.7 859.069 216.567 857.68 216.567C856.29 216.567 855.164 217.7 855.164 219.098C855.164 220.495 856.29 221.628 857.68 221.628Z" fill="#F0F7FC"/>
<path d="M147.516 315.35C148.905 315.35 150.031 314.217 150.031 312.819C150.031 311.422 148.905 310.289 147.516 310.289C146.126 310.289 145 311.422 145 312.819C145 314.217 146.126 315.35 147.516 315.35Z" fill="#F0F7FC"/>
<path d="M181.51 348.283C182.899 348.283 184.026 347.151 184.026 345.753C184.026 344.356 182.899 343.223 181.51 343.223C180.12 343.223 178.994 344.356 178.994 345.753C178.994 347.151 180.12 348.283 181.51 348.283Z" fill="#F0F7FC"/>
<path d="M211.725 381.209C213.114 381.209 214.24 380.076 214.24 378.679C214.24 377.281 213.114 376.148 211.725 376.148C210.335 376.148 209.209 377.281 209.209 378.679C209.209 380.076 210.335 381.209 211.725 381.209Z" fill="#F0F7FC"/>
<path d="M241.949 381.209C243.339 381.209 244.465 380.076 244.465 378.679C244.465 377.281 243.339 376.148 241.949 376.148C240.56 376.148 239.434 377.281 239.434 378.679C239.434 380.076 240.56 381.209 241.949 381.209Z" fill="#F0F7FC"/>
<path d="M181.51 315.35C182.899 315.35 184.026 314.217 184.026 312.819C184.026 311.422 182.899 310.289 181.51 310.289C180.12 310.289 178.994 311.422 178.994 312.819C178.994 314.217 180.12 315.35 181.51 315.35Z" fill="#F0F7FC"/>
<path d="M181.51 286.222C182.899 286.222 184.026 285.089 184.026 283.692C184.026 282.294 182.899 281.161 181.51 281.161C180.12 281.161 178.994 282.294 178.994 283.692C178.994 285.089 180.12 286.222 181.51 286.222Z" fill="#F0F7FC"/>
<path d="M270.91 225.433C272.994 225.433 274.684 223.734 274.684 221.637C274.684 219.541 272.994 217.842 270.91 217.842C268.826 217.842 267.137 219.541 267.137 221.637C267.137 223.734 268.826 225.433 270.91 225.433Z" fill="#F0F7FC"/>
<path d="M270.91 258.358C272.994 258.358 274.684 256.658 274.684 254.562C274.684 252.466 272.994 250.767 270.91 250.767C268.826 250.767 267.137 252.466 267.137 254.562C267.137 256.658 268.826 258.358 270.91 258.358Z" fill="#F0F7FC"/>
<path d="M240.695 258.358C242.78 258.358 244.469 256.658 244.469 254.562C244.469 252.466 242.78 250.767 240.695 250.767C238.611 250.767 236.922 252.466 236.922 254.562C236.922 256.658 238.611 258.358 240.695 258.358Z" fill="#F0F7FC"/>
<path d="M270.91 287.487C272.994 287.487 274.684 285.787 274.684 283.691C274.684 281.595 272.994 279.896 270.91 279.896C268.826 279.896 267.137 281.595 267.137 283.691C267.137 285.787 268.826 287.487 270.91 287.487Z" fill="#F0F7FC"/>
<path d="M270.91 316.615C272.994 316.615 274.684 314.915 274.684 312.819C274.684 310.723 272.994 309.023 270.91 309.023C268.826 309.023 267.137 310.723 267.137 312.819C267.137 314.915 268.826 316.615 270.91 316.615Z" fill="#F0F7FC"/>
<path d="M270.91 349.548C272.994 349.548 274.684 347.849 274.684 345.753C274.684 343.656 272.994 341.957 270.91 341.957C268.826 341.957 267.137 343.656 267.137 345.753C267.137 347.849 268.826 349.548 270.91 349.548Z" fill="#F0F7FC"/>
<path d="M209.205 287.487C211.289 287.487 212.979 285.787 212.979 283.691C212.979 281.595 211.289 279.896 209.205 279.896C207.121 279.896 205.432 281.595 205.432 283.691C205.432 285.787 207.121 287.487 209.205 287.487Z" fill="#F0F7FC"/>
<path d="M209.205 316.615C211.289 316.615 212.979 314.915 212.979 312.819C212.979 310.723 211.289 309.023 209.205 309.023C207.121 309.023 205.432 310.723 205.432 312.819C205.432 314.915 207.121 316.615 209.205 316.615Z" fill="#F0F7FC"/>
<path d="M209.205 349.548C211.289 349.548 212.979 347.849 212.979 345.753C212.979 343.656 211.289 341.957 209.205 341.957C207.121 341.957 205.432 343.656 205.432 345.753C205.432 347.849 207.121 349.548 209.205 349.548Z" fill="#F0F7FC"/>
<path d="M270.91 382.474C272.994 382.474 274.684 380.775 274.684 378.678C274.684 376.582 272.994 374.883 270.91 374.883C268.826 374.883 267.137 376.582 267.137 378.678C267.137 380.775 268.826 382.474 270.91 382.474Z" fill="#F0F7FC"/>
<path d="M270.91 411.602C272.994 411.602 274.684 409.903 274.684 407.806C274.684 405.71 272.994 404.011 270.91 404.011C268.826 404.011 267.137 405.71 267.137 407.806C267.137 409.903 268.826 411.602 270.91 411.602Z" fill="#F0F7FC"/>
<path d="M486.855 44.3203C490.678 44.3203 493.778 41.2028 493.778 37.357C493.778 33.5112 490.678 30.3936 486.855 30.3936C483.031 30.3936 479.932 33.5112 479.932 37.357C479.932 41.2028 483.031 44.3203 486.855 44.3203Z" fill="#F0F7FC"/>
<path d="M486.855 75.9893C490.678 75.9893 493.778 72.8716 493.778 69.0258C493.778 65.1801 490.678 62.0625 486.855 62.0625C483.031 62.0625 479.932 65.1801 479.932 69.0258C479.932 72.8716 483.031 75.9893 486.855 75.9893Z" fill="#F0F7FC"/>
<path d="M486.855 106.382C491.373 106.382 495.036 102.698 495.036 98.1534C495.036 93.6089 491.373 89.9248 486.855 89.9248C482.337 89.9248 478.674 93.6089 478.674 98.1534C478.674 102.698 482.337 106.382 486.855 106.382Z" fill="#F0F7FC"/>
<path d="M486.855 138.041C491.373 138.041 495.036 134.357 495.036 129.813C495.036 125.268 491.373 121.584 486.855 121.584C482.337 121.584 478.674 125.268 478.674 129.813C478.674 134.357 482.337 138.041 486.855 138.041Z" fill="#F0F7FC"/>
<path d="M518.335 44.3203C522.159 44.3203 525.258 41.2028 525.258 37.357C525.258 33.5112 522.159 30.3936 518.335 30.3936C514.512 30.3936 511.412 33.5112 511.412 37.357C511.412 41.2028 514.512 44.3203 518.335 44.3203Z" fill="#F0F7FC"/>
<path d="M518.335 75.9893C522.159 75.9893 525.258 72.8716 525.258 69.0258C525.258 65.1801 522.159 62.0625 518.335 62.0625C514.512 62.0625 511.412 65.1801 511.412 69.0258C511.412 72.8716 514.512 75.9893 518.335 75.9893Z" fill="#F0F7FC"/>
<path d="M518.337 106.382C522.855 106.382 526.518 102.698 526.518 98.1534C526.518 93.6089 522.855 89.9248 518.337 89.9248C513.819 89.9248 510.156 93.6089 510.156 98.1534C510.156 102.698 513.819 106.382 518.337 106.382Z" fill="#F0F7FC"/>
<path d="M518.337 138.041C522.855 138.041 526.518 134.357 526.518 129.813C526.518 125.268 522.855 121.584 518.337 121.584C513.819 121.584 510.156 125.268 510.156 129.813C510.156 134.357 513.819 138.041 518.337 138.041Z" fill="#F0F7FC"/>
<path d="M549.816 75.9893C553.639 75.9893 556.739 72.8716 556.739 69.0258C556.739 65.1801 553.639 62.0625 549.816 62.0625C545.992 62.0625 542.893 65.1801 542.893 69.0258C542.893 72.8716 545.992 75.9893 549.816 75.9893Z" fill="#F0F7FC"/>
<path d="M703.435 200.1C707.258 200.1 710.358 196.982 710.358 193.136C710.358 189.29 707.258 186.173 703.435 186.173C699.611 186.173 696.512 189.29 696.512 193.136C696.512 196.982 699.611 200.1 703.435 200.1Z" fill="#F0F7FC"/>
<path d="M671.954 200.1C675.778 200.1 678.877 196.982 678.877 193.136C678.877 189.29 675.778 186.173 671.954 186.173C668.131 186.173 665.031 189.29 665.031 193.136C665.031 196.982 668.131 200.1 671.954 200.1Z" fill="#F0F7FC"/>
<path d="M610.257 168.445C614.081 168.445 617.18 165.328 617.18 161.482C617.18 157.636 614.081 154.519 610.257 154.519C606.434 154.519 603.334 157.636 603.334 161.482C603.334 165.328 606.434 168.445 610.257 168.445Z" fill="#F0F7FC"/>
<path d="M641.73 200.1C645.553 200.1 648.653 196.982 648.653 193.136C648.653 189.29 645.553 186.173 641.73 186.173C637.906 186.173 634.807 189.29 634.807 193.136C634.807 196.982 637.906 200.1 641.73 200.1Z" fill="#F0F7FC"/>
<path d="M610.257 200.1C614.081 200.1 617.18 196.982 617.18 193.136C617.18 189.29 614.081 186.173 610.257 186.173C606.434 186.173 603.334 189.29 603.334 193.136C603.334 196.982 606.434 200.1 610.257 200.1Z" fill="#F0F7FC"/>
<path d="M641.73 227.967C645.553 227.967 648.653 224.849 648.653 221.003C648.653 217.158 645.553 214.04 641.73 214.04C637.906 214.04 634.807 217.158 634.807 221.003C634.807 224.849 637.906 227.967 641.73 227.967Z" fill="#F0F7FC"/>
<path d="M641.73 259.622C645.553 259.622 648.653 256.504 648.653 252.659C648.653 248.813 645.553 245.695 641.73 245.695C637.906 245.695 634.807 248.813 634.807 252.659C634.807 256.504 637.906 259.622 641.73 259.622Z" fill="#F0F7FC"/>
<path d="M426.413 447.065C430.237 447.065 433.336 443.948 433.336 440.102C433.336 436.256 430.237 433.139 426.413 433.139C422.59 433.139 419.49 436.256 419.49 440.102C419.49 443.948 422.59 447.065 426.413 447.065Z" fill="#F0F7FC"/>
<path d="M457.894 414.141C461.717 414.141 464.817 411.023 464.817 407.177C464.817 403.331 461.717 400.214 457.894 400.214C454.07 400.214 450.971 403.331 450.971 407.177C450.971 411.023 454.07 414.141 457.894 414.141Z" fill="#F0F7FC"/>
<path d="M489.376 414.141C493.2 414.141 496.299 411.023 496.299 407.177C496.299 403.331 493.2 400.214 489.376 400.214C485.553 400.214 482.453 403.331 482.453 407.177C482.453 411.023 485.553 414.141 489.376 414.141Z" fill="#F0F7FC"/>
<path d="M519.591 414.141C523.415 414.141 526.514 411.023 526.514 407.177C526.514 403.331 523.415 400.214 519.591 400.214C515.768 400.214 512.668 403.331 512.668 407.177C512.668 411.023 515.768 414.141 519.591 414.141Z" fill="#F0F7FC"/>
<path d="M549.816 414.141C553.639 414.141 556.739 411.023 556.739 407.177C556.739 403.331 553.639 400.214 549.816 400.214C545.992 400.214 542.893 403.331 542.893 407.177C542.893 411.023 545.992 414.141 549.816 414.141Z" fill="#F0F7FC"/>
<path d="M426.413 414.141C430.237 414.141 433.336 411.023 433.336 407.177C433.336 403.331 430.237 400.214 426.413 400.214C422.59 400.214 419.49 403.331 419.49 407.177C419.49 411.023 422.59 414.141 426.413 414.141Z" fill="#F0F7FC"/>
<path d="M457.894 447.065C461.717 447.065 464.817 443.948 464.817 440.102C464.817 436.256 461.717 433.139 457.894 433.139C454.07 433.139 450.971 436.256 450.971 440.102C450.971 443.948 454.07 447.065 457.894 447.065Z" fill="#F0F7FC"/>
<path d="M489.376 447.065C493.2 447.065 496.299 443.948 496.299 440.102C496.299 436.256 493.2 433.139 489.376 433.139C485.553 433.139 482.453 436.256 482.453 440.102C482.453 443.948 485.553 447.065 489.376 447.065Z" fill="#F0F7FC"/>
<path d="M519.591 447.065C523.415 447.065 526.514 443.948 526.514 440.102C526.514 436.256 523.415 433.139 519.591 433.139C515.768 433.139 512.668 436.256 512.668 440.102C512.668 443.948 515.768 447.065 519.591 447.065Z" fill="#F0F7FC"/>
<path d="M641.73 293.822C645.553 293.822 648.653 290.705 648.653 286.859C648.653 283.013 645.553 279.896 641.73 279.896C637.906 279.896 634.807 283.013 634.807 286.859C634.807 290.705 637.906 293.822 641.73 293.822Z" fill="#F0F7FC"/>
<path d="M641.73 322.95C645.553 322.95 648.653 319.833 648.653 315.987C648.653 312.141 645.553 309.023 641.73 309.023C637.906 309.023 634.807 312.141 634.807 315.987C634.807 319.833 637.906 322.95 641.73 322.95Z" fill="#F0F7FC"/>
<path d="M670.698 227.967C674.522 227.967 677.622 224.849 677.622 221.003C677.622 217.158 674.522 214.04 670.698 214.04C666.875 214.04 663.775 217.158 663.775 221.003C663.775 224.849 666.875 227.967 670.698 227.967Z" fill="#F0F7FC"/>
<path d="M670.698 259.622C674.522 259.622 677.622 256.504 677.622 252.659C677.622 248.813 674.522 245.695 670.698 245.695C666.875 245.695 663.775 248.813 663.775 252.659C663.775 256.504 666.875 259.622 670.698 259.622Z" fill="#F0F7FC"/>
<path d="M670.698 293.822C674.522 293.822 677.622 290.705 677.622 286.859C677.622 283.013 674.522 279.896 670.698 279.896C666.875 279.896 663.775 283.013 663.775 286.859C663.775 290.705 666.875 293.822 670.698 293.822Z" fill="#F0F7FC"/>
<path d="M670.698 322.95C674.522 322.95 677.622 319.833 677.622 315.987C677.622 312.141 674.522 309.023 670.698 309.023C666.875 309.023 663.775 312.141 663.775 315.987C663.775 319.833 666.875 322.95 670.698 322.95Z" fill="#F0F7FC"/>
<path d="M703.435 227.967C707.258 227.967 710.358 224.849 710.358 221.003C710.358 217.158 707.258 214.04 703.435 214.04C699.611 214.04 696.512 217.158 696.512 221.003C696.512 224.849 699.611 227.967 703.435 227.967Z" fill="#F0F7FC"/>
<path d="M703.435 259.622C707.258 259.622 710.358 256.504 710.358 252.659C710.358 248.813 707.258 245.695 703.435 245.695C699.611 245.695 696.512 248.813 696.512 252.659C696.512 256.504 699.611 259.622 703.435 259.622Z" fill="#F0F7FC"/>
<path d="M703.435 293.822C707.258 293.822 710.358 290.705 710.358 286.859C710.358 283.013 707.258 279.896 703.435 279.896C699.611 279.896 696.512 283.013 696.512 286.859C696.512 290.705 699.611 293.822 703.435 293.822Z" fill="#F0F7FC"/>
<path d="M703.435 322.95C707.258 322.95 710.358 319.833 710.358 315.987C710.358 312.141 707.258 309.023 703.435 309.023C699.611 309.023 696.512 312.141 696.512 315.987C696.512 319.833 699.611 322.95 703.435 322.95Z" fill="#F0F7FC"/>
<path d="M549.816 447.065C553.639 447.065 556.739 443.948 556.739 440.102C556.739 436.256 553.639 433.139 549.816 433.139C545.992 433.139 542.893 436.256 542.893 440.102C542.893 443.948 545.992 447.065 549.816 447.065Z" fill="#F0F7FC"/>
<path d="M426.413 480C430.237 480 433.336 476.882 433.336 473.037C433.336 469.191 430.237 466.073 426.413 466.073C422.59 466.073 419.49 469.191 419.49 473.037C419.49 476.882 422.59 480 426.413 480Z" fill="#F0F7FC"/>
<path d="M457.894 480C461.717 480 464.817 476.882 464.817 473.037C464.817 469.191 461.717 466.073 457.894 466.073C454.07 466.073 450.971 469.191 450.971 473.037C450.971 476.882 454.07 480 457.894 480Z" fill="#F0F7FC"/>
<path d="M489.376 480C493.2 480 496.299 476.882 496.299 473.037C496.299 469.191 493.2 466.073 489.376 466.073C485.553 466.073 482.453 469.191 482.453 473.037C482.453 476.882 485.553 480 489.376 480Z" fill="#F0F7FC"/>
<path d="M549.808 106.382C554.326 106.382 557.989 102.698 557.989 98.1534C557.989 93.6089 554.326 89.9248 549.808 89.9248C545.29 89.9248 541.627 93.6089 541.627 98.1534C541.627 102.698 545.29 106.382 549.808 106.382Z" fill="#F0F7FC"/>
<path d="M549.808 138.041C554.326 138.041 557.989 134.357 557.989 129.813C557.989 125.268 554.326 121.584 549.808 121.584C545.29 121.584 541.627 125.268 541.627 129.813C541.627 134.357 545.29 138.041 549.808 138.041Z" fill="#F0F7FC"/>
<path d="M580.034 138.041C584.553 138.041 588.215 134.357 588.215 129.813C588.215 125.268 584.553 121.584 580.034 121.584C575.516 121.584 571.854 125.268 571.854 129.813C571.854 134.357 575.516 138.041 580.034 138.041Z" fill="#F0F7FC"/>
<path d="M610.259 138.041C614.777 138.041 618.44 134.357 618.44 129.813C618.44 125.268 614.777 121.584 610.259 121.584C605.741 121.584 602.078 125.268 602.078 129.813C602.078 134.357 605.741 138.041 610.259 138.041Z" fill="#F0F7FC"/>
<path d="M580.034 169.71C584.553 169.71 588.215 166.026 588.215 161.481C588.215 156.937 584.553 153.253 580.034 153.253C575.516 153.253 571.854 156.937 571.854 161.481C571.854 166.026 575.516 169.71 580.034 169.71Z" fill="#F0F7FC"/>
<path d="M548.552 169.71C553.07 169.71 556.733 166.026 556.733 161.481C556.733 156.937 553.07 153.253 548.552 153.253C544.034 153.253 540.371 156.937 540.371 161.481C540.371 166.026 544.034 169.71 548.552 169.71Z" fill="#F0F7FC"/>
<path d="M517.081 169.71C521.6 169.71 525.262 166.026 525.262 161.481C525.262 156.937 521.6 153.253 517.081 153.253C512.563 153.253 508.9 156.937 508.9 161.481C508.9 166.026 512.563 169.71 517.081 169.71Z" fill="#F0F7FC"/>
<path d="M486.855 169.71C491.373 169.71 495.036 166.026 495.036 161.481C495.036 156.937 491.373 153.253 486.855 153.253C482.337 153.253 478.674 156.937 478.674 161.481C478.674 166.026 482.337 169.71 486.855 169.71Z" fill="#F0F7FC"/>
<path d="M426.419 202.644C432.332 202.644 437.126 197.822 437.126 191.875C437.126 185.928 432.332 181.106 426.419 181.106C420.506 181.106 415.713 185.928 415.713 191.875C415.713 197.822 420.506 202.644 426.419 202.644Z" fill="#F0F7FC"/>
<path d="M426.419 231.772C432.332 231.772 437.126 226.95 437.126 221.003C437.126 215.056 432.332 210.234 426.419 210.234C420.506 210.234 415.713 215.056 415.713 221.003C415.713 226.95 420.506 231.772 426.419 231.772Z" fill="#F0F7FC"/>
<path d="M426.419 264.691C432.332 264.691 437.126 259.87 437.126 253.923C437.126 247.976 432.332 243.154 426.419 243.154C420.506 243.154 415.713 247.976 415.713 253.923C415.713 259.87 420.506 264.691 426.419 264.691Z" fill="#F0F7FC"/>
<path d="M426.419 293.829C432.332 293.829 437.126 289.008 437.126 283.061C437.126 277.113 432.332 272.292 426.419 272.292C420.506 272.292 415.713 277.113 415.713 283.061C415.713 289.008 420.506 293.829 426.419 293.829Z" fill="#F0F7FC"/>
<path d="M457.89 293.829C463.803 293.829 468.596 289.008 468.596 283.061C468.596 277.113 463.803 272.292 457.89 272.292C451.977 272.292 447.184 277.113 447.184 283.061C447.184 289.008 451.977 293.829 457.89 293.829Z" fill="#F0F7FC"/>
<path d="M486.849 293.829C492.762 293.829 497.555 289.008 497.555 283.061C497.555 277.113 492.762 272.292 486.849 272.292C480.936 272.292 476.143 277.113 476.143 283.061C476.143 289.008 480.936 293.829 486.849 293.829Z" fill="#F0F7FC"/>
<path d="M486.849 264.691C492.762 264.691 497.555 259.87 497.555 253.923C497.555 247.976 492.762 243.154 486.849 243.154C480.936 243.154 476.143 247.976 476.143 253.923C476.143 259.87 480.936 264.691 486.849 264.691Z" fill="#F0F7FC"/>
<path d="M518.341 264.691C524.254 264.691 529.047 259.87 529.047 253.923C529.047 247.976 524.254 243.154 518.341 243.154C512.428 243.154 507.635 247.976 507.635 253.923C507.635 259.87 512.428 264.691 518.341 264.691Z" fill="#F0F7FC"/>
<path d="M457.89 264.691C463.803 264.691 468.596 259.87 468.596 253.923C468.596 247.976 463.803 243.154 457.89 243.154C451.977 243.154 447.184 247.976 447.184 253.923C447.184 259.87 451.977 264.691 457.89 264.691Z" fill="#F0F7FC"/>
<path d="M457.89 326.759C463.803 326.759 468.596 321.938 468.596 315.99C468.596 310.043 463.803 305.222 457.89 305.222C451.977 305.222 447.184 310.043 447.184 315.99C447.184 321.938 451.977 326.759 457.89 326.759Z" fill="#F0F7FC"/>
<path d="M486.849 326.759C492.762 326.759 497.555 321.938 497.555 315.99C497.555 310.043 492.762 305.222 486.849 305.222C480.936 305.222 476.143 310.043 476.143 315.99C476.143 321.938 480.936 326.759 486.849 326.759Z" fill="#F0F7FC"/>
<path d="M517.083 326.759C522.996 326.759 527.79 321.938 527.79 315.99C527.79 310.043 522.996 305.222 517.083 305.222C511.17 305.222 506.377 310.043 506.377 315.99C506.377 321.938 511.17 326.759 517.083 326.759Z" fill="#F0F7FC"/>
<path d="M549.812 326.759C555.725 326.759 560.518 321.938 560.518 315.99C560.518 310.043 555.725 305.222 549.812 305.222C543.899 305.222 539.105 310.043 539.105 315.99C539.105 321.938 543.899 326.759 549.812 326.759Z" fill="#F0F7FC"/>
<path d="M580.029 326.759C585.941 326.759 590.735 321.938 590.735 315.99C590.735 310.043 585.941 305.222 580.029 305.222C574.116 305.222 569.322 310.043 569.322 315.99C569.322 321.938 574.116 326.759 580.029 326.759Z" fill="#F0F7FC"/>
<path d="M517.083 293.829C522.996 293.829 527.79 289.008 527.79 283.061C527.79 277.113 522.996 272.292 517.083 272.292C511.17 272.292 506.377 277.113 506.377 283.061C506.377 289.008 511.17 293.829 517.083 293.829Z" fill="#F0F7FC"/>
<path d="M549.812 293.829C555.725 293.829 560.518 289.008 560.518 283.061C560.518 277.113 555.725 272.292 549.812 272.292C543.899 272.292 539.105 277.113 539.105 283.061C539.105 289.008 543.899 293.829 549.812 293.829Z" fill="#F0F7FC"/>
<path d="M549.812 264.691C555.725 264.691 560.518 259.87 560.518 253.923C560.518 247.976 555.725 243.154 549.812 243.154C543.899 243.154 539.105 247.976 539.105 253.923C539.105 259.87 543.899 264.691 549.812 264.691Z" fill="#F0F7FC"/>
<path d="M580.029 293.829C585.941 293.829 590.735 289.008 590.735 283.061C590.735 277.113 585.941 272.292 580.029 272.292C574.116 272.292 569.322 277.113 569.322 283.061C569.322 289.008 574.116 293.829 580.029 293.829Z" fill="#F0F7FC"/>
<path d="M578.771 264.691C584.684 264.691 589.477 259.87 589.477 253.923C589.477 247.976 584.684 243.154 578.771 243.154C572.858 243.154 568.064 247.976 568.064 253.923C568.064 259.87 572.858 264.691 578.771 264.691Z" fill="#F0F7FC"/>
<path d="M581.284 231.772C587.197 231.772 591.991 226.95 591.991 221.003C591.991 215.056 587.197 210.234 581.284 210.234C575.372 210.234 570.578 215.056 570.578 221.003C570.578 226.95 575.372 231.772 581.284 231.772Z" fill="#F0F7FC"/>
<path d="M581.284 202.644C587.197 202.644 591.991 197.822 591.991 191.875C591.991 185.928 587.197 181.106 581.284 181.106C575.372 181.106 570.578 185.928 570.578 191.875C570.578 197.822 575.372 202.644 581.284 202.644Z" fill="#F0F7FC"/>
<path d="M549.812 202.644C555.725 202.644 560.518 197.822 560.518 191.875C560.518 185.928 555.725 181.106 549.812 181.106C543.899 181.106 539.105 185.928 539.105 191.875C539.105 197.822 543.899 202.644 549.812 202.644Z" fill="#F0F7FC"/>
<path d="M549.812 231.772C555.725 231.772 560.518 226.95 560.518 221.003C560.518 215.056 555.725 210.234 549.812 210.234C543.899 210.234 539.105 215.056 539.105 221.003C539.105 226.95 543.899 231.772 549.812 231.772Z" fill="#F0F7FC"/>
<path d="M517.083 202.644C522.996 202.644 527.79 197.822 527.79 191.875C527.79 185.928 522.996 181.106 517.083 181.106C511.17 181.106 506.377 185.928 506.377 191.875C506.377 197.822 511.17 202.644 517.083 202.644Z" fill="#F0F7FC"/>
<path d="M518.341 231.772C524.254 231.772 529.047 226.95 529.047 221.003C529.047 215.056 524.254 210.234 518.341 210.234C512.428 210.234 507.635 215.056 507.635 221.003C507.635 226.95 512.428 231.772 518.341 231.772Z" fill="#F0F7FC"/>
<path d="M486.849 202.644C492.762 202.644 497.555 197.822 497.555 191.875C497.555 185.928 492.762 181.106 486.849 181.106C480.936 181.106 476.143 185.928 476.143 191.875C476.143 197.822 480.936 202.644 486.849 202.644Z" fill="#F0F7FC"/>
<path d="M486.849 231.772C492.762 231.772 497.555 226.95 497.555 221.003C497.555 215.056 492.762 210.234 486.849 210.234C480.936 210.234 476.143 215.056 476.143 221.003C476.143 226.95 480.936 231.772 486.849 231.772Z" fill="#F0F7FC"/>
<path d="M456.634 202.644C462.547 202.644 467.34 197.822 467.34 191.875C467.34 185.928 462.547 181.106 456.634 181.106C450.721 181.106 445.928 185.928 445.928 191.875C445.928 197.822 450.721 202.644 456.634 202.644Z" fill="#F0F7FC"/>
<path d="M456.634 231.772C462.547 231.772 467.34 226.95 467.34 221.003C467.34 215.056 462.547 210.234 456.634 210.234C450.721 210.234 445.928 215.056 445.928 221.003C445.928 226.95 450.721 231.772 456.634 231.772Z" fill="#F0F7FC"/>
<path d="M456.63 169.71C461.148 169.71 464.811 166.026 464.811 161.481C464.811 156.937 461.148 153.253 456.63 153.253C452.112 153.253 448.449 156.937 448.449 161.481C448.449 166.026 452.112 169.71 456.63 169.71Z" fill="#F0F7FC"/>
<path d="M426.415 169.71C430.934 169.71 434.596 166.026 434.596 161.481C434.596 156.937 430.934 153.253 426.415 153.253C421.897 153.253 418.234 156.937 418.234 161.481C418.234 166.026 421.897 169.71 426.415 169.71Z" fill="#F0F7FC"/>
<g filter="url(#filter0_d_102_3686)">
<path d="M48.642 331.091V269.114L166.858 83.1818H223.097V165.818H190.96L127.261 266.818V269.114H301.716V331.091H48.642ZM191.534 377V312.153L193.256 285.182V83.1818H267.858V377H191.534ZM463.151 385.034C436.466 384.938 413.416 378.769 394 366.527C374.585 354.285 359.616 336.638 349.096 313.588C338.575 290.538 333.362 262.897 333.458 230.665C333.553 198.337 338.814 170.887 349.239 148.315C359.76 125.743 374.68 108.575 394 96.8111C413.416 85.0469 436.466 79.1648 463.151 79.1648C489.836 79.1648 512.886 85.0947 532.302 96.9545C551.717 108.719 566.685 125.887 577.206 148.459C587.727 171.031 592.94 198.433 592.844 230.665C592.844 263.088 587.584 290.825 577.063 313.875C566.542 336.925 551.574 354.571 532.158 366.814C512.838 378.961 489.836 385.034 463.151 385.034ZM463.151 320.188C476.924 320.188 488.21 313.014 497.009 298.668C505.904 284.225 510.303 261.558 510.208 230.665C510.208 210.484 508.199 193.985 504.182 181.169C500.165 168.353 494.618 158.884 487.54 152.763C480.462 146.546 472.333 143.438 463.151 143.438C449.378 143.438 438.14 150.42 429.436 164.384C420.733 178.348 416.285 200.441 416.094 230.665C415.998 251.228 417.959 268.157 421.976 281.452C425.993 294.651 431.541 304.406 438.618 310.719C445.792 317.031 453.969 320.188 463.151 320.188ZM627.419 331.091V269.114L745.635 83.1818H801.874V165.818H769.738L706.039 266.818V269.114H880.493V331.091H627.419ZM770.311 377V312.153L772.033 285.182V83.1818H846.635V377H770.311Z" fill="white"/>
</g>
<defs>
<filter id="filter0_d_102_3686" x="0.642578" y="47.165" width="927.852" height="401.869" filterUnits="userSpaceOnUse" color-interpolation-filters="sRGB">
<feFlood flood-opacity="0" result="BackgroundImageFix"/>
<feColorMatrix in="SourceAlpha" type="matrix" values="0 0 0 0 0 0 0 0 0 0 0 0 0 0 0 0 0 0 127 0" result="hardAlpha"/>
<feOffset dy="16"/>
<feGaussianBlur stdDeviation="24"/>
<feComposite in2="hardAlpha" operator="out"/>
<feColorMatrix type="matrix" values="0 0 0 0 0.0980392 0 0 0 0 0.113725 0 0 0 0 0.145098 0 0 0 0.1 0"/>
<feBlend mode="normal" in2="BackgroundImageFix" result="effect1_dropShadow_102_3686"/>
<feBlend mode="normal" in="SourceGraphic" in2="effect1_dropShadow_102_3686" result="shape"/>
</filter>
</defs>
</svg>
