<svg width="48" height="48" viewBox="0 0 48 48" fill="none" xmlns="http://www.w3.org/2000/svg">
<path d="M8.1557 39.1004C7.5926 38.8379 6.92324 39.0815 6.66066 39.6446L5.39281 42.3635C5.13023 42.9266 5.37385 43.596 5.93696 43.8586C6.50007 44.1211 7.16942 43.8775 7.432 43.3144L8.69986 40.5955C8.96244 40.0324 8.71881 39.363 8.1557 39.1004Z" fill="#4697DD"/>
<path d="M14.2499 39.75C13.6286 39.75 13.1249 40.2537 13.1249 40.875V45.375C13.1249 45.9963 13.6286 46.5 14.2499 46.5C14.8713 46.5 15.3749 45.9963 15.3749 45.375V40.875C15.3749 40.2537 14.8713 39.75 14.2499 39.75Z" fill="#4697DD"/>
<path d="M20.1445 39.1007C19.5814 39.3633 19.3378 40.0327 19.6004 40.5958L21.0267 43.6546C21.2893 44.2177 21.9587 44.4613 22.5218 44.1987C23.0849 43.9361 23.3285 43.2668 23.0659 42.7037L21.6396 39.6449C21.377 39.0818 20.7076 38.8381 20.1445 39.1007Z" fill="#4697DD"/>
<path d="M41.625 30C41.0037 30 40.5 29.4963 40.5 28.875C40.5 28.2537 41.0037 27.75 41.625 27.75C42.2463 27.75 42.75 28.2537 42.75 28.875C42.75 29.4963 42.2463 30 41.625 30Z" fill="#4697DD"/>
<path d="M38.25 30C37.6287 30 37.125 29.4963 37.125 28.875C37.125 28.2537 37.6287 27.75 38.25 27.75C38.8713 27.75 39.375 28.2537 39.375 28.875C39.375 29.4963 38.8713 30 38.25 30Z" fill="#4697DD"/>
<path d="M27.375 30C26.7537 30 26.25 29.4963 26.25 28.875C26.25 28.2537 26.7537 27.75 27.375 27.75H34.875C35.4963 27.75 36 28.2537 36 28.875C36 29.4963 35.4963 30 34.875 30H27.375Z" fill="#4697DD"/>
<path d="M27.375 25.5C26.7537 25.5 26.25 24.9963 26.25 24.375C26.25 23.7537 26.7537 23.25 27.375 23.25H41.625C42.2463 23.25 42.75 23.7537 42.75 24.375C42.75 24.9963 42.2463 25.5 41.625 25.5H27.375Z" fill="#4697DD"/>
<path fill-rule="evenodd" clip-rule="evenodd" d="M17.25 7.125C15.386 7.125 13.875 5.61396 13.875 3.75H16.125C16.125 4.37132 16.6287 4.875 17.25 4.875H30.75C31.3713 4.875 31.875 4.37132 31.875 3.75H34.125C34.125 5.61396 32.614 7.125 30.75 7.125H17.25Z" fill="#4697DD"/>
<path fill-rule="evenodd" clip-rule="evenodd" d="M3 22.125L3 31.125C3 32.3676 4.00736 33.375 5.25 33.375H42.75C43.9926 33.375 45 32.3676 45 31.125V22.125C45 20.8824 43.9926 19.875 42.75 19.875H5.25C4.00736 19.875 3 20.8824 3 22.125ZM0.75 31.125C0.75 33.6103 2.76472 35.625 5.25 35.625H42.75C45.2353 35.625 47.25 33.6103 47.25 31.125V22.125C47.25 19.6397 45.2353 17.625 42.75 17.625L5.25 17.625C2.76472 17.625 0.75 19.6397 0.75 22.125L0.75 31.125Z" fill="#4697DD"/>
<path d="M22.875 6.375C22.875 5.75368 23.3787 5.25 24 5.25C24.6213 5.25 25.125 5.75368 25.125 6.375V17.625C25.125 18.2463 24.6213 18.75 24 18.75C23.3787 18.75 22.875 18.2463 22.875 17.625V6.375Z" fill="#4697DD"/>
<path d="M10.125 3.75C9.50368 3.75 9 3.24632 9 2.625C9 2.00368 9.50368 1.5 10.125 1.5L37.875 1.5C38.4963 1.5 39 2.00368 39 2.625C39 3.24632 38.4963 3.75 37.875 3.75L10.125 3.75Z" fill="#4697DD"/>
<path d="M23.25 29.625C23.25 34.5956 19.2206 38.625 14.25 38.625C9.27944 38.625 5.25 34.5956 5.25 29.625C5.25 24.6544 9.27944 20.625 14.25 20.625C19.2206 20.625 23.25 24.6544 23.25 29.625Z" fill="white"/>
<path fill-rule="evenodd" clip-rule="evenodd" d="M14.25 36.375C17.9779 36.375 21 33.3529 21 29.625C21 25.8971 17.9779 22.875 14.25 22.875C10.5221 22.875 7.5 25.8971 7.5 29.625C7.5 33.3529 10.5221 36.375 14.25 36.375ZM14.25 38.625C19.2206 38.625 23.25 34.5956 23.25 29.625C23.25 24.6544 19.2206 20.625 14.25 20.625C9.27944 20.625 5.25 24.6544 5.25 29.625C5.25 34.5956 9.27944 38.625 14.25 38.625Z" fill="#4697DD"/>
<path d="M19.5 29.625C19.5 32.5245 17.1495 34.875 14.25 34.875C11.3505 34.875 9 32.5245 9 29.625C9 26.7255 11.3505 24.375 14.25 24.375C17.1495 24.375 19.5 26.7255 19.5 29.625Z" fill="white"/>
<path fill-rule="evenodd" clip-rule="evenodd" d="M14.25 32.625C15.9069 32.625 17.25 31.2819 17.25 29.625C17.25 27.9681 15.9069 26.625 14.25 26.625C12.5931 26.625 11.25 27.9681 11.25 29.625C11.25 31.2819 12.5931 32.625 14.25 32.625ZM14.25 34.875C17.1495 34.875 19.5 32.5245 19.5 29.625C19.5 26.7255 17.1495 24.375 14.25 24.375C11.3505 24.375 9 26.7255 9 29.625C9 32.5245 11.3505 34.875 14.25 34.875Z" fill="#4697DD"/>
</svg>
