<svg width="48" height="48" viewBox="0 0 48 48" fill="none" xmlns="http://www.w3.org/2000/svg">
<path fill-rule="evenodd" clip-rule="evenodd" d="M35.1294 35.8772C35.1496 35.8219 35.1764 35.7408 35.2081 35.6298C35.3028 35.2985 35.3983 34.8532 35.4876 34.3468C35.6649 33.3424 35.7861 32.2847 35.8354 31.8155L38.5401 6.08223C38.67 4.8464 37.7734 3.73926 36.5376 3.60937C35.3504 3.4846 34.2821 4.30696 34.0846 5.46738C34.0853 5.4834 34.0862 5.50028 34.087 5.51801C34.095 5.68654 34.1058 5.93128 34.1175 6.2418C34.1408 6.86261 34.1675 7.74768 34.1818 8.81356C34.2101 10.9402 34.189 13.8101 33.9868 16.7471C33.7864 19.6578 33.401 22.7535 32.6593 25.2799C32.2891 26.5408 31.7989 27.7708 31.123 28.7887C30.4482 29.8048 29.4677 30.7847 28.0756 31.1876C23.9715 32.3757 20.2075 31.8441 17.2769 31.0936C16.1092 30.7946 15.026 30.4467 14.135 30.1605C13.9219 30.092 13.7197 30.0271 13.53 29.9672C12.4088 29.6132 11.9079 29.5047 11.7 29.5047C10.4574 29.5047 9.45001 30.5121 9.45001 31.7547C9.45001 32.5294 9.80972 33.9372 10.4864 35.1592C10.8138 35.7504 11.1499 36.176 11.4349 36.4269C11.5994 36.5717 11.6976 36.6173 11.7315 36.6297H33.45C34.1165 36.6297 34.7145 36.3422 35.1294 35.8772ZM11.7449 36.6339C11.7449 36.6339 11.7435 36.6337 11.7408 36.6328C11.7435 36.6334 11.7449 36.6338 11.7449 36.6339ZM31.827 5.37667C31.827 5.37667 33.0595 27.4026 27.45 29.0264C22.4615 30.4704 17.956 29.0239 14.8495 28.0266C13.5191 27.5995 12.4452 27.2547 11.7 27.2547C9.21473 27.2547 7.20001 29.2694 7.20001 31.7547C7.20001 34.24 9.21473 38.8797 11.7 38.8797H33.45C34.8663 38.8797 36.1298 38.2254 36.9547 37.2026C37.5628 36.5227 37.9704 33.0271 38.0731 32.0507L40.7777 6.31742C41.0375 3.84576 39.2444 1.63148 36.7728 1.3717C34.3011 1.11191 32.0868 2.905 31.827 5.37667ZM35.1018 35.9473C35.0967 35.9588 35.094 35.964 35.0939 35.9638C35.0938 35.9635 35.0963 35.9577 35.1018 35.9473Z" fill="#4697DD"/>
<path d="M14.5531 23.6323C14.661 23.0204 15.2445 22.6119 15.8564 22.7198C16.4683 22.8277 16.8768 23.4112 16.7689 24.023L12.9745 45.5423C12.8666 46.1542 12.2831 46.5628 11.6712 46.4549C11.0594 46.347 10.6508 45.7635 10.7587 45.1516L14.5531 23.6323Z" fill="#4697DD"/>
<path d="M32.3174 38.5024C32.2095 37.8906 32.618 37.3071 33.2299 37.1992C33.8418 37.0913 34.4253 37.4999 34.5332 38.1117L35.775 45.1543C35.8829 45.7662 35.4743 46.3497 34.8624 46.4576C34.2505 46.5655 33.6671 46.1569 33.5592 45.545L32.3174 38.5024Z" fill="#4697DD"/>
<path d="M15.825 24.9014C15.2037 24.9014 14.7 24.3977 14.7 23.7764C14.7 23.155 15.2037 22.6514 15.825 22.6514L34.95 22.6514C35.5713 22.6514 36.075 23.155 36.075 23.7764C36.075 24.3977 35.5713 24.9014 34.95 24.9014L15.825 24.9014Z" fill="#4697DD"/>
</svg>
