<svg width="48" height="48" viewBox="0 0 48 48" fill="none" xmlns="http://www.w3.org/2000/svg">
<path fill-rule="evenodd" clip-rule="evenodd" d="M42.8276 9.33789H5.17241V32.5879C5.17241 33.4163 5.82083 34.0879 6.62069 34.0879H41.3793C42.1792 34.0879 42.8276 33.4163 42.8276 32.5879V9.33789ZM3 7.08789V32.5879C3 34.659 4.62104 36.3379 6.62069 36.3379H41.3793C43.379 36.3379 45 34.659 45 32.5879V7.08789H3Z" fill="#4697DD"/>
<path fill-rule="evenodd" clip-rule="evenodd" d="M44.625 4.83789H3.375C2.75368 4.83789 2.25 5.34157 2.25 5.96289C2.25 6.58421 2.75368 7.08789 3.375 7.08789H44.625C45.2463 7.08789 45.75 6.58421 45.75 5.96289C45.75 5.34157 45.2463 4.83789 44.625 4.83789ZM3.375 2.58789C1.51104 2.58789 0 4.09893 0 5.96289C0 7.82685 1.51104 9.33789 3.375 9.33789H44.625C46.489 9.33789 48 7.82685 48 5.96289C48 4.09893 46.489 2.58789 44.625 2.58789H3.375Z" fill="#4697DD"/>
<path d="M38.25 9.33789C38.25 8.71657 38.7537 8.21289 39.375 8.21289C39.9963 8.21289 40.5 8.71657 40.5 9.33789V25.0879C40.5 25.7092 39.9963 26.2129 39.375 26.2129C38.7537 26.2129 38.25 25.7092 38.25 25.0879V9.33789Z" fill="#4697DD"/>
<path d="M22.875 35.2129C22.875 34.5916 23.3787 34.0879 24 34.0879C24.6213 34.0879 25.125 34.5916 25.125 35.2129V43.4629C25.125 44.0842 24.6213 44.5879 24 44.5879C23.3787 44.5879 22.875 44.0842 22.875 43.4629V35.2129Z" fill="#4697DD"/>
<path d="M26.5203 36.3005C26.1639 35.7915 26.2876 35.09 26.7965 34.7336C27.3055 34.3773 28.007 34.5009 28.3634 35.0099L35.6765 45.4541C36.0328 45.963 35.9091 46.6645 35.4002 47.0209C34.8912 47.3773 34.1897 47.2536 33.8334 46.7446L26.5203 36.3005Z" fill="#4697DD"/>
<path d="M19.5834 35.0094C19.9397 34.5005 20.6412 34.3768 21.1502 34.7332C21.6591 35.0895 21.7828 35.791 21.4265 36.3L14.1134 46.7442C13.757 47.2531 13.0555 47.3768 12.5465 47.0204C12.0376 46.6641 11.9139 45.9626 12.2703 45.4536L19.5834 35.0094Z" fill="#4697DD"/>
</svg>
