<svg width="48" height="48" viewBox="0 0 48 48" fill="none" xmlns="http://www.w3.org/2000/svg">
<g clip-path="url(#clip0_325_9478)">
<path fill-rule="evenodd" clip-rule="evenodd" d="M39.0502 18.5854C40.3633 18.5658 41.2892 19.8674 40.84 21.1015L33.376 41.6088C32.9268 42.8429 31.3809 43.2448 30.3876 42.3857L25.2276 37.9232C24.6392 37.4143 24.4261 36.5948 24.6922 35.8637L30.495 19.9207C30.7611 19.1896 31.4511 18.6988 32.229 18.6872L39.0502 18.5854ZM38.5396 20.8433L32.5209 20.9331L26.8949 36.3904L31.4478 40.3279L38.5396 20.8433Z" fill="#4697DD"/>
<path fill-rule="evenodd" clip-rule="evenodd" d="M7.52586 13.4049C8.16337 11.6533 10.1001 10.7502 11.8516 11.3877L32.1138 18.7625L31.3442 20.8768L11.0821 13.502C10.4982 13.2895 9.85267 13.5906 9.64017 14.1744L5.02289 26.8603C4.81039 27.4441 5.11143 28.0897 5.69528 28.3022L25.9574 35.677L25.1879 37.7913L4.92573 30.4165C3.17418 29.779 2.27107 27.8423 2.90859 26.0907L7.52586 13.4049Z" fill="#4697DD"/>
<path fill-rule="evenodd" clip-rule="evenodd" d="M2.79978 14.8765C3.4373 13.125 5.37401 12.2219 7.12556 12.8594L7.83033 13.1159L7.06079 15.2302L6.35602 14.9737C5.77217 14.7612 5.1266 15.0622 4.91409 15.6461L2.34894 22.6938C2.13644 23.2776 2.43747 23.9232 3.02132 24.1357L3.72609 24.3922L2.95655 26.5065L2.25178 26.25C0.500226 25.6125 -0.40288 23.6758 0.234632 21.9242L2.79978 14.8765Z" fill="#4697DD"/>
<path d="M18.375 5.75293C18.375 5.13161 18.8787 4.62793 19.5 4.62793C20.1213 4.62793 20.625 5.13161 20.625 5.75293V24.5029C20.625 25.1243 20.1213 25.6279 19.5 25.6279C18.8787 25.6279 18.375 25.1243 18.375 24.5029V5.75293Z" fill="#4697DD"/>
<path d="M42.3072 27.375C41.7233 27.1625 41.4223 26.5169 41.6348 25.9331C41.8473 25.3492 42.4928 25.0482 43.0767 25.2607L47.0966 26.7238C47.6804 26.9363 47.9815 27.5819 47.769 28.1657C47.5565 28.7496 46.9109 29.0506 46.327 28.8381L42.3072 27.375Z" fill="#4697DD"/>
<path d="M38.5572 33.75C37.9733 33.5375 37.6723 32.8919 37.8848 32.3081C38.0973 31.7242 38.7428 31.4232 39.3267 31.6357L42.4261 32.7638C43.0099 32.9763 43.311 33.6219 43.0985 34.2057C42.886 34.7896 42.2404 35.0906 41.6565 34.8781L38.5572 33.75Z" fill="#4697DD"/>
<path d="M38.1822 40.125C37.5983 39.9125 37.2973 39.2669 37.5098 38.6831C37.7223 38.0992 38.3678 37.7982 38.9517 38.0107L45.0538 40.2317C45.6377 40.4442 45.9387 41.0898 45.7262 41.6736C45.5137 42.2575 44.8681 42.5585 44.2843 42.346L38.1822 40.125Z" fill="#4697DD"/>
<rect x="6.75" y="26.8643" width="2.25" height="4.674" rx="1.125" transform="rotate(-70 6.75 26.8643)" fill="#4697DD"/>
<rect x="12" y="28.7393" width="2.25" height="2.25" rx="1.125" transform="rotate(-70 12 28.7393)" fill="#4697DD"/>
</g>
<defs>
<clipPath id="clip0_325_9478">
<rect width="48" height="48" fill="white"/>
</clipPath>
</defs>
</svg>
