<svg width="257" height="48" viewBox="0 0 257 48" fill="none" xmlns="http://www.w3.org/2000/svg">
<g clip-path="url(#clip0_101_1689)">
<path fill-rule="evenodd" clip-rule="evenodd" d="M71.9863 0.127075C71.6465 0.212542 71.1001 0.409304 70.7742 0.564336C70.4483 0.717381 69.9019 1.10299 69.5601 1.421C69.2163 1.73902 68.7891 2.27765 68.6023 2.62746C68.4175 2.9733 68.193 3.54175 68.1016 3.88759C68.0122 4.23542 67.9386 4.88537 67.9386 5.33258C67.9386 5.77979 68.0102 6.42179 68.0976 6.7557C68.183 7.09161 68.3619 7.59248 68.493 7.86875C68.6222 8.14702 69.0097 8.67174 69.3495 9.03746C69.6992 9.41113 70.2417 9.84443 70.5914 10.0313C70.9332 10.2121 71.5015 10.4447 71.8552 10.548C72.2705 10.6713 72.8607 10.7369 73.5184 10.7369C74.1761 10.7369 74.7683 10.6713 75.1836 10.548C75.5373 10.4447 76.1016 10.2141 76.4394 10.0352C76.7752 9.85635 77.3455 9.4151 77.7052 9.05534C78.1046 8.65584 78.4782 8.14901 78.665 7.75348C78.8339 7.39571 79.0246 6.84912 79.0882 6.53508C79.1538 6.22303 79.2074 5.66452 79.2074 5.29682C79.2074 4.92911 79.1339 4.34276 79.0425 3.99493C78.9531 3.64909 78.7345 3.09257 78.5576 2.76064C78.3808 2.42871 78.0331 1.94771 77.7827 1.68932C77.5343 1.43094 77.0832 1.06124 76.7812 0.866455C76.4791 0.673658 75.9228 0.409319 75.5472 0.282113C75.0663 0.117143 74.5219 0.0356503 73.733 0.00782398C72.9759 -0.0180148 72.4036 0.0197447 71.9863 0.127075ZM0 24.3897V45.2694H15.2946H30.5873V41.0278V36.7883H20.2842H9.98116V32.3857V27.9852H18.621H27.2609V24.1193V20.2555H18.621H9.98116V16.1769V12.0964H20.2842H30.5873V7.80317V3.50798H15.2946H0V24.3897ZM94.5557 15.3242C93.8761 15.3719 92.8269 15.5091 92.2229 15.6323C91.6188 15.7555 90.7743 15.9841 90.3451 16.1371C89.9159 16.2922 89.274 16.5625 88.9203 16.7394C88.5666 16.9163 87.9864 17.2661 87.6327 17.5185C87.279 17.769 86.7166 18.2619 86.3828 18.6117C86.051 18.9635 85.5979 19.53 85.3793 19.8738C85.1588 20.2157 84.8388 20.7981 84.668 21.1658C84.4951 21.5315 84.2805 22.1854 84.1911 22.6167C84.1016 23.048 84.0281 23.9186 84.0281 24.5527C84.0301 25.1847 84.1056 26.0831 84.199 26.5482C84.2944 27.0292 84.5686 27.8123 84.8329 28.3609C85.0872 28.8916 85.5184 29.627 85.7887 29.9907C86.0589 30.3564 86.5934 30.9149 86.977 31.229C87.3585 31.545 88.042 32.0141 88.4931 32.2745C88.9462 32.5328 89.8662 32.9542 90.5378 33.2106C91.2095 33.467 92.4236 33.8645 93.2383 34.0971C94.051 34.3277 95.3446 34.6934 96.1116 34.91C96.8786 35.1247 97.8344 35.4745 98.2358 35.6852C98.6352 35.8939 99.0704 36.2179 99.2015 36.4007C99.3645 36.6313 99.438 36.8897 99.438 37.2375C99.438 37.5774 99.3665 37.8358 99.2135 38.0425C99.0903 38.2094 98.8021 38.4519 98.5736 38.5811C98.3431 38.7103 97.8165 38.8733 97.4032 38.9448C96.9243 39.0243 96.1573 39.0482 95.3068 39.0064C94.5696 38.9687 93.5304 38.8435 92.9998 38.7242C92.4673 38.6069 91.4777 38.3287 90.7981 38.1081C90.1205 37.8874 88.8786 37.3627 88.042 36.9433L86.5179 36.1821L85.7151 38.0146C85.272 39.0224 84.6143 40.4912 84.2507 41.2783C83.889 42.0654 83.6168 42.7749 83.6466 42.8544C83.6784 42.9359 84.0559 43.1963 84.4871 43.4368C84.9183 43.6773 85.7628 44.0669 86.3629 44.3034C86.963 44.5379 87.9049 44.854 88.4553 45.003C89.0058 45.1501 90.1364 45.3906 90.965 45.5337C91.7937 45.6788 93.2422 45.8537 94.1841 45.9233C95.1797 45.9968 96.6163 46.0207 97.6138 45.9809C98.5597 45.9451 99.8136 45.8418 100.406 45.7543C100.996 45.6669 101.719 45.5397 102.015 45.4741C102.309 45.4085 102.89 45.2554 103.303 45.1342C103.716 45.013 104.449 44.7347 104.932 44.5121C105.415 44.2915 106.043 43.9516 106.327 43.7568C106.611 43.564 107.146 43.1426 107.516 42.8206C107.885 42.4986 108.408 41.9044 108.678 41.4989C108.946 41.0934 109.286 40.4614 109.429 40.0917C109.574 39.724 109.771 39.0383 109.866 38.5672C109.997 37.9133 110.025 37.3567 109.98 36.2039C109.938 35.1247 109.854 34.4648 109.689 33.8904C109.564 33.4491 109.282 32.7495 109.065 32.3381C108.849 31.9266 108.382 31.2767 108.026 30.897C107.671 30.5174 107.066 29.9688 106.683 29.6786C106.299 29.3865 105.503 28.9095 104.912 28.6193C104.322 28.3271 103.2 27.8739 102.415 27.6096C101.632 27.3472 100.014 26.8841 98.82 26.582C97.6258 26.2779 96.2805 25.8903 95.8314 25.7174C95.3386 25.5286 94.8597 25.2543 94.6273 25.0297C94.4027 24.811 94.2139 24.5069 94.1742 24.2943C94.1305 24.0557 94.1662 23.8192 94.2755 23.6066C94.3689 23.4277 94.5716 23.1792 94.7286 23.056C94.8856 22.9328 95.2512 22.7618 95.5433 22.6744C95.8334 22.5889 96.4176 22.4855 96.8429 22.4478C97.2661 22.41 98.1464 22.4339 98.7942 22.5034C99.444 22.573 100.43 22.728 100.986 22.8473C101.54 22.9685 102.482 23.2349 103.078 23.4396C103.674 23.6443 104.698 24.0756 105.354 24.3956C106.009 24.7176 106.592 24.98 106.647 24.98C106.703 24.98 106.947 24.4831 107.19 23.8789C107.434 23.2726 108.066 21.7163 108.596 20.4184C109.129 19.1186 109.538 18.0194 109.511 17.9737C109.483 17.928 109.232 17.7749 108.956 17.6358C108.68 17.4967 107.979 17.2065 107.398 16.9898C106.818 16.7732 105.66 16.4313 104.823 16.2306C103.986 16.0279 102.619 15.7655 101.783 15.6442C100.946 15.521 99.3287 15.3759 98.1881 15.3183C97.0455 15.2606 96.0401 15.2189 95.9507 15.2268C95.8612 15.2348 95.2333 15.2785 94.5557 15.3242ZM33.7011 16.0795C33.7011 16.1431 33.7905 16.324 33.8978 16.481C34.0071 16.638 34.9569 18.1923 36.0101 19.9335C37.0612 21.6746 38.4383 23.8967 39.0662 24.8727C39.6941 25.8466 40.7294 27.5042 41.3633 28.5596C41.9972 29.6131 42.4919 30.5393 42.4621 30.6168C42.4323 30.6943 41.6633 31.9584 40.7533 33.4253C39.8451 34.8901 37.8561 38.0961 36.3359 40.5448C34.8158 42.9956 33.5222 45.0607 33.4626 45.1342C33.3752 45.2415 34.474 45.2694 38.8933 45.2694H44.4333L44.7294 44.7248C44.8904 44.4246 45.2341 43.8085 45.4905 43.3553C45.7468 42.9021 46.6549 41.167 47.5113 39.4994C48.3658 37.8318 49.105 36.4663 49.1507 36.4663C49.1964 36.4663 49.9376 37.8318 50.796 39.4994C51.6564 41.167 52.6639 43.1486 53.0355 43.8999L53.713 45.2694H59.269C62.3251 45.2694 64.8249 45.2455 64.8249 45.2157C64.8249 45.1859 62.649 41.9183 59.9883 37.955C57.3256 33.9917 55.1259 30.6884 55.0981 30.6148C55.0682 30.5393 55.4736 29.8317 55.9982 29.0446C56.5248 28.2555 58.4503 25.3874 60.2804 22.6704C62.1125 19.9553 63.8591 17.3734 64.1632 16.9362C64.4692 16.4969 64.7176 16.0974 64.7176 16.0497C64.7176 16 62.2178 15.9622 59.1617 15.9622H53.6058L53.0315 17.1151C52.7155 17.7491 52.022 19.0907 51.4895 20.0945C50.955 21.0982 50.2337 22.4637 49.8839 23.1275C49.5342 23.7914 49.2103 24.334 49.1626 24.334C49.1149 24.334 48.485 23.1872 47.7637 21.7859C47.0404 20.3827 46.0568 18.5004 45.5759 17.602L44.7016 15.9682L39.2013 15.9642C35.2828 15.9622 33.7011 15.996 33.7011 16.0795ZM68.5825 30.6148V45.2694H73.4647H78.349V30.6148V15.9622H73.4647H68.5825V30.6148Z" fill="#989EAC"/>
</g>
<path d="M138.004 14.8201H139.834V21.7605H139.928L144.716 14.8201H146.371V25.002H144.527V18.0666H144.442L139.64 25.002H138.004V14.8201ZM153.547 20.438V21.9146H149.48V20.438H153.547ZM150.037 17.3656V25.002H148.302V17.3656H150.037ZM154.725 17.3656V25.002H152.995V17.3656H154.725ZM155.691 18.8422V17.3656H162.373V18.8422H159.902V25.002H158.162V18.8422H155.691ZM166.872 25.1511C166.106 25.1511 165.445 24.992 164.888 24.6738C164.335 24.3523 163.909 23.8983 163.61 23.3116C163.312 22.7216 163.163 22.0273 163.163 21.2285C163.163 20.443 163.312 19.7536 163.61 19.1603C163.912 18.5637 164.333 18.0997 164.873 17.7683C165.413 17.4335 166.048 17.2662 166.777 17.2662C167.248 17.2662 167.692 17.3424 168.11 17.4949C168.531 17.644 168.902 17.876 169.223 18.1909C169.548 18.5057 169.803 18.9068 169.989 19.394C170.175 19.8779 170.267 20.4546 170.267 21.1241V21.676H164.008V20.4629H168.542C168.539 20.1182 168.464 19.8116 168.319 19.5431C168.173 19.2714 167.969 19.0576 167.707 18.9018C167.449 18.746 167.147 18.6681 166.802 18.6681C166.434 18.6681 166.111 18.7576 165.833 18.9366C165.554 19.1123 165.337 19.3443 165.181 19.6326C165.029 19.9177 164.951 20.2309 164.948 20.5723V21.6312C164.948 22.0753 165.029 22.4565 165.191 22.7747C165.354 23.0895 165.581 23.3315 165.873 23.5005C166.164 23.6663 166.506 23.7491 166.897 23.7491C167.158 23.7491 167.395 23.7127 167.608 23.6397C167.82 23.5635 168.004 23.4525 168.159 23.3066C168.315 23.1608 168.433 22.9802 168.512 22.7647L170.193 22.9537C170.087 23.3978 169.885 23.7856 169.586 24.117C169.291 24.4451 168.913 24.7003 168.453 24.8826C167.992 25.0616 167.465 25.1511 166.872 25.1511ZM176.841 17.3656V18.8422H173.55V25.002H171.79V17.3656H176.841ZM178.284 27.8656V17.3656H180.054V18.6284H180.158C180.251 18.4428 180.382 18.2456 180.551 18.0368C180.72 17.8246 180.949 17.644 181.237 17.4949C181.526 17.3424 181.893 17.2662 182.341 17.2662C182.931 17.2662 183.463 17.417 183.937 17.7186C184.414 18.0169 184.792 18.4593 185.07 19.046C185.352 19.6293 185.493 20.3452 185.493 21.1937C185.493 22.0323 185.355 22.7449 185.08 23.3315C184.805 23.9181 184.431 24.3656 183.957 24.6738C183.483 24.9821 182.946 25.1362 182.346 25.1362C181.908 25.1362 181.545 25.0633 181.257 24.9174C180.969 24.7716 180.737 24.5959 180.561 24.3904C180.389 24.1816 180.254 23.9844 180.158 23.7988H180.084V27.8656H178.284ZM180.049 21.1838C180.049 21.6776 180.119 22.1101 180.258 22.4814C180.4 22.8526 180.604 23.1426 180.869 23.3514C181.138 23.5569 181.463 23.6596 181.844 23.6596C182.241 23.6596 182.575 23.5536 182.843 23.3414C183.112 23.126 183.314 22.8327 183.45 22.4615C183.589 22.0869 183.658 21.661 183.658 21.1838C183.658 20.7098 183.59 20.2889 183.455 19.921C183.319 19.5531 183.116 19.2647 182.848 19.0559C182.58 18.8471 182.245 18.7427 181.844 18.7427C181.459 18.7427 181.133 18.8438 180.864 19.046C180.596 19.2482 180.392 19.5315 180.253 19.8961C180.117 20.2607 180.049 20.6899 180.049 21.1838ZM189.232 25.1561C188.748 25.1561 188.312 25.0699 187.924 24.8975C187.54 24.7219 187.235 24.4634 187.009 24.122C186.787 23.7806 186.676 23.3597 186.676 22.8592C186.676 22.4283 186.756 22.072 186.915 21.7903C187.074 21.5086 187.291 21.2832 187.566 21.1142C187.841 20.9451 188.151 20.8175 188.496 20.7314C188.844 20.6419 189.203 20.5772 189.575 20.5375C190.022 20.4911 190.385 20.4496 190.663 20.4132C190.942 20.3734 191.144 20.3137 191.27 20.2342C191.399 20.1513 191.464 20.0237 191.464 19.8514V19.8216C191.464 19.447 191.353 19.157 191.131 18.9515C190.909 18.746 190.589 18.6433 190.171 18.6433C189.73 18.6433 189.381 18.7394 189.122 18.9316C188.867 19.1239 188.695 19.3509 188.605 19.6127L186.925 19.3741C187.057 18.9101 187.276 18.5223 187.581 18.2108C187.886 17.8959 188.259 17.6606 188.7 17.5048C189.14 17.3457 189.628 17.2662 190.161 17.2662C190.529 17.2662 190.895 17.3092 191.26 17.3954C191.625 17.4816 191.958 17.6241 192.259 17.823C192.561 18.0185 192.803 18.2853 192.985 18.6234C193.171 18.9615 193.263 19.3841 193.263 19.8912V25.002H191.533V23.9529H191.474C191.364 24.1651 191.21 24.3639 191.011 24.5495C190.816 24.7318 190.569 24.8793 190.271 24.992C189.976 25.1014 189.629 25.1561 189.232 25.1561ZM189.699 23.8336C190.06 23.8336 190.373 23.7624 190.638 23.6199C190.904 23.474 191.107 23.2818 191.25 23.0431C191.396 22.8045 191.469 22.5443 191.469 22.2626V21.3627C191.412 21.4092 191.316 21.4522 191.18 21.492C191.048 21.5318 190.899 21.5666 190.733 21.5964C190.567 21.6262 190.403 21.6528 190.241 21.676C190.078 21.6992 189.938 21.719 189.818 21.7356C189.55 21.7721 189.309 21.8317 189.097 21.9146C188.885 21.9975 188.718 22.1135 188.595 22.2626C188.473 22.4084 188.411 22.5974 188.411 22.8294C188.411 23.1608 188.532 23.411 188.774 23.5801C189.016 23.7491 189.324 23.8336 189.699 23.8336ZM201.521 17.3656V23.6596H202.69V27.4579H200.93V25.002H195.073V17.3656H196.808V23.5254H199.801V17.3656H201.521ZM205.9 22.5659L208.958 17.3656H210.807V25.002H209.067V19.7967L206.019 25.002H204.165V17.3656H205.9V22.5659ZM215.986 25.1511C215.24 25.1511 214.594 24.987 214.047 24.6589C213.5 24.3308 213.076 23.8717 212.775 23.2818C212.476 22.6918 212.327 22.0024 212.327 21.2136C212.327 20.4248 212.476 19.7337 212.775 19.1404C213.076 18.5472 213.5 18.0865 214.047 17.7583C214.594 17.4302 215.24 17.2662 215.986 17.2662C216.732 17.2662 217.378 17.4302 217.925 17.7583C218.472 18.0865 218.895 18.5472 219.193 19.1404C219.494 19.7337 219.645 20.4248 219.645 21.2136C219.645 22.0024 219.494 22.6918 219.193 23.2818C218.895 23.8717 218.472 24.3308 217.925 24.6589C217.378 24.987 216.732 25.1511 215.986 25.1511ZM215.996 23.7093C216.4 23.7093 216.739 23.5983 217.01 23.3762C217.282 23.1509 217.484 22.8493 217.617 22.4714C217.753 22.0936 217.821 21.6726 217.821 21.2086C217.821 20.7413 217.753 20.3187 217.617 19.9409C217.484 19.5597 217.282 19.2565 217.01 19.0311C216.739 18.8057 216.4 18.693 215.996 18.693C215.582 18.693 215.237 18.8057 214.962 19.0311C214.69 19.2565 214.486 19.5597 214.35 19.9409C214.218 20.3187 214.152 20.7413 214.152 21.2086C214.152 21.6726 214.218 22.0936 214.35 22.4714C214.486 22.8493 214.69 23.1509 214.962 23.3762C215.237 23.5983 215.582 23.7093 215.996 23.7093ZM226.418 20.438V21.9146H222.351V20.438H226.418ZM222.908 17.3656V25.002H221.173V17.3656H222.908ZM227.596 17.3656V25.002H225.866V17.3656H227.596ZM234.662 20.438V21.9146H230.595V20.438H234.662ZM231.152 17.3656V25.002H229.417V17.3656H231.152ZM235.84 17.3656V25.002H234.11V17.3656H235.84ZM238.879 19.8514H241.131C242.106 19.8514 242.86 20.0884 243.393 20.5623C243.927 21.0363 244.195 21.6577 244.199 22.4267C244.195 22.9271 244.073 23.3713 243.831 23.7591C243.592 24.1468 243.244 24.4518 242.787 24.6738C242.333 24.8926 241.781 25.002 241.131 25.002H237.661V17.3656H239.396V23.5254H241.131C241.522 23.5254 241.844 23.426 242.096 23.2271C242.348 23.0249 242.474 22.7664 242.474 22.4515C242.474 22.1201 242.348 21.85 242.096 21.6412C241.844 21.4324 241.522 21.3279 241.131 21.3279H238.879V19.8514ZM245.148 25.002V17.3656H246.948V25.002H245.148ZM252.184 25.1511C251.419 25.1511 250.757 24.992 250.201 24.6738C249.647 24.3523 249.221 23.8983 248.923 23.3116C248.625 22.7216 248.475 22.0273 248.475 21.2285C248.475 20.443 248.625 19.7536 248.923 19.1603C249.225 18.5637 249.645 18.0997 250.186 17.7683C250.726 17.4335 251.361 17.2662 252.09 17.2662C252.56 17.2662 253.005 17.3424 253.422 17.4949C253.843 17.644 254.214 17.876 254.536 18.1909C254.861 18.5057 255.116 18.9068 255.301 19.394C255.487 19.8779 255.58 20.4546 255.58 21.1241V21.676H249.321V20.4629H253.855C253.851 20.1182 253.777 19.8116 253.631 19.5431C253.485 19.2714 253.281 19.0576 253.02 18.9018C252.761 18.746 252.459 18.6681 252.115 18.6681C251.747 18.6681 251.424 18.7576 251.145 18.9366C250.867 19.1123 250.65 19.3443 250.494 19.6326C250.342 19.9177 250.264 20.2309 250.26 20.5723V21.6312C250.26 22.0753 250.342 22.4565 250.504 22.7747C250.666 23.0895 250.893 23.3315 251.185 23.5005C251.477 23.6663 251.818 23.7491 252.209 23.7491C252.471 23.7491 252.708 23.7127 252.92 23.6397C253.132 23.5635 253.316 23.4525 253.472 23.3066C253.628 23.1608 253.745 22.9802 253.825 22.7647L255.505 22.9537C255.399 23.3978 255.197 23.7856 254.899 24.117C254.604 24.4451 254.226 24.7003 253.765 24.8826C253.305 25.0616 252.778 25.1511 252.184 25.1511ZM137.925 45.8656V35.3656H139.695V36.6284H139.799C139.892 36.4428 140.023 36.2456 140.192 36.0368C140.361 35.8246 140.589 35.644 140.878 35.4949C141.166 35.3424 141.534 35.2662 141.982 35.2662C142.571 35.2662 143.103 35.417 143.577 35.7186C144.055 36.0169 144.433 36.4593 144.711 37.046C144.993 37.6293 145.134 38.3452 145.134 39.1937C145.134 40.0323 144.996 40.7449 144.721 41.3315C144.446 41.9181 144.071 42.3656 143.597 42.6738C143.123 42.9821 142.586 43.1362 141.987 43.1362C141.549 43.1362 141.186 43.0633 140.898 42.9174C140.609 42.7716 140.377 42.5959 140.202 42.3904C140.029 42.1816 139.895 41.9844 139.799 41.7988H139.724V45.8656H137.925ZM139.69 39.1838C139.69 39.6776 139.759 40.1101 139.898 40.4814C140.041 40.8526 140.245 41.1426 140.51 41.3514C140.778 41.5569 141.103 41.6596 141.484 41.6596C141.882 41.6596 142.215 41.5536 142.484 41.3414C142.752 41.126 142.954 40.8327 143.09 40.4615C143.229 40.0869 143.299 39.661 143.299 39.1838C143.299 38.7098 143.231 38.2889 143.095 37.921C142.959 37.5531 142.757 37.2647 142.489 37.0559C142.22 36.8471 141.885 36.7427 141.484 36.7427C141.1 36.7427 140.773 36.8438 140.505 37.046C140.237 37.2482 140.033 37.5315 139.893 37.8961C139.758 38.2607 139.69 38.6899 139.69 39.1838ZM150.055 43.1511C149.29 43.1511 148.629 42.992 148.072 42.6738C147.518 42.3523 147.092 41.8983 146.794 41.3116C146.496 40.7216 146.347 40.0273 146.347 39.2285C146.347 38.443 146.496 37.7536 146.794 37.1603C147.096 36.5637 147.517 36.0997 148.057 35.7683C148.597 35.4335 149.232 35.2662 149.961 35.2662C150.432 35.2662 150.876 35.3424 151.293 35.4949C151.714 35.644 152.085 35.876 152.407 36.1909C152.732 36.5057 152.987 36.9068 153.173 37.394C153.358 37.8779 153.451 38.4546 153.451 39.1241V39.676H147.192V38.4629H151.726C151.723 38.1182 151.648 37.8116 151.502 37.5431C151.356 37.2714 151.152 37.0576 150.891 36.9018C150.632 36.746 150.33 36.6681 149.986 36.6681C149.618 36.6681 149.295 36.7576 149.016 36.9366C148.738 37.1123 148.521 37.3443 148.365 37.6326C148.213 37.9177 148.135 38.2309 148.131 38.5723V39.6312C148.131 40.0753 148.213 40.4565 148.375 40.7747C148.537 41.0895 148.764 41.3315 149.056 41.5005C149.348 41.6663 149.689 41.7491 150.08 41.7491C150.342 41.7491 150.579 41.7127 150.791 41.6397C151.003 41.5635 151.187 41.4525 151.343 41.3066C151.499 41.1608 151.616 40.9802 151.696 40.7647L153.376 40.9537C153.27 41.3978 153.068 41.7856 152.77 42.117C152.475 42.4451 152.097 42.7003 151.636 42.8826C151.176 43.0616 150.649 43.1511 150.055 43.1511ZM154.974 35.3656H156.709V41.5204H159.11V35.3656H160.845V41.5204H163.246V35.3656H164.981V43.002H154.974V35.3656ZM170.18 43.1511C169.415 43.1511 168.754 42.992 168.197 42.6738C167.643 42.3523 167.217 41.8983 166.919 41.3116C166.621 40.7216 166.472 40.0273 166.472 39.2285C166.472 38.443 166.621 37.7536 166.919 37.1603C167.221 36.5637 167.642 36.0997 168.182 35.7683C168.722 35.4335 169.357 35.2662 170.086 35.2662C170.557 35.2662 171.001 35.3424 171.418 35.4949C171.839 35.644 172.21 35.876 172.532 36.1909C172.857 36.5057 173.112 36.9068 173.298 37.394C173.483 37.8779 173.576 38.4546 173.576 39.1241V39.676H167.317V38.4629H171.851C171.848 38.1182 171.773 37.8116 171.627 37.5431C171.481 37.2714 171.277 37.0576 171.016 36.9018C170.757 36.746 170.455 36.6681 170.111 36.6681C169.743 36.6681 169.42 36.7576 169.141 36.9366C168.863 37.1123 168.646 37.3443 168.49 37.6326C168.338 37.9177 168.26 38.2309 168.256 38.5723V39.6312C168.256 40.0753 168.338 40.4565 168.5 40.7747C168.662 41.0895 168.889 41.3315 169.181 41.5005C169.473 41.6663 169.814 41.7491 170.205 41.7491C170.467 41.7491 170.704 41.7127 170.916 41.6397C171.128 41.5635 171.312 41.4525 171.468 41.3066C171.624 41.1608 171.741 40.9802 171.821 40.7647L173.501 40.9537C173.395 41.3978 173.193 41.7856 172.895 42.117C172.6 42.4451 172.222 42.7003 171.761 42.8826C171.301 43.0616 170.774 43.1511 170.18 43.1511ZM180.344 38.438V39.9146H176.277V38.438H180.344ZM176.834 35.3656V43.002H175.099V35.3656H176.834ZM181.522 35.3656V43.002H179.792V35.3656H181.522ZM185.078 40.5659L188.135 35.3656H189.985V43.002H188.245V37.7967L185.197 43.002H183.343V35.3656H185.078V40.5659ZM196.347 43.002V36.8272H194.716C194.302 36.8272 193.984 36.9234 193.762 37.1156C193.54 37.3078 193.43 37.5465 193.434 37.8315C193.43 38.1165 193.535 38.3519 193.747 38.5375C193.959 38.7231 194.262 38.8159 194.657 38.8159H196.914V40.1284H194.657C194.047 40.1284 193.52 40.0323 193.076 39.84C192.632 39.6478 192.29 39.376 192.052 39.0247C191.813 38.6734 191.694 38.2624 191.694 37.7917C191.694 37.3012 191.815 36.8753 192.057 36.514C192.302 36.1494 192.65 35.8677 193.101 35.6689C193.555 35.4667 194.093 35.3656 194.716 35.3656H198.032V43.002H196.347ZM191.415 43.002L193.548 39.0843H195.323L193.185 43.002H191.415Z" fill="#989EAC"/>
<line x1="137" y1="2.00195" x2="254" y2="2.00195" stroke="#BEDBF3" stroke-width="2"/>
<defs>
<clipPath id="clip0_101_1689">
<rect width="110" height="46" fill="white"/>
</clipPath>
</defs>
</svg>
