<svg width="20" height="20" viewBox="0 0 20 20" fill="none" xmlns="http://www.w3.org/2000/svg">
<path d="M18.7834 5.35065C18.6844 4.95516 18.4828 4.59279 18.1989 4.30016C17.915 4.00752 17.559 3.79497 17.1667 3.68398C15.7334 3.33398 10 3.33398 10 3.33398C10 3.33398 4.2667 3.33398 2.83336 3.71732C2.44107 3.8283 2.08501 4.04085 1.80115 4.33349C1.51729 4.62613 1.31569 4.98849 1.2167 5.38398C0.954374 6.83861 0.826059 8.31424 0.833362 9.79232C0.824012 11.2815 0.952335 12.7684 1.2167 14.234C1.32583 14.6172 1.53195 14.9658 1.81515 15.2461C2.09835 15.5263 2.44905 15.7288 2.83336 15.834C4.2667 16.2173 10 16.2173 10 16.2173C10 16.2173 15.7334 16.2173 17.1667 15.834C17.559 15.723 17.915 15.5104 18.1989 15.2178C18.4828 14.9252 18.6844 14.5628 18.7834 14.1673C19.0437 12.7236 19.172 11.2593 19.1667 9.79232C19.176 8.30311 19.0477 6.81623 18.7834 5.35065V5.35065Z" stroke="#989EAC" stroke-width="1.4" stroke-linecap="round" stroke-linejoin="round"/>
<path d="M8.125 12.5164L12.9167 9.79141L8.125 7.06641V12.5164Z" stroke="#989EAC" stroke-width="1.4" stroke-linecap="round" stroke-linejoin="round"/>
</svg>
